<svg xmlns="http://www.w3.org/2000/svg" fill="none" viewBox="0 0 1920 1080">
  <g id="2019" class="2019" clip-path="url(#clip0_11253_193356)">
    <path fill="#C0E6EC" d="M0 0h1920v1080H0z"/>
    <g id="BG" class="BG">
      <path id="Subtract" fill="#81CCD9" d="M631.652 466.995c13.854-3.47 29.753-5.562 55.266-2.513l.001-.001c25.233 3.004 38.941 7.96 50.595 12.191 10.295 3.737 18.067 6.567 33.904 7.503l-.001.001c18.228 1.07 38.93.218 61.704.516 10.829.142 21.794.569 31.844 1.757 9.819 1.161 20.088 3.188 28.891 7.197l.001-.001c14.247 6.482 25.957 16.866 32.424 21.386 7.149 4.997 15.299 9.363 30.756 11.109 18.705 2.112 35.184 1.668 54.353 2.745 16.93.951 36.96 3.156 52.46 13.771l.01.005c2.71 1.859 6.87 3.688 12.91 5.462 6.03 1.77 12.54 3.11 19.93 4.692 6.89 1.477 14.93 3.235 22.05 5.78 6.79 2.425 15.85 6.592 22.16 14.811 12.38 16.117 11.28 18.504 28.81 33.138 9.36 7.81 26.1 21.129 40.5 34.557 7.25 6.754 14.45 14.03 20.2 21.188 5.22 6.494 11.44 15.497 13.2 25.487 1.67 9.5 4.53 26.103 9.01 41.873 2.24 7.889 4.73 14.988 7.4 20.57 2.88 6.021 5.02 8.238 5.55 8.635l.01.003v.005c7.75 5.83 19.98 14.264 29.62 23.753 9.77 9.628 20.27 23.476 21.19 41.893l.04.582c.46 6.064 3.41 13.5 8.39 22.365 2.49 4.423 5.09 8.542 7.75 12.85 2.41 3.899 5.32 8.633 7.31 13.018l.02.035c3.77 8.326 5.83 17.995 7.47 25.348 1.83 8.161 3.45 15.157 6.06 21.699l.01.012c2 5.021 5.09 8.519 10.93 16.215 5.1 6.715 12.54 17.125 13.51 31.705.4 5.963-.27 14.223-.86 21.332-.65 7.893-1.39 16.201-1.71 24.391-.33 8.3-.17 15.39.68 20.72.5 3.17 1.07 4.66 1.28 5.15 11.21 10.06 18.18 25.21 22.09 35.27.64 1.66 1.23 3.27 1.78 4.81h-43.41c-2.49-4.77-5.03-8.42-7.32-10.39-9.5-8.16-12.61-20.23-13.93-28.57-1.46-9.21-1.5-19.39-1.14-28.56.36-9.28 1.2-18.646 1.82-26.125.68-8.262.97-13.069.81-15.356v-.001c-.13-1.931-.92-4.178-5.44-10.119-3.76-4.96-11.65-14.115-16.24-25.601-3.98-9.97-6.21-20.026-7.95-27.817-1.92-8.572-3.15-13.75-4.86-17.532-.75-1.664-2.25-4.22-4.92-8.539-2.41-3.911-5.59-8.941-8.59-14.285-5.75-10.221-12.52-24.317-13.49-39.86l-.04-.741c-.18-3.6-2.31-8.459-9.29-15.337-7.12-7.014-15.76-12.884-25.57-20.265-8.27-6.206-13.82-15.406-17.63-23.379-4.03-8.413-7.24-17.889-9.8-26.919-5.14-18.066-8.32-36.676-9.94-45.884.12.637-.39-1.64-4.96-7.319-4.03-5.016-9.66-10.808-16.29-16.983-13.33-12.43-28.44-24.416-38.86-33.107v-.005c-21.79-18.189-25.25-26.821-34.59-39.075-.28-.179-1.42-.914-4.21-1.911-4.24-1.516-9.73-2.784-16.97-4.335-6.76-1.446-15.01-3.133-22.82-5.424-7.79-2.286-16.54-5.552-24.26-10.851-5.37-3.676-14.99-5.872-32.11-6.833-14.882-.836-36.852-.705-56.595-2.935-22.99-2.597-37.361-9.814-49.164-18.064-12.485-8.726-16.157-13.252-26.078-17.766l-.007-.004c-3.279-1.493-8.798-2.907-17.031-3.881-8.005-.946-17.361-1.348-27.677-1.483-19.515-.256-44.399.541-63.529-.583l-.006-.001c-21.509-1.271-33.507-5.593-45.179-9.83-10.314-3.744-20.775-7.584-41.686-10.073l-.01-.001c-20.614-2.465-31.622-.709-40.833 1.598-9.134 2.288-22.258 7.123-39.958 8.386-10.515.756-13.52 3.583-15.781 5.956-2.204 2.313-3.333 4.031-6.927 8.425-3.098 3.789-7.282 8.507-13.217 12.755-13.838 9.903-29.265 9.772-41.83 8.912-13.927-.954-26.638-2.985-45.593-2.985-7.657 0-11.837.449-13.877.779a37.606 37.606 0 0 1-4.531 5.054c-4.962 4.59-11.157 7.683-18.943 9.91-15.772 4.51-30.652 3.497-45.276.119-14.029-3.241-29.219-9.045-45.101-14.882-13.653-5.012-28.285-6.815-46.457-8.009-17.603-1.156-39.094-1.743-62.624-5.109l-.006-.001c-20.606-2.955-46.515-2.801-70.482-1.97-12.137.421-22.595.96-32.345 1.337-8.895.344-17.657.582-23.639.015l-.691-.06c-7.353-.579-21.285-.014-36.882.489-7.529.243-15.222.451-21.666.369-3.217-.04-6.434-.156-9.339-.422-2.283-.21-5.917-.627-9.467-1.848a15.96 15.96 0 0 0-1.557-.055c-1.991.012-4.477.222-7.98.573-3.16.316-7.329.768-11.332.954-3.965.183-9.001.185-14.09-.836A68.125 68.125 0 0 1 0 533.34v-42.224c3.895 1.781 7.185 2.832 9.61 3.317l.008.002.008.002c1.83.367 5.327.125 13.58-.702 3.363-.337 7.607-.746 11.728-.77 3.671-.022 8.84.223 14.078 1.979.191.025.463.057.826.09 1.427.131 3.479.224 6.2.259 5.431.069 12.293-.107 19.868-.352 14.11-.455 32.193-1.258 42.618-.273l.014.001c2.804.267 8.726.208 18.327-.163 8.753-.338 20.61-.931 32.503-1.343 24.091-.835 53.104-1.15 77.528 2.351v-.001c21.514 3.078 40.118 3.514 59.586 4.793 18.897 1.241 38.313 3.287 57.612 10.373l.006.002c17.071 6.274 29.348 10.921 40.312 13.454 10.37 2.395 18.012 2.481 25.306.395 1.448-.414 2.333-.762 2.821-.981.452-.634 1.668-2.315 2.851-3.67 9.423-10.797 23.318-12.631 42.659-12.631 20.582 0 38.079 2.376 48.32 3.077 11.601.794 14.304-.433 15.848-1.538 1.755-1.256 3.339-2.867 5.527-5.543 1.694-2.071 5.371-6.958 8.934-10.697 9.272-9.732 21.642-16.809 41.87-18.26l.009-.001c13.063-.932 19.164-3.802 33.095-7.291Zm477.558 130.847v-.01l-.01-.004c.01.005.01.009.01.014Z" class="Subtract"/>
      <path id="Vector 22" fill="#BED50F" d="M1343 1044.01c.4 26.4 19.83 34.83 29.5 36H0V530.008c.333.166 3.8.1 15-1.5 14-2 13 4 35.5 2s36.5 3 64 0 87.5-2 112 0 66 4.5 96 8 34.5 15 70 21.5 42.5-9 50-15.5c7.334-6.356 31.878-3.151 54.466-.2l1.534.2c23 3 40.5 2 50.5-10.5s19-22.5 32.5-24 26-2.998 39-7.498 39-11 80 2.5 56.5 14.996 107 14.996 45-3.5 85.5 20 35 20.5 70 23 38.5 0 65 5.5 27.5 14.5 43.5 17 33.5 7 43.5 18 19 24 35 37 49 43.5 57.5 55 7.5 32.5 16 62.5 26 36 45 53.5 12.5 24 20.5 47.5 18 22 26.5 56 13 36 25.5 55 1.5 41.004 2 74.004Z" class="Vector 22"/>
    </g>
    <g id="Cluster_Active-RedPin_2" class="Cluster_Active-RedPin">
      <circle id="Ellipse 54" cx="1245" cy="529.5" r="64" fill="#fff" fill-opacity=".4" stroke="#fff" stroke-width="2" class="Ellipse 54" opacity=".2"/>
      <circle id="Ellipse 55" cx="1245" cy="529.5" r="47" fill="#fff" fill-opacity=".5" stroke="#fff" stroke-width="2" class="Ellipse 55"/>
    </g>
    <g id="Cluster_Active-RedPin_1" class="Cluster_Active-RedPin">
      <circle id="Ellipse 54_2" cx="1161" cy="492.5" r="64" fill="#fff" fill-opacity=".4" stroke="#fff" stroke-width="2" class="Ellipse 54" opacity=".2"/>
      <circle id="Ellipse 55_2" cx="1161" cy="492.5" r="47" fill="#fff" fill-opacity=".5" stroke="#fff" stroke-width="2" class="Ellipse 55"/>
    </g>
    <g id="RedPin_2-BaciaPotiguar" class="RedPin_2-BaciaPotiguar">
      <g id="Header" class="Header">
        <rect width="53" height="34" x="1218.5" y="510.742" fill="#DD1D21" rx="17"/>
        <g id="IconContainer" class="IconContainer">
          <path id="Icon" fill="#fff" d="M1235.5 534.632c-.94 0-1.73-.328-2.39-.985a3.246 3.246 0 0 1-.99-2.39c0-.936.33-1.733.99-2.39a3.257 3.257 0 0 1 2.39-.985c.94 0 1.73.329 2.39.985.66.657.98 1.454.98 2.39 0 .937-.32 1.733-.98 2.39-.66.657-1.45.985-2.39.985Zm-3.74-7.056-3.21-3.23a10.133 10.133 0 0 1 6.95-2.752c1.3 0 2.54.237 3.74.712 1.19.475 2.26 1.155 3.21 2.04l-3.22 3.23a5.597 5.597 0 0 0-1.73-1.097 5.293 5.293 0 0 0-2-.385c-.7 0-1.37.128-2 .385-.64.258-1.22.623-1.74 1.097Z" class="Icon"/>
        </g>
        <path id="Number" fill="#fff" d="M1261.15 531.754v2.988h-10.89l3.43-3.6c.99-1.044 2.18-2.502 2.83-3.456.54-.792.83-1.638.83-2.34 0-.972-.7-1.746-1.57-1.746-.86 0-1.46.684-1.46 1.656 0 .144.02.288.06.576h-3.87c0-.954.21-1.818.68-2.7.87-1.638 2.49-2.52 4.56-2.52 3.07 0 5.25 2.034 5.25 4.878 0 1.584-.61 2.826-2.01 4.14l-2.27 2.124h4.43Z" class="Number"/>
      </g>
      <path id="pin" fill="#DD1D21" d="M1245 541.734h3.12c1.99 0 2.85 2.317 1.26 3.426l-3.11 2.178c-.75.523-1.79.523-2.54 0l-3.11-2.178c-1.59-1.109-.73-3.426 1.26-3.426h3.12Z" class="pin"/>
    </g>
    <g id="RedPin_1-BaciaPotiguar" class="RedPin_1-BaciaPotiguar">
      <g id="Header_2" class="Header">
        <rect width="53" height="34" x="1134.5" y="475.742" fill="#DD1D21" rx="17"/>
        <g id="IconContainer_2" class="IconContainer">
          <path id="Icon_2" fill="#fff" d="M1151.5 499.632c-.94 0-1.73-.328-2.39-.985a3.246 3.246 0 0 1-.99-2.39c0-.936.33-1.733.99-2.39a3.257 3.257 0 0 1 2.39-.985c.94 0 1.73.329 2.39.985.66.657.98 1.454.98 2.39 0 .937-.32 1.733-.98 2.39-.66.657-1.45.985-2.39.985Zm-3.74-7.056-3.21-3.23a10.133 10.133 0 0 1 6.95-2.752c1.3 0 2.54.237 3.74.712 1.19.475 2.26 1.155 3.21 2.04l-3.22 3.23a5.597 5.597 0 0 0-1.73-1.097 5.293 5.293 0 0 0-2-.385c-.7 0-1.37.128-2 .385-.64.258-1.22.623-1.74 1.097Z" class="Icon"/>
        </g>
        <path id="Number_2" fill="#fff" d="M1168.9 489.158v-2.988h5.45v13.572h-3.51v-10.584h-1.94Z" class="Number"/>
      </g>
      <path id="pin_2" fill="#DD1D21" d="M1161 506.734h3.12c1.99 0 2.85 2.317 1.26 3.426l-3.11 2.178c-.75.523-1.79.523-2.54 0l-3.11-2.178c-1.59-1.109-.73-3.426 1.26-3.426h3.12Z" class="pin"/>
    </g>
  </g>
  <defs>
    <clipPath id="clip0_11253_193356" class="clip0_11253">
      <path fill="#fff" d="M0 0h1920v1080H0z"/>
    </clipPath>
  </defs>
</svg>
