<svg fill="none" viewBox="0 0 1920 1080">
  <g class="2022" clip-path="url(#a)">
    <path fill="#C0E6EC" d="M0 0h1920v1080H0z"/>
    <g class="BG">
      <path fill="#81CCD9" d="M631.652 466.481c13.854-3.464 29.753-5.553 55.266-2.508l.001-.001c25.233 2.998 38.94 7.947 50.595 12.171 10.295 3.731 18.067 6.556 33.904 7.49l-.001.001c18.228 1.068 38.93.217 61.704.515 10.829.142 21.794.568 31.844 1.754 9.819 1.159 20.088 3.183 28.891 7.185l.001-.001c14.247 6.472 25.957 16.839 32.424 21.352 7.149 4.989 15.299 9.347 30.756 11.09 18.705 2.11 35.184 1.666 54.353 2.742 16.93.949 36.96 3.151 52.46 13.749l.01.004c2.71 1.857 6.87 3.682 12.91 5.454 6.03 1.766 12.54 3.105 19.93 4.684 6.89 1.474 14.93 3.23 22.05 5.771 6.79 2.421 15.85 6.581 22.16 14.787 12.38 16.091 11.28 18.474 28.81 33.084 9.36 7.797 26.1 21.095 40.5 34.501 7.25 6.743 14.45 14.008 20.2 21.154 5.22 6.484 11.44 15.472 13.2 25.445 1.67 9.485 4.53 26.061 9.01 41.806 2.24 7.876 4.73 14.963 7.4 20.536 2.88 6.013 5.02 8.226 5.55 8.621l.01.004v.005c7.75 5.82 19.98 14.239 29.62 23.714 9.77 9.612 20.27 23.438 21.19 41.825l.04.581c.46 6.054 3.41 13.478 8.39 22.329 2.49 4.416 5.09 8.528 7.75 12.828 2.41 3.893 5.32 8.62 7.31 12.998l.02.036c3.77 8.312 5.83 17.965 7.47 25.306 1.83 8.148 3.45 15.133 6.06 21.664l.01.012c2 5.012 5.09 8.505 10.93 16.188 5.1 6.704 12.54 17.097 13.51 31.654.4 5.953-.27 14.2-.86 21.298-.65 7.88-1.39 16.171-1.71 24.351-.33 8.29-.17 15.37.68 20.69.5 3.16 1.07 4.65 1.28 5.14 11.21 10.05 18.18 25.17 22.09 35.21.64 1.65 1.23 3.26 1.78 4.8h-43.42c-2.48-4.76-5.02-8.41-7.31-10.37-9.5-8.14-12.61-20.19-13.93-28.52-1.46-9.2-1.5-19.36-1.14-28.52.36-9.26 1.2-18.614 1.82-26.08.68-8.249.97-13.048.81-15.331v-.001c-.13-1.929-.92-4.172-5.44-10.104-3.76-4.951-11.65-14.091-16.24-25.558-3.98-9.954-6.21-19.994-7.95-27.773-1.92-8.558-3.15-13.727-4.86-17.503-.75-1.661-2.25-4.213-4.92-8.525-2.41-3.905-5.59-8.926-8.59-14.262-5.75-10.204-12.52-24.277-13.49-39.796l-.04-.74c-.18-3.594-2.31-8.444-9.29-15.312-7.12-7.002-15.76-12.863-25.57-20.232-8.27-6.196-13.82-15.381-17.63-23.341-4.03-8.399-7.24-17.86-9.8-26.875-5.14-18.037-8.32-36.617-9.94-45.809.12.635-.39-1.638-4.96-7.308-4.03-5.008-9.66-10.791-16.29-16.956-13.33-12.41-28.44-24.376-38.86-33.053v-.005c-21.79-18.16-25.25-26.778-34.59-39.011-.28-.18-1.42-.913-4.21-1.909-4.24-1.513-9.73-2.779-16.97-4.328-6.76-1.443-15.01-3.128-22.82-5.415-7.79-2.283-16.54-5.543-24.26-10.834-5.37-3.669-14.99-5.861-32.11-6.821-14.882-.835-36.852-.704-56.595-2.931-22.99-2.592-37.361-9.798-49.164-18.035-12.485-8.712-16.157-13.23-26.078-17.736l-.007-.004c-3.279-1.491-8.797-2.903-17.031-3.875-8.005-.945-17.361-1.345-27.677-1.481-19.515-.255-44.399.54-63.529-.582l-.006-.001c-21.509-1.268-33.507-5.584-45.179-9.814-10.314-3.738-20.775-7.572-41.686-10.057l-.01-.001c-20.614-2.46-31.622-.707-40.833 1.596-9.134 2.284-22.258 7.112-39.958 8.372-10.515.755-13.52 3.577-15.781 5.946-2.204 2.31-3.333 4.024-6.927 8.412-3.098 3.783-7.282 8.493-13.217 12.734-13.838 9.887-29.265 9.756-41.83 8.897-13.927-.952-26.638-2.979-45.593-2.979-7.657 0-11.837.449-13.877.777a37.497 37.497 0 0 1-4.531 5.047c-4.962 4.582-11.157 7.67-18.943 9.893-15.772 4.502-30.652 3.492-45.276.119-14.029-3.236-29.219-9.03-45.101-14.858-13.653-5.004-28.284-6.804-46.457-7.996-17.603-1.154-39.094-1.74-62.624-5.101l-.006-.001c-20.606-2.95-46.515-2.796-70.482-1.966-12.137.42-22.595.959-32.345 1.335-8.895.343-17.657.581-23.639.015l-.691-.06c-7.353-.578-21.285-.014-36.882.488-7.529.243-15.222.45-21.666.368-3.217-.04-6.434-.155-9.339-.421-2.283-.209-5.917-.626-9.467-1.845-.237-.022-.734-.06-1.557-.055-1.991.012-4.477.221-7.98.571-3.16.317-7.329.769-11.332.954-3.965.183-9.001.185-14.09-.835A68.064 68.064 0 0 1 0 532.719v-42.157c3.895 1.778 7.185 2.828 9.61 3.312l.008.002.008.002c1.83.367 5.327.125 13.58-.7 3.363-.337 7.607-.746 11.728-.77 3.671-.021 8.84.223 14.078 1.977.191.025.463.056.826.09 1.427.13 3.479.224 6.2.258 5.431.069 12.293-.107 19.868-.351 14.11-.455 32.193-1.256 42.618-.273l.014.001c2.804.267 8.726.208 18.327-.163 8.753-.337 20.61-.929 32.503-1.341 24.091-.833 53.104-1.148 77.528 2.347v-.001c21.514 3.073 40.118 3.508 59.586 4.785 18.897 1.24 38.313 3.282 57.612 10.357l.006.002c17.071 6.264 29.348 10.903 40.312 13.432 10.37 2.392 18.012 2.477 25.306.395 1.448-.414 2.333-.761 2.821-.98.452-.632 1.668-2.311 2.851-3.664 9.423-10.779 23.318-12.61 42.659-12.61 20.582 0 38.079 2.372 48.32 3.072 11.601.793 14.304-.433 15.848-1.536 1.755-1.254 3.339-2.862 5.527-5.534 1.694-2.068 5.371-6.946 8.934-10.68 9.272-9.716 21.642-16.781 41.87-18.23l.009-.001c13.063-.931 19.164-3.795 33.095-7.279Zm477.558 130.635v-.01l-.01-.003c.01.004.01.009.01.013Z" class="Subtract"/>
      <path fill="#BED50F" d="M587.978 509.703c30.762-2.191 38.448-15.385 84.581-9.878 46.144 5.484 48.335 17.564 85.682 19.767 37.359 2.191 91.176-3.292 115.344 7.698 24.168 10.979 30.763 29.771 69.211 34.106 38.448 4.336 76.894-1.147 97.764 13.125 20.87 14.294 61.51 12.091 72.5 26.385 10.98 14.271 12.08 19.767 31.85 36.252 19.78 16.474 63.72 50.535 67.01 69.211 3.29 18.677 12.08 70.313 29.66 83.494 17.58 13.193 41.74 28.566 42.84 50.546 1.11 21.969 19.77 43.95 25.27 56.03 5.49 12.092 6.59 29.656 13.18 46.141s21.97 25.273 23.07 41.758c1.1 16.472-9.89 71.412 5.49 84.592 11.48 8.05 18.86 9.39 21.72 9.57L0 1078.95V530.015c10.576.008 23.799-3.25 31.054-.535 8.775 3.304 56.02-1.124 73.592.534 17.573 1.669 82.391-5.716 127.422.73 45.044 6.434 80.189 2.041 113.143 14.121 32.954 12.092 54.931 20.867 77.997 14.282 23.066-6.584 3.292-16.485 42.841-16.485 39.537 0 60.413 8.799 75.795-2.191 15.381-10.991 15.382-28.565 46.134-30.768Z" class="Subtract"/>
    </g>
    <g class="RedPin_2-BaciaPotiguar">
      <g class="Header">
        <rect width="53" height="34" x="1218.5" y="510.742" fill="#DD1D21" rx="17"/>
        <g class="IconContainer">
          <path fill="#fff" d="M1235.5 534.632c-.94 0-1.73-.328-2.39-.985a3.246 3.246 0 0 1-.99-2.39c0-.936.33-1.733.99-2.39a3.257 3.257 0 0 1 2.39-.985c.94 0 1.73.329 2.39.985.66.657.98 1.454.98 2.39 0 .937-.32 1.733-.98 2.39-.66.657-1.45.985-2.39.985Zm-3.74-7.056-3.21-3.23a10.133 10.133 0 0 1 6.95-2.752c1.3 0 2.54.237 3.74.712 1.19.475 2.26 1.155 3.21 2.04l-3.22 3.23a5.597 5.597 0 0 0-1.73-1.097 5.293 5.293 0 0 0-2-.385c-.7 0-1.37.128-2 .385-.64.258-1.22.623-1.74 1.097Z" class="Icon"/>
        </g>
        <path fill="#fff" d="M1261.15 531.754v2.988h-10.89l3.43-3.6c.99-1.044 2.18-2.502 2.83-3.456.54-.792.83-1.638.83-2.34 0-.972-.7-1.746-1.57-1.746-.86 0-1.46.684-1.46 1.656 0 .144.02.288.06.576h-3.87c0-.954.21-1.818.68-2.7.87-1.638 2.49-2.52 4.56-2.52 3.07 0 5.25 2.034 5.25 4.878 0 1.584-.61 2.826-2.01 4.14l-2.27 2.124h4.43Z" class="Number"/>
      </g>
      <path fill="#DD1D21" d="M1245 541.734h3.12c1.99 0 2.85 2.317 1.26 3.426l-3.11 2.178c-.75.523-1.79.523-2.54 0l-3.11-2.178c-1.59-1.109-.73-3.426 1.26-3.426h3.12Z" class="pin"/>
    </g>
    <g class="RedPin_1-BaciaPotiguar">
      <g class="Header">
        <rect width="53" height="34" x="1134.5" y="475.742" fill="#DD1D21" rx="17"/>
        <g class="IconContainer">
          <path fill="#fff" d="M1151.5 499.632c-.94 0-1.73-.328-2.39-.985a3.246 3.246 0 0 1-.99-2.39c0-.936.33-1.733.99-2.39a3.257 3.257 0 0 1 2.39-.985c.94 0 1.73.329 2.39.985.66.657.98 1.454.98 2.39 0 .937-.32 1.733-.98 2.39-.66.657-1.45.985-2.39.985Zm-3.74-7.056-3.21-3.23a10.133 10.133 0 0 1 6.95-2.752c1.3 0 2.54.237 3.74.712 1.19.475 2.26 1.155 3.21 2.04l-3.22 3.23a5.597 5.597 0 0 0-1.73-1.097 5.293 5.293 0 0 0-2-.385c-.7 0-1.37.128-2 .385-.64.258-1.22.623-1.74 1.097Z" class="Icon"/>
        </g>
        <path fill="#fff" d="M1168.9 489.158v-2.988h5.45v13.572h-3.51v-10.584h-1.94Z" class="Number"/>
      </g>
      <path fill="#DD1D21" d="M1161 506.734h3.12c1.99 0 2.85 2.317 1.26 3.426l-3.11 2.178c-.75.523-1.79.523-2.54 0l-3.11-2.178c-1.59-1.109-.73-3.426 1.26-3.426h3.12Z" class="pin"/>
    </g>
  </g>
  <defs>
    <clipPath id="a" class="a">
      <path fill="#fff" d="M0 0h1920v1080H0z"/>
    </clipPath>
  </defs>
</svg>
