<svg xmlns="http://www.w3.org/2000/svg" width="24" height="30" fill="none" viewBox="0 0 24 30">
  <path fill="#616161" d="M12 0c4.025 3.425 7.031 6.606 9.019 9.544C23.006 12.48 24 15.2 24 17.7c0 3.5-1.144 6.425-3.432 8.775C18.281 28.825 15.425 30 12 30s-6.28-1.175-8.568-3.525C1.144 24.125 0 21.2 0 17.7c0-2.5.994-5.219 2.981-8.156C4.97 6.606 7.975 3.425 12 0Zm0 3.975C9.025 6.7 6.781 9.213 5.269 11.513 3.756 13.813 3 15.875 3 17.7c0 .1.003.2.006.3h17.988c.003-.1.006-.2.006-.3 0-1.825-.756-3.887-2.269-6.187C17.22 9.213 14.975 6.7 12 3.975Z"/>
</svg>
