<svg xmlns="http://www.w3.org/2000/svg" width="29" height="29" fill="none" viewBox="0 0 29 29">
  <path fill="#86207C" d="m19.46 21.04 1.58-1.58-5.665-5.666V6.75h-2.25v7.956l6.334 6.335Zm-5.207 7.46c-1.971 0-3.824-.374-5.558-1.122a14.392 14.392 0 0 1-4.526-3.045 14.391 14.391 0 0 1-3.047-4.524C.374 18.076 0 16.223 0 14.253c0-1.971.374-3.824 1.122-5.558a14.393 14.393 0 0 1 3.045-4.526 14.392 14.392 0 0 1 4.524-3.047C10.424.374 12.277 0 14.247 0c1.971 0 3.824.374 5.558 1.122a14.394 14.394 0 0 1 4.526 3.045 14.392 14.392 0 0 1 3.047 4.524c.748 1.733 1.122 3.586 1.122 5.556 0 1.971-.374 3.824-1.122 5.558a14.394 14.394 0 0 1-3.045 4.526 14.392 14.392 0 0 1-4.524 3.047c-1.733.748-3.586 1.122-5.556 1.122Z"/>
</svg>
