<svg xmlns="http://www.w3.org/2000/svg" fill="none" viewBox="0 0 28 27">
  <path id="Icon" fill="#fff" d="M13.904 26.077c-1.873 0-3.466-.657-4.78-1.97-1.313-1.314-1.97-2.907-1.97-4.78 0-1.873.657-3.467 1.97-4.78 1.314-1.314 2.907-1.97 4.78-1.97 1.873 0 3.466.656 4.78 1.97 1.313 1.313 1.97 2.907 1.97 4.78 0 1.873-.657 3.466-1.97 4.78-1.314 1.313-2.907 1.97-4.78 1.97ZM6.433 11.965 0 5.504a20.35 20.35 0 0 1 6.427-4.079A20.061 20.061 0 0 1 13.904 0c2.594 0 5.086.475 7.477 1.425a20.35 20.35 0 0 1 6.427 4.079l-6.433 6.461a11.417 11.417 0 0 0-3.464-2.194A10.612 10.612 0 0 0 13.904 9c-1.396 0-2.732.257-4.007.771a11.417 11.417 0 0 0-3.464 2.194Z" class="Icon"/>
</svg>
