<svg xmlns="http://www.w3.org/2000/svg" width="38" height="26" fill="none" viewBox="0 0 38 26">
  <path fill="#343434" d="M18.697 20.308c2.077 0 3.842-.727 5.293-2.181 1.452-1.454 2.177-3.22 2.177-5.298 0-2.077-.727-3.842-2.181-5.293-1.454-1.451-3.22-2.177-5.297-2.177-2.078 0-3.842.727-5.294 2.181-1.451 1.454-2.177 3.22-2.177 5.298 0 2.077.727 3.841 2.181 5.293 1.455 1.451 3.22 2.177 5.298 2.177Zm-.004-2.525c-1.375 0-2.544-.48-3.507-1.443-.962-.963-1.443-2.132-1.443-3.507s.48-2.543 1.443-3.506c.963-.962 2.132-1.444 3.507-1.444s2.543.482 3.506 1.444c.962.963 1.444 2.131 1.444 3.506s-.482 2.544-1.444 3.507c-.963.962-2.131 1.443-3.506 1.443Zm0 7.884c-3.86 0-7.39-1.03-10.59-3.089S2.35 17.81.44 14.452a3.23 3.23 0 0 1-.335-.796 3.225 3.225 0 0 1 .335-2.441c1.91-3.359 4.463-6.067 7.663-8.126C11.303 1.029 14.833 0 18.693 0c3.86 0 7.389 1.03 10.589 3.089s5.754 4.767 7.663 8.126c.153.263.264.529.335.796a3.236 3.236 0 0 1 0 1.645c-.07.267-.182.532-.335.796-1.909 3.358-4.463 6.067-7.663 8.126-3.2 2.06-6.73 3.089-10.59 3.089Z"/>
</svg>
