<svg xmlns="http://www.w3.org/2000/svg" width="39" height="35" fill="none" viewBox="0 0 39 35">
  <path fill="#757575" d="m33.409 34.255-7.418-7.362c-.94.348-1.982.633-3.126.854a19.43 19.43 0 0 1-3.686.331c-4.308 0-8.182-1.185-11.623-3.554-3.442-2.37-5.96-5.462-7.556-9.28a20.355 20.355 0 0 1 2.623-4.531 20.84 20.84 0 0 1 3.54-3.648L1.086 1.932 3.018 0l32.323 32.323-1.932 1.932Zm-14.23-11.536a7.26 7.26 0 0 0 1.178-.099 4.98 4.98 0 0 0 1.072-.29l-9.336-9.335a5.77 5.77 0 0 0-.29 1.098c-.065.397-.098.78-.098 1.152 0 2.08.726 3.846 2.177 5.297 1.451 1.451 3.217 2.177 5.297 2.177Zm12.749.93-5.75-5.704a8.18 8.18 0 0 0 .345-1.255 7.56 7.56 0 0 0 .13-1.445c0-2.08-.725-3.846-2.176-5.298-1.452-1.451-3.217-2.177-5.298-2.177-.517 0-.992.047-1.427.14a5.945 5.945 0 0 0-1.256.417L11.91 3.758c1.159-.46 2.342-.8 3.55-1.019a20.834 20.834 0 0 1 3.72-.328c4.296 0 8.17 1.185 11.623 3.554 3.453 2.37 5.972 5.463 7.556 9.28a20.706 20.706 0 0 1-2.632 4.587 20.323 20.323 0 0 1-3.799 3.817Zm-7.827-7.763-5.517-5.5c.808-.152 1.571-.093 2.29.18a5.026 5.026 0 0 1 1.856 1.216c.531.539.92 1.17 1.167 1.894s.315 1.46.204 2.21Z"/>
</svg>
