<svg xmlns="http://www.w3.org/2000/svg" fill="none" viewBox="0 0 68 68">
  <g id="Frame 2">
    <rect width="68" height="68" fill="#86207C" rx="16"/>
    <g id="IconBox">
      <path id="Icon" fill="#fff" d="m39.21 40.79 1.58-1.58-5.665-5.666V26.5h-2.25v7.956l6.334 6.334Zm-5.207 7.46c-1.971 0-3.824-.374-5.558-1.122a14.392 14.392 0 0 1-4.526-3.045 14.39 14.39 0 0 1-3.047-4.524c-.748-1.733-1.122-3.586-1.122-5.556 0-1.971.374-3.824 1.122-5.558a14.392 14.392 0 0 1 3.045-4.526 14.39 14.39 0 0 1 4.524-3.047c1.733-.748 3.586-1.122 5.556-1.122 1.971 0 3.824.374 5.558 1.122a14.394 14.394 0 0 1 4.526 3.045 14.392 14.392 0 0 1 3.047 4.524c.748 1.733 1.122 3.586 1.122 5.556 0 1.971-.374 3.824-1.122 5.558a14.394 14.394 0 0 1-3.045 4.526 14.392 14.392 0 0 1-4.524 3.047c-1.733.748-3.586 1.122-5.556 1.122Z"/>
    </g>
  </g>
</svg>
