<svg xmlns="http://www.w3.org/2000/svg" fill="none" viewBox="0 0 68 68">
  <g id="Frame 2">
    <rect width="68" height="68" fill="#616161" rx="16"/>
    <g id="IconBox">
      <path id="Icon" fill="#fff" d="M34 19c4.025 3.425 7.031 6.606 9.019 9.544C45.006 31.48 46 34.2 46 36.7c0 3.5-1.144 6.425-3.432 8.775C40.281 47.825 37.425 49 34 49s-6.28-1.175-8.568-3.525C23.144 43.125 22 40.2 22 36.7c0-2.5.994-5.219 2.981-8.156C26.97 25.606 29.975 22.425 34 19Zm0 3.975c-2.975 2.725-5.219 5.238-6.731 7.538C25.756 32.813 25 34.875 25 36.7c0 .1.003.2.006.3h17.988c.002-.1.006-.2.006-.3 0-1.825-.756-3.887-2.269-6.187-1.512-2.3-3.756-4.813-6.731-7.538Z"/>
    </g>
  </g>
</svg>
