<svg xmlns="http://www.w3.org/2000/svg" fill="none" viewBox="0 0 68 68">
  <g id="Frame 2">
    <rect width="68" height="68" fill="#DD1D21" rx="16"/>
    <g id="IconBox">
      <path id="Icon" fill="#fff" d="M34 47.788c-1.873 0-3.466-.656-4.78-1.97-1.313-1.313-1.97-2.907-1.97-4.78 0-1.873.657-3.466 1.97-4.78 1.314-1.313 2.907-1.97 4.78-1.97 1.873 0 3.466.657 4.78 1.97 1.313 1.314 1.97 2.907 1.97 4.78 0 1.873-.657 3.467-1.97 4.78-1.314 1.314-2.907 1.97-4.78 1.97Zm-7.471-14.111-6.433-6.462a20.35 20.35 0 0 1 6.427-4.078A20.061 20.061 0 0 1 34 21.712c2.594 0 5.087.475 7.477 1.425a20.35 20.35 0 0 1 6.427 4.078l-6.433 6.462a11.417 11.417 0 0 0-3.464-2.194A10.613 10.613 0 0 0 34 30.712c-1.396 0-2.732.257-4.007.771a11.417 11.417 0 0 0-3.464 2.194Z"/>
    </g>
  </g>
</svg>
