<svg xmlns="http://www.w3.org/2000/svg" fill="none" viewBox="0 0 1920 1080">
  <g id="2024" class="2024" clip-path="url(#clip0_11253_184390)">
    <path fill="#C0E6EC" d="M0 0h1920v1080H0z"/>
    <g id="BG" class="BG">
      <path id="Vector 20" fill="#BED50F" d="M0 0h972v32c0 22.5 14 66-5 99.5S947 168 934.5 217 904 274 883 307.5s-15.5 79-46.5 107-5 28-28 47.5-62 10-71.5 3-21.5-12.5-32-7-17-.5-31.5-1-43.5 14.5-75 39-79 24-92 37-2 16.5-10 25.5-36.5 12.5-47.5 20-27.5 32-29.5 47-3.5 18.5-15 26-13.5 10.5-6 16.5 7.5 9 6 23.5-3 26 1.5 38 26.5 16 11 44-26.5 22.5-47 33-21 38-34.5 64.5-66 7.5-78 21-2.5 23-9.5 41-23.5 8.5-32 11.5-11 15.5-18 27-8.5 21.5-6 36.5-.5 20-3.5 33-6.5 12.5-22 22c-12.4 7.6-6 8-24.5 16.5H0V0Z" class="Vector 20"/>
      <path id="Subtract" fill="#81CCD9" d="M1028 32c0 22.5 14 66-5 99.5s-20 36.5-32.5 85.5-30.5 57-51.5 90.5-15.5 79-46.5 107-5 28-28 47.5-29 28-53 38c-75.5 31.458-108.664-22.029-155 0-31.5 24.5-56 21.5-69 34.5s-27 15-35 24-36.5 12.5-47.5 20-27.5 32-29.5 47-3.5 18.5-15 26-13.5 10.5-6 16.5 7.5 9 6 23.5-3 26 1.5 38 26.5 16 11 44-26.5 22.5-47 33-21 38-34.5 64.5-37.5 44-62.5 46.5c-51.5-5.5-45.06 22.786-57 27-8.5 3-11 15.5-18 27s-8.5 21.5-6 36.5-.5 20-3.5 33-6.5 12.5-22 22c-12.4 7.6-6 8-24.5 16.5h-56c18.5-8.5 12.1-8.9 24.5-16.5 15.5-9.5 19-9 22-22s6-18 3.5-33-1-25 6-36.5 9.5-24 18-27 25 6.5 32-11.5-2.5-27.5 9.5-41 64.5 5.5 78-21 14-54 34.5-64.5 31.5-5 47-33-6.5-32-11-44-3-23.5-1.5-38 1.5-17.5-6-23.5-5.5-9 6-16.5 13-11 15-26 18.5-39.5 29.5-47 39.5-11 47.5-20-3-12.5 10-25.5 60.5-12.5 92-37 60.5-39.5 75-39 21 6.5 31.5 1 22.5 0 32 7 48.5 16.5 71.5-3-3-19.5 28-47.5S862 341 883 307.5s39-41.5 51.5-90.5 13.5-52 32.5-85.5 5-77 5-99.5V0h56v32Z" class="Subtract"/>
    </g>
    <g id="Cluster_Active-RedPin_1" class="Cluster_Active-RedPin">
      <circle id="Ellipse 54" cx="1263" cy="597.5" r="64" fill="#fff" fill-opacity=".4" stroke="#fff" stroke-width="2" class="Ellipse 54" opacity=".2"/>
      <circle id="Ellipse 55" cx="1263" cy="597.5" r="47" fill="#fff" fill-opacity=".5" stroke="#fff" stroke-width="2" class="Ellipse 55"/>
    </g>
    <g id="Cluster_Active-RedPin_2" class="Cluster_Active-RedPin">
      <circle id="Ellipse 54_2" cx="1170" cy="682.5" r="64" fill="#fff" fill-opacity=".4" stroke="#fff" stroke-width="2" class="Ellipse 54" opacity=".2"/>
      <circle id="Ellipse 55_2" cx="1170" cy="682.5" r="47" fill="#fff" fill-opacity=".5" stroke="#fff" stroke-width="2" class="Ellipse 55"/>
    </g>
    <g id="RedPin_1-BaciaPelotas" class="RedPin_1-BaciaPelotas">
      <path id="Rectangle 2" fill="#DD1D21" d="M1261.26 611.749h3.11c2 0 2.86 2.318 1.27 3.426l-3.11 2.179c-.75.523-1.79.523-2.54 0l-3.12-2.179c-1.58-1.108-.72-3.426 1.27-3.426h3.12Z" class="Rectangle 2"/>
      <g id="Frame 2" class="Frame 2">
        <rect width="68" height="34" x="1229.25" y="580.75" fill="#DD1D21" rx="17"/>
        <g id="compass_calibration_24dp_E3E3E3_FILL1_wght300_GRAD0_opsz24 1" class="compass_calibration_24dp_E3E3E3_FILL1_wght300_GRAD0_opsz24 1">
          <path id="Vector" fill="#fff" d="M1246.25 604.648c-.94 0-1.73-.329-2.39-.985a3.248 3.248 0 0 1-.99-2.39c0-.937.33-1.733.99-2.39a3.253 3.253 0 0 1 2.39-.985c.94 0 1.73.328 2.39.985.66.657.98 1.453.98 2.39 0 .936-.32 1.733-.98 2.39-.66.656-1.45.985-2.39.985Zm-3.74-7.056-3.21-3.231a10.148 10.148 0 0 1 13.9 0l-3.22 3.231a5.579 5.579 0 0 0-1.73-1.097 5.294 5.294 0 0 0-2-.386c-.7 0-1.37.129-2 .386-.64.257-1.22.623-1.74 1.097Z" class="Vector"/>
        </g>
        <path id="20" fill="#fff" d="M1273.04 601.762v2.988h-10.89l3.44-3.6c.99-1.044 2.18-2.502 2.83-3.456.54-.792.82-1.638.82-2.34 0-.972-.7-1.746-1.56-1.746-.87 0-1.46.684-1.46 1.656 0 .144.02.288.05.576h-3.87c0-.954.22-1.818.69-2.7.86-1.638 2.48-2.52 4.55-2.52 3.08 0 5.26 2.034 5.26 4.878 0 1.584-.61 2.826-2.02 4.14l-2.27 2.124h4.43Zm10.55-10.584-3.83 4.626c.79-.324 1.24-.432 1.89-.432 2.48 0 4.37 2.052 4.37 4.752 0 3.078-2.36 5.184-5.81 5.184-1.82 0-3.3-.54-4.29-1.548-.88-.936-1.4-2.16-1.4-3.438 0-1.53.77-3.492 2.07-5.148l3.01-3.996h3.99Zm-3.38 6.858c-1.24 0-2.25.99-2.25 2.232 0 1.242 1.01 2.25 2.25 2.25 1.19 0 2.21-1.008 2.21-2.214 0-1.278-.97-2.268-2.21-2.268Z" class="20"/>
      </g>
    </g>
    <g id="RedPin_2-BaciaPelotas" class="RedPin_2-BaciaPelotas">
      <g id="Header" class="Header">
        <rect width="53" height="34" x="1144.5" y="665.742" fill="#DD1D21" rx="17"/>
        <g id="IconContainer" class="IconContainer">
          <path id="Icon" fill="#fff" d="M1161.5 689.632c-.94 0-1.73-.328-2.39-.985a3.246 3.246 0 0 1-.99-2.39c0-.936.33-1.733.99-2.39a3.257 3.257 0 0 1 2.39-.985c.94 0 1.73.329 2.39.985.66.657.98 1.454.98 2.39 0 .937-.32 1.733-.98 2.39-.66.657-1.45.985-2.39.985Zm-3.74-7.056-3.21-3.23a10.133 10.133 0 0 1 6.95-2.752c1.3 0 2.54.237 3.74.712 1.19.475 2.26 1.155 3.21 2.04l-3.22 3.23a5.597 5.597 0 0 0-1.73-1.097 5.293 5.293 0 0 0-2-.385c-.7 0-1.37.128-2 .385-.64.258-1.22.623-1.74 1.097Z" class="Icon"/>
        </g>
        <path id="Number" fill="#fff" d="m1181.33 681.408.38.018c.91 0 1.53-.612 1.53-1.53 0-.774-.6-1.332-1.41-1.332-.88 0-1.4.558-1.42 1.53h-3.28c.13-.99.31-1.566.69-2.214.81-1.404 2.41-2.214 4.32-2.214 2.63 0 4.37 1.548 4.37 3.906 0 1.296-.45 2.178-1.46 2.826.62.198.9.396 1.28.81.6.72.96 1.674.96 2.664 0 2.628-2.2 4.482-5.31 4.482-2.18 0-3.84-.9-4.86-2.646-.49-.828-.69-1.458-.71-2.304h3.6c.09 1.206.78 1.89 1.95 1.89 1.04 0 1.82-.738 1.82-1.764a1.85 1.85 0 0 0-1.86-1.836c-.2 0-.32.036-.59.108v-2.394Z" class="Number"/>
      </g>
      <path id="pin" fill="#DD1D21" d="M1171 696.734h3.12c1.99 0 2.85 2.317 1.26 3.426l-3.11 2.178c-.75.523-1.79.523-2.54 0l-3.11-2.178c-1.59-1.109-.73-3.426 1.26-3.426h3.12Z" class="pin"/>
    </g>
  </g>
  <defs>
    <clipPath id="clip0_11253_184390" class="clip0_11253">
      <path fill="#fff" d="M0 0h1920v1080H0z"/>
    </clipPath>
  </defs>
</svg>
