<svg fill="none" viewBox="0 0 1920 1080">
  <g id="2024" class="2024" clip-path="url(#clip0_11253_184390)">
    <path fill="#C0E6EC" d="M0 0h1920v1080H0z"/>
    <g id="BG" class="BG">
      <path id="Subtract" fill="#BED50F" d="M972.745.5c-.27 8.896-.431 16.623-.431 22.322 0 30.413 10.635 57.788-3.052 101.873-13.674 44.099-16.726 27.375-28.894 65.383-12.154 38.008-4.558 44.099-22.804 72.992-18.245 28.88-25.841 22.804-38.009 56.254-12.168 33.451-15.207 56.254-22.803 74.498-7.61 18.259-21.284 19.764-33.452 31.932s-3.052 42.581-33.451 47.139c-30.414 4.557-47.14-1.52-53.231-7.611-6.077-6.077-22.804-10.635-34.972-6.077-12.168 4.572-18.245-12.153-54.735 7.61-36.49 19.764-42.582 21.284-48.659 28.88-6.091 7.61-31.933 18.259-47.14 22.817-15.206 4.557-41.048 6.077-48.658 21.283-7.596 15.206 7.61 13.687-15.192 24.335-22.817 10.635-34.972 9.116-44.116 21.283-9.115 12.154-9.115 15.207-18.245 28.88-9.115 13.701-3.039 27.374-15.193 34.984-12.168 7.596-18.258 9.129-13.687 16.711 4.557 7.61 10.649 4.573 9.116 21.298-1.52 16.725-6.077 34.97 4.571 47.138 10.635 12.154 16.712 16.725 12.154 28.879-4.558 12.167-15.192 30.426-28.88 34.984-13.701 4.558-33.451 9.116-39.543 30.413-6.077 21.283-21.283 54.734-28.893 59.292-7.597 4.572-21.284 0-39.529 0-18.245 0-31.919 1.52-33.453 16.726-1.519 15.206 0 36.488-13.687 39.527-13.674 3.052-22.292-7.595-32.443 13.688-10.124 21.283-16.202 25.855-14.697 38.008 1.52 12.169 4.103 25.859-.234 38.019-4.323 12.17 1.753 15.21-14.972 24.34-16.695 9.1-33.376 21.24-33.438 21.28H0V.5h972.745Z" class="Subtract"/>
      <path id="Subtract_2" fill="#81CCD9" d="M1003.74.5c1.23 18.431 2.32 35.343 2.32 45.503 0 6.33.56 12.74 1.33 20.15.74 7.125 1.73 15.544 2.24 24.3 1.04 17.665.25 37.7-6.95 61.939l-.71 2.358c-7.378 23.791-12.417 32.668-17.775 40.828-3.002 4.572-5.694 7.932-10.691 23.231l-.49 1.518c-5.518 17.256-6.28 26.034-8.432 37.224-2.423 12.602-16.664 24.083-27.398 41.081l-.003.005c-10.505 16.627-8.325 24.281-13.181 29.624-3.47 3.818-6.932 7.982-12.093 22.17-5.71 15.698-9.295 28.926-12.496 40.977-3.086 11.622-6.158 23.618-10.692 34.508l-.573 1.338c-5.98 13.56-14.543 21.313-22.432 26.911-8.368 5.937-10.926 6.818-14.813 10.539-.164.394-.46 1.171-.839 2.492-.495 1.72-.923 3.542-1.58 6.253-.598 2.472-1.372 5.62-2.386 8.851-2.016 6.423-16.053 15.001-23.337 22.43-7.657 7.81-17.66 12.507-29.46 14.276h-.003c-17.233 2.582-31.749 2.336-43.625.013-11.132-2.178-21.412-6.495-28.77-13.504a6.873 6.873 0 0 0-.339-.167c-.862-.4-2.183-.864-3.807-1.198-1.612-.331-3.185-.465-4.538-.418-1.032.037-1.73.17-2.127.277l-.298.093c-8.823 3.308-16.463 2.395-21.588 1.288-2.008-.435-4.495-1.117-5.367-1.341-1.282-.33-2.112-.51-2.863-.622-1.399-.21-6.954-1.195-22.008 6.959-19.579 10.604-28.357 14.909-35.522 18.886-5.78 3.21-5.79 3.735-6.073 4.089l-.003.004-.395.486c-4.136 4.971-9.597 8.623-13.452 10.969-4.546 2.766-9.693 5.371-14.743 7.687-10.084 4.624-21.351 8.805-29.996 11.396-4.855 1.455-10.358 2.616-14.663 3.555-4.736 1.033-8.76 1.946-12.387 3.057-4.129 1.264-6.208 2.348-7.163 2.94.1.976.191 2.178.192 3.382.002 3.56-.647 8.011-3.003 12.634-2.196 4.308-5.166 7.361-7.662 9.454-4.452 3.732-10.268 6.714-16.012 9.396l-.007.004-.008.003-1.193.551c-12.284 5.599-23.078 8.611-28.104 10.376-4.597 1.615-5.378 2.344-5.871 2.993l-.204.276c-3.823 5.1-5.58 8.046-7.521 11.443-2.073 3.628-4.556 8.154-9.051 14.985l-.926 1.398c-1.327 2.005-1.478 3.315-2.95 11.17-1.248 6.663 3.497 18.933-8.25 28.082 3.164 7.425 5.428 15.412 4.734 22.98-.404 4.445 2.089 9.634 1.695 13.166-.45 4.031-.711 7.228-.71 9.99.001 5.575 1.079 6.56 1.11 6.594l.001.001c1.819 2.079 2.179 5.964 4.021 8.114 2.269 2.649-.105 6.222 2.225 10.498 2.528 4.638.225 10.177.489 16.662.24 5.875-.929 11.271-2.63 16.068l-.347.951c-2.914 7.776-7.681 17.363-14.108 26.023-6.1 8.218-15.715 18.343-29.159 22.82l-.007.002-3.041.999c-6.733 2.191-11.04 3.492-15.124 5.9-3.446 2.033-5.325 4.12-6.403 7.887-3.457 12.104-9.277 26.993-15.224 39.499-2.983 6.273-6.226 12.432-9.476 17.588-1.619 2.568-3.455 5.232-5.469 7.657-1.748 2.105-4.79 5.47-9.062 8.039l.001.001c-11.141 6.704-24.007 5.44-29.714 4.949-8.23-.707-13.97-1.629-21.773-1.629-4.355 0-7.724.098-10.443.365-.099.009-.197.023-.292.033-.127 1.968-.251 4.152-.437 6.88-.296 4.353-.752 9.784-1.823 15.134-1.86 9.297-7.787 28.541-29.093 33.285-6.795 1.516-12.621 1.218-16.354.913l-.145-.013-.055.115c-2.789 5.862-5.291 10.557-7.363 14.347-2.225 4.09-3.453 6.25-4.446 8.29-.577 1.18-.792 1.78-.864 2 .004.11.016.29.05.56h-.001c1.168 9.34 5.248 29.97-1.396 48.64-.35.98-.509 1.75-.698 3.1-.08.57-.56 5.38-1.934 9.61-.208.64-.434 1.27-.672 1.88h-74.179c1.417-.97 3.03-2.07 4.801-3.25 6.551-4.37 15.542-10.11 24.749-15.13.571-.31 1.067-.59 1.498-.84.437-2.81 1.174-6.52 2.731-10.9l.005-.01.003-.01c2.013-5.65.942-12.36-.932-27.37l-.002-.01-.001-.01c-1.455-11.75 1.207-20.5 5.159-28.598 1.604-3.288 3.7-7.013 5.414-10.155 1.868-3.425 3.922-7.287 6.195-12.067l.006-.009.006-.012c3.272-6.861 7.479-13.488 13.508-18.516 6.724-5.606 13.995-7.818 20.611-8.307 2.886-.214 6.076-.051 8.42.133.201-1.675.373-3.635.531-5.956.233-3.415.49-8.624.916-12.892l.002-.02c.734-7.285 3.136-14.618 8.11-20.983 4.94-6.32 11.187-10.112 17.049-12.382 10.513-4.07 22.743-4.225 31.366-4.225 10.442.001 20.669 1.364 25.743 1.8.543.047 1.035.084 1.48.115 1.845-3.014 4.047-7.137 6.386-12.056 5.076-10.676 9.896-23.151 12.516-32.327l.002-.009c10.115-35.366 44.847-42.825 54.513-46.038.071-.03.745-.318 1.958-1.349 1.339-1.137 2.92-2.83 4.61-5.108 2.857-3.849 5.286-8.368 6.971-12.301l-.071-.086a204.975 204.975 0 0 0-2.928-3.314c-1.144-1.278-2.502-2.79-3.938-4.432-10.622-12.137-12.586-26.368-12.588-37.127-.002-9.275 1.803-21.411 2.343-27.097a39.361 39.361 0 0 1-5.851-7.51l-.424-.718c-2.169-3.762-5.025-10.103-4.317-18.053.822-9.233 5.901-15.331 9.443-18.599 3.189-2.942 6.865-5.167 8.973-6.435 2.149-1.293 3.724-2.195 5.61-3.335.061-.291.131-.631.204-1.023.8-4.27 2.174-16.675 9.943-28.352l.021-.032c4.04-6.052 5.93-9.524 8.279-13.636 2.618-4.581 5.418-9.237 10.7-16.28l.007-.008.006-.008c8.591-11.433 18.973-16.071 27.784-19.166 8.822-3.098 14.95-4.509 24.875-9.116.628-4.445 2.063-9.007 4.442-13.77l.005-.007.003-.008c8.396-16.776 25.247-23.314 35.432-26.431 5.685-1.74 11.451-3.012 16.074-4.02 5.055-1.103 8.484-1.844 11.232-2.667 6.562-1.967 15.82-5.387 23.98-9.129 4.073-1.868 7.481-3.637 9.968-5.151 1.381-.84 2.101-1.376 2.371-1.581 5.606-6.761 11.526-10.663 19.146-14.893 6.522-3.622 19.036-9.96 35.947-19.12 21.435-11.609 37.165-14.114 50.971-12.044 3.048.457 5.639 1.083 7.541 1.572.954.245 1.592.417 2.073.544 10.451-3.181 21.138-2.703 29.638-.954 8.623 1.774 18.995 5.695 26.446 12.877.307.164 2.019 1.118 6.029 1.903 5.613 1.098 14.666 1.612 27.845-.363 2.009-.301 2.919-.711 3.239-.903.127-.156.761-1.032 1.637-3.823.507-1.615.969-3.433 1.559-5.873.533-2.201 1.246-5.24 2.083-8.153 1.601-5.571 4.628-14.504 11.975-21.851 7.898-7.897 18.452-14.095 21.413-16.196 3.41-2.419 5.19-4.16 6.728-7.557l.304-.702c3.061-7.353 5.307-15.88 8.679-28.578 3.26-12.274 7.278-27.175 13.735-44.927 7.007-19.261 13.429-28.785 21.36-37.511 6.34-6.975 10.812-10.711 18.122-22.076l.717-1.124c7.508-11.891 9.14-17.904 10.518-25.071 1.65-8.58 3.167-21.852 9.802-42.6l.002-.006c6.853-21.406 11.695-28.621 16.583-36.066 2.628-4.003 5.952-8.813 12.247-29.114l.003-.01c5.831-18.782 6.482-33.754 5.656-47.83-.434-7.399-1.249-14.282-2.074-22.22-.796-7.653-1.572-16.07-1.572-24.945 0-10.364.51-27.141 1.248-45.503h53.355Z" class="Subtract"/>
    </g>
    <g id="RedPin_1-BaciaPelotas" class="RedPin_1-BaciaPelotas">
      <path id="Rectangle 2" fill="#DD1D21" d="M1261.26 611.749h3.11c2 0 2.86 2.318 1.27 3.426l-3.11 2.179c-.75.523-1.79.523-2.54 0l-3.12-2.179c-1.58-1.108-.72-3.426 1.27-3.426h3.12Z" class="Rectangle 2"/>
      <g id="Frame 2" class="Frame 2">
        <rect width="68" height="34" x="1229.25" y="580.75" fill="#DD1D21" rx="17"/>
        <g id="compass_calibration_24dp_E3E3E3_FILL1_wght300_GRAD0_opsz24 1" class="compass_calibration_24dp_E3E3E3_FILL1_wght300_GRAD0_opsz24 1">
          <path id="Vector" fill="#fff" d="M1246.25 604.648c-.94 0-1.73-.329-2.39-.985a3.248 3.248 0 0 1-.99-2.39c0-.937.33-1.733.99-2.39a3.253 3.253 0 0 1 2.39-.985c.94 0 1.73.328 2.39.985.66.657.98 1.453.98 2.39 0 .936-.32 1.733-.98 2.39-.66.656-1.45.985-2.39.985Zm-3.74-7.056-3.21-3.231a10.148 10.148 0 0 1 13.9 0l-3.22 3.231a5.579 5.579 0 0 0-1.73-1.097 5.294 5.294 0 0 0-2-.386c-.7 0-1.37.129-2 .386-.64.257-1.22.623-1.74 1.097Z" class="Vector"/>
        </g>
        <path id="20" fill="#fff" d="M1273.04 601.762v2.988h-10.89l3.44-3.6c.99-1.044 2.18-2.502 2.83-3.456.54-.792.82-1.638.82-2.34 0-.972-.7-1.746-1.56-1.746-.87 0-1.46.684-1.46 1.656 0 .144.02.288.05.576h-3.87c0-.954.22-1.818.69-2.7.86-1.638 2.48-2.52 4.55-2.52 3.08 0 5.26 2.034 5.26 4.878 0 1.584-.61 2.826-2.02 4.14l-2.27 2.124h4.43Zm10.55-10.584-3.83 4.626c.79-.324 1.24-.432 1.89-.432 2.48 0 4.37 2.052 4.37 4.752 0 3.078-2.36 5.184-5.81 5.184-1.82 0-3.3-.54-4.29-1.548-.88-.936-1.4-2.16-1.4-3.438 0-1.53.77-3.492 2.07-5.148l3.01-3.996h3.99Zm-3.38 6.858c-1.24 0-2.25.99-2.25 2.232 0 1.242 1.01 2.25 2.25 2.25 1.19 0 2.21-1.008 2.21-2.214 0-1.278-.97-2.268-2.21-2.268Z" class="20"/>
      </g>
    </g>
    <g id="RedPin_2-BaciaPelotas" class="RedPin_2-BaciaPelotas">
      <g id="Header" class="Header">
        <rect width="53" height="34" x="1144.5" y="665.742" fill="#DD1D21" rx="17"/>
        <g id="IconContainer" class="IconContainer">
          <path id="Icon" fill="#fff" d="M1161.5 689.632c-.94 0-1.73-.328-2.39-.985a3.246 3.246 0 0 1-.99-2.39c0-.936.33-1.733.99-2.39a3.257 3.257 0 0 1 2.39-.985c.94 0 1.73.329 2.39.985.66.657.98 1.454.98 2.39 0 .937-.32 1.733-.98 2.39-.66.657-1.45.985-2.39.985Zm-3.74-7.056-3.21-3.23a10.133 10.133 0 0 1 6.95-2.752c1.3 0 2.54.237 3.74.712 1.19.475 2.26 1.155 3.21 2.04l-3.22 3.23a5.597 5.597 0 0 0-1.73-1.097 5.293 5.293 0 0 0-2-.385c-.7 0-1.37.128-2 .385-.64.258-1.22.623-1.74 1.097Z" class="Icon"/>
        </g>
        <path id="Number" fill="#fff" d="m1181.33 681.408.38.018c.91 0 1.53-.612 1.53-1.53 0-.774-.6-1.332-1.41-1.332-.88 0-1.4.558-1.42 1.53h-3.28c.13-.99.31-1.566.69-2.214.81-1.404 2.41-2.214 4.32-2.214 2.63 0 4.37 1.548 4.37 3.906 0 1.296-.45 2.178-1.46 2.826.62.198.9.396 1.28.81.6.72.96 1.674.96 2.664 0 2.628-2.2 4.482-5.31 4.482-2.18 0-3.84-.9-4.86-2.646-.49-.828-.69-1.458-.71-2.304h3.6c.09 1.206.78 1.89 1.95 1.89 1.04 0 1.82-.738 1.82-1.764a1.85 1.85 0 0 0-1.86-1.836c-.2 0-.32.036-.59.108v-2.394Z" class="Number"/>
      </g>
      <path id="pin" fill="#DD1D21" d="M1171 696.734h3.12c1.99 0 2.85 2.317 1.26 3.426l-3.11 2.178c-.75.523-1.79.523-2.54 0l-3.11-2.178c-1.59-1.109-.73-3.426 1.26-3.426h3.12Z" class="pin"/>
    </g>
  </g>
  <defs>
    <clipPath id="clip0_11253_184390" class="clip0_11253">
      <path fill="#fff" d="M0 0h1920v1080H0z"/>
    </clipPath>
  </defs>
</svg>
