<?xml version="1.0" encoding="UTF-8" standalone="no"?>
<svg
   width="3840"
   height="2160"
   viewBox="0 0 3840 2160"
   fill="none"
   version="1.1"
   id="svg1"
   sodipodi:docname="pelotas.svg"
   inkscape:version="1.4.2 (ebf0e940, 2025-05-08)"
   xmlns:inkscape="http://www.inkscape.org/namespaces/inkscape"
   xmlns:sodipodi="http://sodipodi.sourceforge.net/DTD/sodipodi-0.dtd"
   xmlns="http://www.w3.org/2000/svg"
   xmlns:svg="http://www.w3.org/2000/svg">
  <defs
     id="defs1" />
  <sodipodi:namedview
     id="namedview1"
     pagecolor="#ffffff"
     bordercolor="#000000"
     borderopacity="0.25"
     inkscape:showpageshadow="2"
     inkscape:pageopacity="0.0"
     inkscape:pagecheckerboard="0"
     inkscape:deskcolor="#d1d1d1"
     inkscape:zoom="0.2182324"
     inkscape:cx="2055.1485"
     inkscape:cy="1560.2633"
     inkscape:window-width="3024"
     inkscape:window-height="1872"
     inkscape:window-x="0"
     inkscape:window-y="64"
     inkscape:window-maximized="0"
     inkscape:current-layer="svg1" />
  <rect
     style="fill:#c0e6ec;stroke-width:4.00698"
     id="rect1"
     width="3840"
     height="2160"
     x="0"
     y="0" />
  <path
     d="m 397.605,-1594 c 0,0 57.702,41.98 57.702,65.56 0,23.61 2.621,86.55 31.472,128.5 28.851,41.98 20.989,57.71 57.702,65.59 36.713,7.86 41.977,34.09 31.471,55.08 -10.483,20.99 -36.712,13.13 -68.184,55.06 -31.472,41.97 -52.461,65.58 -78.691,83.95 -26.23,18.34 -49.84,31.47 -47.196,52.46 2.597,20.96 34.093,20.96 62.92,20.96 28.851,0 62.967,2.62 68.208,-15.72 5.241,-18.37 20.989,-62.96 55.081,-60.32 34.093,2.62 81.288,13.1 118.025,5.24 36.713,-7.88 55.081,0 41.954,31.47 -13.103,31.47 -26.207,49.82 -47.196,62.94 -20.989,13.13 -68.208,31.47 -94.414,36.71 -26.254,5.27 -97.036,23.614 -60.323,26.258 36.713,2.597 89.174,0 89.174,13.103 0,13.103 10.482,41.953 36.712,15.747 26.231,-26.253 -7.862,-18.368 41.955,-39.356 49.839,-20.992 73.426,-57.702 89.197,-70.802 15.724,-13.13 94.391,-18.37 128.507,-2.65 34.092,15.75 52.436,31.5 86.552,49.84 34.117,18.371 34.117,28.853 78.687,31.474 44.6,2.644 60.33,16.057 81.32,42.119 20.98,26.087 47.19,52.293 97.03,52.293 49.84,0 104.9,0 162.6,15.747 57.73,15.747 128.53,2.621 173.13,15.747 44.57,13.103 165.22,115.377 196.71,133.745 31.48,18.368 131.16,57.724 175.73,76.068 44.58,18.368 118.03,28.85 133.75,76.068 15.75,47.194 15.75,217.674 0,262.248 -15.72,44.598 -31.45,65.586 -65.56,104.942 -34.1,39.332 -99.68,104.8943 -133.75,144.2269 -34.12,39.3562 -49.84,78.6887 -57.7,110.1594 -7.89,31.4946 -57.73,89.1947 -89.18,86.5507 -31.49,-2.621 -65.59,-7.862 -68.21,18.367 -2.62,26.23 -10.48,178.343 -10.48,230.802 0,52.459 18.35,99.677 -5.26,175.721 -23.59,76.068 -28.86,47.218 -49.84,112.78 -20.97,65.562 -7.87,76.068 -39.34,125.907 -31.47,49.814 -44.57,39.332 -65.56,97.032 -20.99,57.701 -26.23,97.033 -39.33,128.503 -13.13,31.5 -36.72,34.09 -57.71,55.08 -20.99,20.99 -5.26,73.45 -57.7,81.31 -52.46,7.86 -81.31,-2.62 -91.82,-13.13 -10.48,-10.48 -39.33,-18.34 -60.32,-10.48 -20.99,7.89 -31.47,-20.96 -94.41,13.13 -62.95,34.09 -73.45,36.71 -83.94,49.81 -10.5,13.13 -55.077,31.5 -81.307,39.36 -26.23,7.86 -70.805,10.48 -83.932,36.71 -13.104,26.23 13.127,23.61 -26.206,41.98 -39.358,18.34 -60.323,15.72 -76.095,36.71 -15.724,20.96 -15.723,26.23 -31.471,49.81 -15.724,23.64 -5.242,47.22 -26.207,60.35 -20.989,13.1 -31.495,15.75 -23.609,28.82 7.862,13.13 18.368,7.89 15.724,36.74 -2.621,28.85 -10.483,60.32 7.885,81.31 18.345,20.96 28.827,28.85 20.966,49.81 -7.862,20.99 -26.207,52.49 -49.817,60.35 -23.633,7.86 -57.701,15.72 -68.208,52.46 -10.482,36.71 -36.713,94.41 -49.84,102.27 -13.103,7.89 -36.713,0 -68.184,0 -31.472,0 -55.058,2.62 -57.702,28.85 -2.621,26.23 0,62.94 -23.61,68.18 -23.585,5.27 -38.452,-13.1 -55.962,23.61 -17.463,36.72 -27.946,44.6 -25.349,65.57 2.62,20.98 7.076,44.59 -0.405,65.58 -7.457,20.99 3.025,26.23 -25.825,41.98 -28.851,15.72 -57.678,36.71 -57.678,36.71 H -1607.55 c 0,0 11.8,-97.03 17.06,-154.73 5.24,-57.73 5.24,-55.11 5.24,-94.44 0,-39.36 2.62,-55.08 15.75,-86.55 13.08,-31.47 13.08,-55.08 7.86,-76.04 -5.26,-20.99 -5.26,-65.59 7.87,-91.82 13.12,-26.2 13.12,-52.46 34.09,-110.16 20.99,-57.7 2.62,-34.09 26.23,-104.89 23.61,-70.83 20.99,-118.02 18.37,-165.24 -2.65,-47.22 -10.51,-83.93 0,-115.4 10.48,-31.5 26.2,-275.401 26.2,-348.824 0,-73.448 -2.59,-170.481 -57.7,-204.596 -55.06,-34.091 -34.07,-57.7 -100.97,-89.171 -66.89,-31.447 -150.8,-68.182 -226.87,-110.135 -76.07,-41.977 -141.64,-99.677 -167.84,-149.516 -26.26,-49.815 -28.85,-73.448 -60.35,-131.124 -31.47,-57.7 -78.67,-149.5156 -115.4,-194.0891 -36.72,-44.5974 -99.66,-110.1599 -107.54,-146.8709 -7.87,-36.712 -5.25,-76.045 -36.72,-94.436 -31.47,-18.344 -147.73,-68.183 -147.73,-76.045 v -991.413 c 0,0 45.46,-23.61 82.17,-39.33 36.71,-15.75 89.17,-2.62 118.02,-26.23 28.85,-23.61 36.72,-49.84 57.71,-65.56 20.98,-15.75 31.47,-18.37 39.33,-39.36 7.86,-20.99 -5.24,-97.03 -5.24,-97.03 z"
     fill="#bed50f"
     stroke="#81ccd9"
     stroke-width="80"
     stroke-miterlimit="10"
     id="path1" />
</svg>
