<?xml version="1.0" encoding="UTF-8" standalone="no"?>
<svg
   width="3840"
   height="2160"
   viewBox="0 0 3840 2160"
   fill="none"
   version="1.1"
   id="svg1"
   sodipodi:docname="potiguar.svg"
   inkscape:version="1.4.2 (ebf0e940, 2025-05-08)"
   xmlns:inkscape="http://www.inkscape.org/namespaces/inkscape"
   xmlns:sodipodi="http://sodipodi.sourceforge.net/DTD/sodipodi-0.dtd"
   xmlns="http://www.w3.org/2000/svg"
   xmlns:svg="http://www.w3.org/2000/svg">
  <defs
     id="defs1" />
  <sodipodi:namedview
     id="namedview1"
     pagecolor="#ffffff"
     bordercolor="#000000"
     borderopacity="0.25"
     inkscape:showpageshadow="2"
     inkscape:pageopacity="0.0"
     inkscape:pagecheckerboard="0"
     inkscape:deskcolor="#d1d1d1"
     inkscape:zoom="0.54338461"
     inkscape:cx="2397.0131"
     inkscape:cy="1195.286"
     inkscape:window-width="3024"
     inkscape:window-height="1872"
     inkscape:window-x="0"
     inkscape:window-y="64"
     inkscape:window-maximized="0"
     inkscape:current-layer="svg1" />
  <rect
     style="fill:#c0e6ec"
     id="rect1"
     width="3840"
     height="2160"
     x="0"
     y="0" />
  <path
     d="m -698,776.14499 c 0,0 17.572,6.5849 54.919,0 37.347,-6.5849 46.133,-4.3822 70.313,-17.5985 24.156,-13.1698 46.133,-24.1601 118.647,-15.3726 72.469,8.7876 103.255,-9.0195 140.579,16.3696 37.37,25.389 48.335,29.7712 79.098,69.3271 30.764,39.556 92.29,105.475 127.434,118.668 35.145,13.169 17.5727,0 50.515,30.768 32.9655,30.74501 65.93091,46.14101 87.8847,50.52301 21.9769,4.405 57.1216,-6.585 74.7173,0 17.549,6.608 112.041,-2.249 147.185,1.066 35.145,3.339 164.781,-11.431 254.845,1.461 90.087,12.868 160.376,4.081 226.284,28.241 65.908,24.183 109.862,41.735 155.995,28.566 46.133,-13.17 6.583,-32.971 85.682,-32.971 79.072,0 120.832,17.598 151.592,-4.383 30.76,-21.98 30.76,-57.13101 92.26,-61.53601 61.53,-4.382 76.9,-30.768 169.17,-19.755 92.29,10.967 96.67,35.12801 171.36,39.53301 74.72,4.382 182.35,-6.585 230.69,15.396 48.34,21.957 61.53,59.542 138.42,68.214 76.9,8.671 153.8,-2.296 195.52,26.247 41.75,28.588 123.03,24.183 145.01,52.772 21.95,28.542 24.16,39.532 63.71,72.503 39.54,32.948 127.43,101.07 134.01,138.423 6.59,37.353 24.16,140.625 59.33,166.988 35.14,26.386 83.48,57.13 85.68,101.092 2.2,43.938 39.53,87.9 50.54,112.06 10.96,24.18 13.16,59.31 26.36,92.28 13.16,32.97 43.93,50.55 46.13,83.52 2.2,32.95 -19.78,142.83 10.99,169.19 30.74,26.36 46.13,92.28 46.13,92.28 H -698 Z"
     fill="#bed50f"
     stroke="#81ccd9"
     stroke-width="80"
     stroke-miterlimit="10"
     id="path1" />
</svg>
