<svg xmlns="http://www.w3.org/2000/svg" fill="none" viewBox="0 0 359 190">
  <g id="MapSelector" class="MapSelector" clip-path="url(#clip0_11362_6246)">
    <path fill="#C0E6EC" d="M0 0h358.5v189.5H0z"/>
    <path id="MapVector" fill="#BED50F" stroke="#81CCD9" stroke-linejoin="round" stroke-miterlimit="10" stroke-width="5" d="M109.421-29.5s3.61 2.622 3.61 4.094c0 1.475.164 5.405 1.969 8.025 1.806 2.622 1.314 3.604 3.611 4.096 2.297.491 2.626 2.13 1.969 3.44-.656 1.31-2.297.82-4.266 3.438-1.969 2.622-3.283 4.096-4.924 5.243-1.641 1.146-3.118 1.966-2.953 3.277.163 1.309 2.133 1.309 3.937 1.309 1.805 0 3.94.163 4.268-.982.328-1.147 1.313-3.932 3.446-3.767 2.133.163 5.086.818 7.385.327 2.297-.492 3.446 0 2.625 1.965-.82 1.966-1.64 3.111-2.953 3.931-1.314.82-4.268 1.966-5.908 2.293-1.642.329-6.071 1.474-3.774 1.64 2.297.162 5.579 0 5.579.818s.656 2.62 2.297.983c1.642-1.64-.491-1.147 2.625-2.458 3.119-1.31 4.595-3.603 5.581-4.421.984-.82 5.906-1.147 8.041-.166 2.133.984 3.281 1.967 5.415 3.113 2.135 1.147 2.135 1.802 4.924 1.965 2.79.165 3.774 1.003 5.087 2.63 1.314 1.63 2.953 3.266 6.072 3.266 3.118 0 6.563 0 10.173.984 3.612.983 8.042.163 10.833.983 2.789.819 10.337 7.206 12.308 8.353 1.969 1.147 8.206 3.604 10.995 4.75 2.789 1.147 7.384 1.802 8.368 4.75.985 2.948.985 13.595 0 16.378-.984 2.785-1.968 4.096-4.102 6.554-2.133 2.456-6.237 6.55-8.369 9.007-2.134 2.458-3.118 4.914-3.61 6.88-.493 1.966-3.612 5.57-5.579 5.405-1.971-.164-4.104-.491-4.268 1.147-.164 1.638-.656 11.137-.656 14.413s1.148 6.225-.329 10.974c-1.476 4.751-1.805 2.949-3.119 7.044-1.311 4.094-.492 4.75-2.461 7.862-1.969 3.111-2.789 2.457-4.102 6.06-1.313 3.604-1.641 6.06-2.461 8.025-.821 1.967-2.297 2.129-3.61 3.44-1.313 1.311-.33 4.587-3.611 5.078-3.282.491-5.087-.164-5.744-.82-.656-.654-2.461-1.145-3.775-.654-1.313.492-1.969-1.31-5.907.819-3.938 2.129-4.596 2.293-5.252 3.111-.657.82-3.446 1.967-5.087 2.458-1.641.491-4.43.655-5.252 2.293-.819 1.638.822 1.474-1.639 2.621-2.463 1.146-3.775.982-4.761 2.293-.984 1.309-.984 1.638-1.969 3.111-.984 1.476-.328 2.949-1.64 3.769-1.313.818-1.971.983-1.477 1.8.492.819 1.149.492.983 2.294-.164 1.802-.655 3.767.494 5.078 1.148 1.309 1.804 1.801 1.312 3.111-.492 1.31-1.64 3.277-3.117 3.768-1.479.491-3.611.982-4.268 3.276-.656 2.293-2.297 5.896-3.118 6.387-.82.493-2.297 0-4.267 0-1.969 0-3.444.164-3.61 1.802-.164 1.638 0 3.931-1.477 4.258-1.476.329-2.406-.818-3.502 1.475-1.092 2.292-1.748 2.785-1.586 4.094.164 1.311.443 2.785-.025 4.096-.466 1.311.189 1.638-1.616 2.621-1.805.982-3.609 2.293-3.609 2.293H-16.038s.738-6.06 1.068-9.663c.328-3.605.328-3.441.328-5.898 0-2.458.163-3.44.985-5.405.818-1.965.818-3.44.492-4.749-.33-1.311-.33-4.096.492-5.734.82-1.636.82-3.276 2.133-6.879 1.313-3.604.164-2.129 1.64-6.551 1.478-4.423 1.314-7.371 1.15-10.319-.165-2.949-.657-5.242 0-7.207.656-1.967 1.64-17.199 1.64-21.784 0-4.587-.163-10.647-3.61-12.778-3.445-2.129-2.132-3.603-6.318-5.568-4.185-1.964-9.435-4.258-14.195-6.878-4.76-2.622-8.862-6.225-10.501-9.338-1.643-3.11-1.806-4.587-3.776-8.188-1.97-3.604-4.922-9.338-7.22-12.122-2.298-2.785-6.236-6.88-6.73-9.172-.492-2.292-.328-4.749-2.297-5.897C-62.726 52.724-70 49.612-70 49.12v-61.914s2.844-1.474 5.141-2.456c2.297-.983 5.58-.164 7.385-1.638 1.805-1.474 2.297-3.112 3.61-4.094 1.313-.984 1.97-1.148 2.461-2.458.492-1.311-.328-6.06-.328-6.06h161.152Z" class="MapVector"/>
    <path id="Map Title" fill="#343434" d="M64.738 83.912h6.402c3.014 0 4.664 1.54 4.664 4.334 0 1.672-.528 2.662-1.826 3.41 1.21.242 1.782.484 2.332 1.034.66.704 1.056 1.848 1.056 3.102 0 2.926-2.178 4.708-5.72 4.708h-6.908V83.912Zm5.104 6.534c1.32 0 2.002-.572 2.002-1.606 0-1.078-.682-1.606-2.002-1.606h-.792v3.212h.792Zm.154 6.688c2.134 0 3.014-.506 3.014-1.738 0-.616-.308-1.188-.814-1.43s-.858-.308-2.288-.308h-.858v3.476h.946Zm13.711-7.898v1.848c.924-1.43 1.98-2.002 3.696-2.002.264 0 .396 0 .77.022v3.806c-.638-.308-1.012-.396-1.672-.396-1.87 0-2.794 1.078-2.794 3.168v4.818h-3.982V89.236h3.982Zm19.09 0V100.5h-3.982v-1.232c-.88 1.1-1.958 1.606-3.476 1.606-3.212 0-5.698-2.64-5.698-6.05 0-3.366 2.464-5.962 5.654-5.962 1.452 0 2.53.462 3.52 1.474v-1.1h3.982Zm-6.446 3.058c-1.386 0-2.552 1.144-2.552 2.53 0 1.474 1.144 2.618 2.574 2.618 1.408 0 2.552-1.144 2.552-2.596a2.559 2.559 0 0 0-2.574-2.552Zm16.7-.154c-.748-.374-1.452-.55-2.156-.55-.726 0-1.21.352-1.21.814 0 .484.286.638 1.782.968 2.244.44 3.278 1.518 3.278 3.322 0 2.574-2.112 4.224-5.368 4.224-1.562 0-3.036-.418-4.488-1.298l1.43-2.794c1.056.682 2.266 1.144 3.19 1.144.704 0 1.232-.374 1.232-.902s-.352-.726-1.694-1.012c-2.376-.506-3.3-1.364-3.3-3.146 0-2.508 1.914-4.07 5.016-4.07 1.364 0 2.398.198 3.63.726l-1.342 2.574Zm5.694-9.46c1.232 0 2.222.99 2.222 2.222a2.22 2.22 0 0 1-2.222 2.244c-1.254 0-2.244-.99-2.244-2.266 0-1.21 1.012-2.2 2.244-2.2Zm1.98 17.82h-3.982V89.236h3.982V100.5Zm6.682 0h-3.982V82.284h3.982V100.5Z" class="Map Title"/>
    <g id="Selectors" class="Selectors">
      <g id="S_4" class="S">
        <rect id="3" width="22" height="19" x="114.5" y="163" stroke="#fff" stroke-width="2" class="3" rx="1"/>
      </g>
      <g id="Selector" class="Selector">
        <rect id="3_2" width="64.555" height="31.693" x="133" y="121.188" stroke="#027FA2" stroke-width="2" class="3" rx="1"/>
      </g>
      <g id="S_2" class="S">
        <rect id="3_3" width="14.5" height="12.5" x="207" y="29" stroke="#fff" stroke-width="2" class="3" rx="1"/>
      </g>
      <g id="S_1" class="S">
        <rect id="3_4" width="14.5" height="12.5" x="162" y="13" stroke="#fff" stroke-width="2" class="3" rx="1"/>
      </g>
    </g>
  </g>
  <defs>
    <clipPath id="clip0_11362_6246" class="clip0_11362">
      <path fill="#fff" d="M0 0h358.5v189.5H0z"/>
    </clipPath>
  </defs>
</svg>
