<svg width="554" height="198" viewBox="0 0 554 198" fill="none" xmlns="http://www.w3.org/2000/svg">
<path d="M88.5306 66.7875L80.0393 72.9238L78.7426 83.2324H64.7435L63.9349 83.8156C63.2278 84.3277 62.3745 84.603 61.5001 84.603C60.6261 84.603 59.7733 84.3277 59.0662 83.8156L58.2582 83.2324H44.2588L42.9618 72.9238L34.471 66.7875C34.1008 64.9837 33.9138 63.1475 33.9138 61.3055C33.9138 46.1771 46.2727 33.8979 61.5001 33.8979C76.7275 33.8979 89.0873 46.1771 89.0873 61.3055C89.0873 63.1475 88.9004 64.9837 88.5306 66.7875ZM61.5001 31.5C44.9583 31.5 31.5 44.8709 31.5 61.3055C31.5 63.3022 31.7044 65.3079 32.1061 67.2665L32.2935 68.179L40.6963 74.2518L42.1282 85.6303H57.4741L57.6445 85.7533C58.7712 86.5695 60.1041 87 61.5001 87C62.8963 87 64.2299 86.5695 65.3521 85.7563L65.527 85.6303H80.8726L82.3045 74.2518L90.709 68.179L90.8958 67.2655C91.2976 65.3061 91.5 63.3006 91.5 61.3055C91.5 44.8709 78.0422 31.5 61.5001 31.5Z" fill="white"/>
<path d="M58.2587 83.2385H44.2591L42.962 72.9297L34.4712 66.7936C34.1011 64.99 33.9141 63.1535 33.9141 61.3118C33.9141 46.1828 46.2733 33.9041 61.5006 33.9041C76.7283 33.9041 89.0864 46.1828 89.0864 61.3118C89.0864 63.1535 88.9011 64.99 88.5298 66.7936L80.0402 72.9297L78.7416 83.2385H64.7429L63.9349 83.8219C63.2268 84.3338 62.3744 84.6094 61.5006 84.6094C60.6263 84.6094 59.7738 84.3338 59.0664 83.8219L58.2587 83.2385Z" stroke="white" stroke-width="1.16667" stroke-miterlimit="40"/>
<path d="M58.2587 83.2385H44.2591L42.962 72.9297L34.4712 66.7936C34.1011 64.99 33.9141 63.1535 33.9141 61.3118C33.9141 46.1828 46.2733 33.9041 61.5006 33.9041C76.7283 33.9041 89.0864 46.1828 89.0864 61.3118C89.0864 63.1535 88.9011 64.99 88.5298 66.7936L80.0402 72.9297L78.7416 83.2385H64.7429L63.9349 83.8219C63.2268 84.3338 62.3744 84.6094 61.5006 84.6094C60.6263 84.6094 59.7738 84.3338 59.0664 83.8219L58.2587 83.2385Z" fill="#FBBE09"/>
<path fill-rule="evenodd" clip-rule="evenodd" d="M58.6966 78.4417H48.521L47.4928 70.2732L39.1118 64.2165C38.8663 63.2668 38.7417 62.2914 38.7417 61.3118C38.7417 59.6751 39.0887 58.057 39.7602 56.5634L54.5992 71.4703L40.1729 53.776C40.7407 51.4812 41.9973 49.4114 43.7755 47.8432L56.7076 70.0194L45.2496 45.7408C46.7316 43.7813 48.799 42.3364 51.1563 41.6121L59.0631 69.1386L53.2863 40.4775C55.0435 39.4925 57.0273 38.9749 59.0452 38.9749C59.4721 38.9749 59.8985 38.9982 60.3234 39.0444L61.5006 68.8491L62.6779 39.0444C63.1013 38.9982 63.5279 38.9749 63.9558 38.9749C65.973 38.9749 67.9575 39.4925 69.7153 40.4775L63.9379 69.1386L71.8456 41.6121C74.2025 42.3364 76.269 43.7813 77.7516 45.7408L66.2933 70.0194L79.2251 47.8432C81.0043 49.4114 82.2603 51.4812 82.829 53.776L68.4015 71.4703L83.2411 56.5634C83.9132 58.057 84.2602 59.6751 84.2602 61.3118C84.2602 62.2914 84.1352 63.2668 83.8888 64.2165L75.5088 70.2732L74.4809 78.4417H64.3043L62.7989 79.5298C62.4209 79.8033 61.9668 79.9498 61.5006 79.9498C61.0341 79.9498 60.5798 79.8033 60.2026 79.5298L58.6966 78.4417ZM58.2587 83.2385H44.2591L42.962 72.9297L34.4712 66.7936C34.1011 64.99 33.9141 63.1535 33.9141 61.3118C33.9141 46.1828 46.2733 33.9041 61.5006 33.9041C76.7283 33.9041 89.0864 46.1828 89.0864 61.3118C89.0864 63.1535 88.9011 64.99 88.5298 66.7936L80.0402 72.9297L78.7416 83.2385H64.7429L63.9349 83.8219C63.2268 84.3338 62.3744 84.6094 61.5006 84.6094C60.6263 84.6094 59.7738 84.3338 59.0664 83.8219L58.2587 83.2385Z" fill="#EE2722"/>
<path d="M43.05 162.5H34.818V130.832H47.88C51.576 130.832 53.76 131.546 55.818 133.52C57.834 135.452 58.884 138.014 58.884 141.332C58.884 144.482 58.002 147.17 56.322 149.018C54.558 151.034 51.954 151.958 48.174 151.958H43.05V162.5ZM45.738 145.364C48.888 145.364 50.274 144.146 50.274 141.416C50.274 138.77 48.804 137.426 45.78 137.426H43.05V145.364H45.738ZM74.1307 140.198C81.7327 140.198 87.1087 144.986 87.1087 151.706C87.1087 158.552 81.7327 163.298 74.0467 163.298C66.4867 163.298 61.2367 158.468 61.2367 151.538C61.2367 148.388 62.6647 145.322 65.1007 143.18C67.2427 141.332 70.6867 140.198 74.1307 140.198ZM74.1307 146.75C71.4847 146.75 69.2587 148.976 69.2587 151.622C69.2587 154.394 71.4427 156.62 74.1727 156.62C76.9027 156.62 79.0867 154.394 79.0867 151.664C79.0867 148.934 76.9027 146.75 74.1307 146.75ZM99.0458 140.996V144.524C100.81 141.794 102.826 140.702 106.102 140.702C106.606 140.702 106.858 140.702 107.572 140.744V148.01C106.354 147.422 105.64 147.254 104.38 147.254C100.81 147.254 99.0458 149.312 99.0458 153.302V162.5H91.4438V140.996H99.0458ZM120.357 163.214C116.955 163.214 115.443 162.164 114.687 161.198C113.721 160.064 112.881 158.804 112.881 155.234V147.128H110.361V140.996H112.881V134.528H120.441V140.996H125.481V147.128H120.441V155.528C120.441 156.746 121.071 157.334 122.373 157.334C123.339 157.334 124.473 156.998 125.187 156.536V162.416C124.221 162.836 122.583 163.214 120.357 163.214ZM137.574 162.5H129.972V147.296H127.242V140.996H129.972V137.72C129.972 134.234 130.602 132.344 132.366 130.412C134.298 128.396 136.902 127.22 139.548 127.22C140.85 127.22 141.606 127.43 142.908 128.06V134.654C141.69 134.066 141.06 133.898 140.262 133.898C139.254 133.898 138.162 134.486 137.826 135.326C137.616 135.83 137.574 136.544 137.574 138.308V140.996H142.908V147.296H137.574V162.5ZM157.919 137.804L154.433 135.2L160.397 127.892L165.227 131.378L157.919 137.804ZM158.213 140.198C165.815 140.198 171.191 144.986 171.191 151.706C171.191 158.552 165.815 163.298 158.129 163.298C150.569 163.298 145.319 158.468 145.319 151.538C145.319 148.388 146.747 145.322 149.183 143.18C151.325 141.332 154.769 140.198 158.213 140.198ZM158.213 146.75C155.567 146.75 153.341 148.976 153.341 151.622C153.341 154.394 155.525 156.62 158.255 156.62C160.985 156.62 163.169 154.394 163.169 151.664C163.169 148.934 160.985 146.75 158.213 146.75ZM183.128 162.5H175.526V127.724H183.128V162.5ZM192.104 128.48C194.456 128.48 196.346 130.37 196.346 132.722C196.346 135.116 194.456 137.006 192.104 137.006C189.71 137.006 187.82 135.116 187.82 132.68C187.82 130.37 189.752 128.48 192.104 128.48ZM195.884 162.5H188.282V140.996H195.884V162.5ZM213.092 140.198C220.694 140.198 226.07 144.986 226.07 151.706C226.07 158.552 220.694 163.298 213.008 163.298C205.448 163.298 200.198 158.468 200.198 151.538C200.198 148.388 201.626 145.322 204.062 143.18C206.204 141.332 209.648 140.198 213.092 140.198ZM213.092 146.75C210.446 146.75 208.22 148.976 208.22 151.622C208.22 154.394 210.404 156.62 213.134 156.62C215.864 156.62 218.048 154.394 218.048 151.664C218.048 148.934 215.864 146.75 213.092 146.75ZM260.401 139.064C258.553 137.594 256.873 136.922 254.983 136.922C252.967 136.922 251.455 138.098 251.455 139.652C251.455 140.24 251.749 140.87 252.211 141.248C253.135 142.004 253.471 142.13 257.167 143.222C262.669 144.86 264.937 147.422 264.937 152.126C264.937 155.696 263.845 158.468 261.703 160.316C259.435 162.248 256.201 163.298 252.547 163.298C248.809 163.298 244.945 162.08 241.585 159.728L245.113 153.092C247.675 155.318 249.943 156.326 252.379 156.326C254.773 156.326 256.369 155.108 256.369 153.26C256.369 151.538 255.277 150.74 251.413 149.606C247.885 148.556 246.541 147.968 245.407 147.044C243.727 145.658 242.887 143.558 242.887 140.744C242.887 134.402 247.255 130.076 253.639 130.076C256.957 130.076 260.485 131 263.677 132.638L260.401 139.064ZM277.587 127.724V143.726C279.645 141.332 281.367 140.534 284.475 140.534C287.121 140.534 289.179 141.29 290.691 142.886C292.203 144.398 292.665 145.91 292.665 148.85V162.5H285.063V151.622C285.063 149.438 285.021 149.018 284.601 148.22C284.139 147.212 282.921 146.54 281.577 146.54C280.317 146.54 279.141 147.128 278.385 147.968C277.839 148.724 277.587 149.564 277.587 150.95V162.5H269.985V127.724H277.587ZM304.68 153.134C304.722 156.41 306.234 158.006 309.258 158.006C311.064 158.006 312.072 157.46 313.038 155.948H320.346C319.8 157.754 319.338 158.72 318.456 159.728C316.482 162.038 313.122 163.34 309.258 163.34C301.824 163.34 296.994 158.846 296.994 151.916C296.994 144.86 301.572 140.366 308.964 140.366C316.272 140.366 320.682 144.902 320.682 152.378V153.134H304.68ZM313.584 148.724C313.08 146.54 311.4 145.28 309.132 145.28C306.822 145.28 305.226 146.54 304.848 148.724H313.584ZM332.876 162.5H325.274V127.724H332.876V162.5ZM345.632 162.5H338.03V127.724H345.632V162.5ZM363.394 130.832H375.616C381.37 130.832 384.52 133.772 384.52 139.106C384.52 142.298 383.512 144.188 381.034 145.616C383.344 146.078 384.436 146.54 385.486 147.59C386.746 148.934 387.502 151.118 387.502 153.512C387.502 159.098 383.344 162.5 376.582 162.5H363.394V130.832ZM373.138 143.306C375.658 143.306 376.96 142.214 376.96 140.24C376.96 138.182 375.658 137.174 373.138 137.174H371.626V143.306H373.138ZM373.432 156.074C377.506 156.074 379.186 155.108 379.186 152.756C379.186 151.58 378.598 150.488 377.632 150.026C376.666 149.564 375.994 149.438 373.264 149.438H371.626V156.074H373.432ZM399.608 140.996V144.524C401.372 141.794 403.388 140.702 406.664 140.702C407.168 140.702 407.42 140.702 408.134 140.744V148.01C406.916 147.422 406.202 147.254 404.942 147.254C401.372 147.254 399.608 149.312 399.608 153.302V162.5H392.006V140.996H399.608ZM436.052 140.996V162.5H428.45V160.148C426.77 162.248 424.712 163.214 421.814 163.214C415.682 163.214 410.936 158.174 410.936 151.664C410.936 145.238 415.64 140.282 421.73 140.282C424.502 140.282 426.56 141.164 428.45 143.096V140.996H436.052ZM423.746 146.834C421.1 146.834 418.874 149.018 418.874 151.664C418.874 154.478 421.058 156.662 423.788 156.662C426.476 156.662 428.66 154.478 428.66 151.706C428.66 149.018 426.476 146.834 423.746 146.834ZM455.628 146.54C454.2 145.826 452.856 145.49 451.512 145.49C450.126 145.49 449.202 146.162 449.202 147.044C449.202 147.968 449.748 148.262 452.604 148.892C456.888 149.732 458.862 151.79 458.862 155.234C458.862 160.148 454.83 163.298 448.614 163.298C445.632 163.298 442.818 162.5 440.046 160.82L442.776 155.486C444.792 156.788 447.102 157.67 448.866 157.67C450.21 157.67 451.218 156.956 451.218 155.948C451.218 154.94 450.546 154.562 447.984 154.016C443.448 153.05 441.684 151.412 441.684 148.01C441.684 143.222 445.338 140.24 451.26 140.24C453.864 140.24 455.838 140.618 458.19 141.626L455.628 146.54ZM466.498 128.48C468.85 128.48 470.74 130.37 470.74 132.722C470.74 135.116 468.85 137.006 466.498 137.006C464.104 137.006 462.214 135.116 462.214 132.68C462.214 130.37 464.146 128.48 466.498 128.48ZM470.278 162.5H462.676V140.996H470.278V162.5ZM483.034 162.5H475.432V127.724H483.034V162.5Z" fill="#343434"/>
<path d="M34.78 182.164V185.044H39.452V186.772H34.78V190.788H39.596V192.5H32.94V180.436H39.596V182.164H34.78ZM41.2829 184.884H43.3789L45.0749 187.108L46.8029 184.884H48.9469L46.1309 188.372L49.3949 192.5H47.3149L45.0749 189.668L42.7869 192.5H40.6429L44.0189 188.372L41.2829 184.884ZM50.5728 196.644V184.884H52.3328V185.716C53.0688 184.996 53.7568 184.692 54.6688 184.692C56.7488 184.692 58.2847 186.404 58.2847 188.74C58.2847 191.012 56.7488 192.74 54.7168 192.74C53.7568 192.74 53.0688 192.404 52.3328 191.652V196.644H50.5728ZM54.3968 186.26C53.1008 186.26 52.2208 187.252 52.2208 188.708C52.2208 190.148 53.1008 191.156 54.3808 191.156C55.5968 191.156 56.5088 190.132 56.5088 188.756C56.5088 187.3 55.6288 186.26 54.3968 186.26ZM61.9109 192.5H60.1509V179.316H61.9109V192.5ZM67.8153 184.692C70.1193 184.692 71.8953 186.436 71.8953 188.708C71.8953 190.98 70.1193 192.74 67.7993 192.74C65.5273 192.74 63.7673 190.964 63.7673 188.644C63.7673 186.468 65.5753 184.692 67.8153 184.692ZM67.8153 186.26C66.4873 186.26 65.5593 187.236 65.5593 188.692C65.5593 190.18 66.4553 191.156 67.8153 191.156C69.1913 191.156 70.1033 190.18 70.1033 188.724C70.1033 187.236 69.1913 186.26 67.8153 186.26ZM75.489 184.884V185.572C76.129 184.884 76.545 184.676 77.233 184.676C77.777 184.676 78.097 184.772 78.705 185.14L77.889 186.756C77.489 186.468 77.265 186.372 76.913 186.372C75.937 186.372 75.489 187.06 75.489 188.564V192.5H73.729V184.884H75.489ZM86.9328 184.884V192.5H85.1728V191.7C84.3568 192.468 83.7648 192.74 82.8368 192.74C80.7408 192.74 79.2048 191.012 79.2048 188.692C79.2048 186.388 80.7408 184.692 82.7888 184.692C83.7648 184.692 84.4208 184.98 85.1728 185.78V184.884H86.9328ZM83.1088 186.26C81.9088 186.26 80.9968 187.3 80.9968 188.692C80.9968 190.132 81.8608 191.156 83.0928 191.156C84.4048 191.156 85.2848 190.164 85.2848 188.724C85.2848 187.268 84.4048 186.26 83.1088 186.26ZM95.0549 187.54C94.2549 186.564 93.7269 186.26 92.8789 186.26C91.5349 186.26 90.5589 187.316 90.5589 188.708C90.5589 190.132 91.5189 191.156 92.8309 191.156C93.7109 191.156 94.2069 190.852 95.0549 189.844V192.18C94.2709 192.596 93.7269 192.74 92.9109 192.74C90.5589 192.74 88.7669 190.996 88.7669 188.74C88.7669 186.468 90.5909 184.692 92.9269 184.692C93.7429 184.692 94.3509 184.836 95.0549 185.22V187.54ZM91.7429 196.436L90.5909 195.86L92.1589 193.46L93.5989 194.052L91.7429 196.436ZM97.3523 182.74C97.8003 182.1 97.8483 182.036 98.0403 181.828C98.3443 181.492 98.8723 181.268 99.3523 181.268C99.7682 181.268 100.216 181.396 100.76 181.684C101.528 182.084 101.576 182.1 101.8 182.1C102.152 182.1 102.376 181.908 102.776 181.252L103.768 182.084C103.256 183.124 102.616 183.588 101.736 183.588C101.32 183.588 101.08 183.508 100.296 183.14C99.7843 182.884 99.4483 182.772 99.2563 182.772C98.9363 182.772 98.6963 183.012 98.3923 183.604L97.3523 182.74ZM104.12 184.884V192.5H102.36V191.7C101.544 192.468 100.952 192.74 100.024 192.74C97.9283 192.74 96.3923 191.012 96.3923 188.692C96.3923 186.388 97.9283 184.692 99.9763 184.692C100.952 184.692 101.608 184.98 102.36 185.78V184.884H104.12ZM100.296 186.26C99.0963 186.26 98.1843 187.3 98.1843 188.692C98.1843 190.132 99.0483 191.156 100.28 191.156C101.592 191.156 102.472 190.164 102.472 188.724C102.472 187.268 101.592 186.26 100.296 186.26ZM110.018 184.692C112.322 184.692 114.098 186.436 114.098 188.708C114.098 190.98 112.322 192.74 110.002 192.74C107.73 192.74 105.97 190.964 105.97 188.644C105.97 186.468 107.778 184.692 110.018 184.692ZM110.018 186.26C108.69 186.26 107.762 187.236 107.762 188.692C107.762 190.18 108.658 191.156 110.018 191.156C111.394 191.156 112.306 190.18 112.306 188.724C112.306 187.236 111.394 186.26 110.018 186.26ZM121.951 189.124C122.031 190.372 122.799 191.156 123.919 191.156C124.799 191.156 125.279 190.82 125.983 189.684L127.455 190.516C127.055 191.188 126.831 191.492 126.431 191.812C125.759 192.404 124.815 192.74 123.855 192.74C121.599 192.74 120.095 191.14 120.095 188.724C120.095 186.292 121.567 184.692 123.775 184.692C125.023 184.692 126.175 185.268 126.767 186.196C127.167 186.82 127.391 187.716 127.391 188.708V189.124H121.951ZM125.583 187.684C125.343 186.788 124.703 186.276 123.807 186.276C122.959 186.276 122.271 186.82 122.047 187.684H125.583ZM133.838 196.644V184.884H135.598V185.716C136.334 184.996 137.022 184.692 137.934 184.692C140.014 184.692 141.55 186.404 141.55 188.74C141.55 191.012 140.014 192.74 137.982 192.74C137.022 192.74 136.334 192.404 135.598 191.652V196.644H133.838ZM137.662 186.26C136.366 186.26 135.486 187.252 135.486 188.708C135.486 190.148 136.366 191.156 137.646 191.156C138.862 191.156 139.774 190.132 139.774 188.756C139.774 187.3 138.894 186.26 137.662 186.26ZM145.177 184.884V185.572C145.817 184.884 146.233 184.676 146.921 184.676C147.465 184.676 147.785 184.772 148.393 185.14L147.577 186.756C147.177 186.468 146.953 186.372 146.601 186.372C145.625 186.372 145.177 187.06 145.177 188.564V192.5H143.417V184.884H145.177ZM152.893 184.692C155.197 184.692 156.973 186.436 156.973 188.708C156.973 190.98 155.197 192.74 152.877 192.74C150.605 192.74 148.845 190.964 148.845 188.644C148.845 186.468 150.653 184.692 152.893 184.692ZM152.893 186.26C151.565 186.26 150.637 187.236 150.637 188.692C150.637 190.18 151.533 191.156 152.893 191.156C154.269 191.156 155.181 190.18 155.181 188.724C155.181 187.236 154.269 186.26 152.893 186.26ZM166.167 179.316V192.5H164.407V191.7C163.671 192.42 162.983 192.74 162.055 192.74C159.975 192.74 158.439 191.012 158.439 188.692C158.439 186.404 159.975 184.692 162.023 184.692C162.983 184.692 163.671 184.996 164.407 185.78V179.316H166.167ZM162.343 186.26C161.143 186.26 160.231 187.3 160.231 188.66C160.231 190.132 161.095 191.156 162.327 191.156C163.639 191.156 164.519 190.164 164.519 188.724C164.519 187.268 163.639 186.26 162.343 186.26ZM173.121 184.884H174.881V192.5H173.121V191.844C172.609 192.404 171.905 192.74 171.121 192.74C170.257 192.74 169.505 192.468 168.977 191.828C168.497 191.204 168.385 190.5 168.385 189.3V184.884H170.145V189.348C170.145 190.676 170.577 191.156 171.601 191.156C172.609 191.156 173.121 190.564 173.121 189.268V184.884ZM183.008 187.54C182.208 186.564 181.68 186.26 180.832 186.26C179.488 186.26 178.512 187.316 178.512 188.708C178.512 190.132 179.472 191.156 180.784 191.156C181.664 191.156 182.16 190.852 183.008 189.844V192.18C182.224 192.596 181.68 192.74 180.864 192.74C178.512 192.74 176.72 190.996 176.72 188.74C176.72 186.468 178.544 184.692 180.88 184.692C181.696 184.692 182.304 184.836 183.008 185.22V187.54ZM179.696 196.436L178.544 195.86L180.112 193.46L181.552 194.052L179.696 196.436ZM185.305 182.74C185.753 182.1 185.801 182.036 185.993 181.828C186.297 181.492 186.825 181.268 187.305 181.268C187.721 181.268 188.169 181.396 188.713 181.684C189.481 182.084 189.529 182.1 189.753 182.1C190.105 182.1 190.329 181.908 190.729 181.252L191.721 182.084C191.209 183.124 190.569 183.588 189.689 183.588C189.273 183.588 189.033 183.508 188.249 183.14C187.737 182.884 187.401 182.772 187.209 182.772C186.889 182.772 186.649 183.012 186.345 183.604L185.305 182.74ZM192.073 184.884V192.5H190.313V191.7C189.497 192.468 188.905 192.74 187.977 192.74C185.881 192.74 184.345 191.012 184.345 188.692C184.345 186.388 185.881 184.692 187.929 184.692C188.905 184.692 189.561 184.98 190.313 185.78V184.884H192.073ZM188.249 186.26C187.049 186.26 186.137 187.3 186.137 188.692C186.137 190.132 187.001 191.156 188.233 191.156C189.545 191.156 190.425 190.164 190.425 188.724C190.425 187.268 189.545 186.26 188.249 186.26ZM197.972 184.692C200.276 184.692 202.052 186.436 202.052 188.708C202.052 190.98 200.276 192.74 197.956 192.74C195.684 192.74 193.924 190.964 193.924 188.644C193.924 186.468 195.732 184.692 197.972 184.692ZM197.972 186.26C196.644 186.26 195.716 187.236 195.716 188.692C195.716 190.18 196.612 191.156 197.972 191.156C199.348 191.156 200.26 190.18 200.26 188.724C200.26 187.236 199.348 186.26 197.972 186.26ZM215.777 179.316V192.5H214.017V191.7C213.281 192.42 212.593 192.74 211.665 192.74C209.585 192.74 208.049 191.012 208.049 188.692C208.049 186.404 209.585 184.692 211.633 184.692C212.593 184.692 213.281 184.996 214.017 185.78V179.316H215.777ZM211.953 186.26C210.753 186.26 209.841 187.3 209.841 188.66C209.841 190.132 210.705 191.156 211.937 191.156C213.249 191.156 214.129 190.164 214.129 188.724C214.129 187.268 213.249 186.26 211.953 186.26ZM219.483 189.124C219.563 190.372 220.331 191.156 221.451 191.156C222.331 191.156 222.811 190.82 223.515 189.684L224.987 190.516C224.587 191.188 224.363 191.492 223.963 191.812C223.291 192.404 222.347 192.74 221.387 192.74C219.131 192.74 217.627 191.14 217.627 188.724C217.627 186.292 219.099 184.692 221.307 184.692C222.555 184.692 223.707 185.268 224.299 186.196C224.699 186.82 224.923 187.716 224.923 188.708V189.124H219.483ZM223.115 187.684C222.875 186.788 222.235 186.276 221.339 186.276C220.491 186.276 219.803 186.82 219.579 187.684H223.115ZM231.37 196.644V184.884H233.13V185.716C233.866 184.996 234.554 184.692 235.466 184.692C237.546 184.692 239.082 186.404 239.082 188.74C239.082 191.012 237.546 192.74 235.514 192.74C234.554 192.74 233.866 192.404 233.13 191.652V196.644H231.37ZM235.194 186.26C233.898 186.26 233.018 187.252 233.018 188.708C233.018 190.148 233.898 191.156 235.178 191.156C236.394 191.156 237.306 190.132 237.306 188.756C237.306 187.3 236.426 186.26 235.194 186.26ZM242.436 189.124C242.516 190.372 243.284 191.156 244.404 191.156C245.284 191.156 245.764 190.82 246.468 189.684L247.94 190.516C247.54 191.188 247.316 191.492 246.916 191.812C246.244 192.404 245.3 192.74 244.34 192.74C242.084 192.74 240.58 191.14 240.58 188.724C240.58 186.292 242.052 184.692 244.26 184.692C245.508 184.692 246.66 185.268 247.252 186.196C247.652 186.82 247.876 187.716 247.876 188.708V189.124H242.436ZM246.068 187.684C245.828 186.788 245.188 186.276 244.292 186.276C243.444 186.276 242.756 186.82 242.532 187.684H246.068ZM252.493 191.124C252.685 191.124 253.069 191.06 253.421 190.74V192.356C253.101 192.58 252.637 192.724 252.045 192.724C251.261 192.724 250.797 192.484 250.509 192.132C250.125 191.7 250.029 191.028 250.029 190.036V186.484H249.293V184.884H250.029V182.1H251.789V184.884H253.357V186.484H251.789V190.324C251.789 190.74 251.837 191.124 252.493 191.124ZM256.833 184.884V185.572C257.473 184.884 257.889 184.676 258.577 184.676C259.121 184.676 259.441 184.772 260.049 185.14L259.233 186.756C258.833 186.468 258.609 186.372 258.257 186.372C257.281 186.372 256.833 187.06 256.833 188.564V192.5H255.073V184.884H256.833ZM264.358 183.716L263.382 183.14L265.526 180.276L267.174 181.14L264.358 183.716ZM264.55 184.692C266.854 184.692 268.63 186.436 268.63 188.708C268.63 190.98 266.854 192.74 264.534 192.74C262.262 192.74 260.502 190.964 260.502 188.644C260.502 186.468 262.31 184.692 264.55 184.692ZM264.55 186.26C263.222 186.26 262.294 187.236 262.294 188.692C262.294 190.18 263.19 191.156 264.55 191.156C265.926 191.156 266.838 190.18 266.838 188.724C266.838 187.236 265.926 186.26 264.55 186.26ZM272.223 192.5H270.463V179.316H272.223V192.5ZM275.936 189.124C276.016 190.372 276.784 191.156 277.904 191.156C278.784 191.156 279.264 190.82 279.968 189.684L281.44 190.516C281.04 191.188 280.816 191.492 280.416 191.812C279.744 192.404 278.8 192.74 277.84 192.74C275.584 192.74 274.08 191.14 274.08 188.724C274.08 186.292 275.552 184.692 277.76 184.692C279.008 184.692 280.16 185.268 280.752 186.196C281.152 186.82 281.376 187.716 281.376 188.708V189.124H275.936ZM279.568 187.684C279.328 186.788 278.688 186.276 277.792 186.276C276.944 186.276 276.256 186.82 276.032 187.684H279.568ZM286.972 184.692C289.276 184.692 291.052 186.436 291.052 188.708C291.052 190.98 289.276 192.74 286.956 192.74C284.684 192.74 282.924 190.964 282.924 188.644C282.924 186.468 284.732 184.692 286.972 184.692ZM286.972 186.26C285.644 186.26 284.716 187.236 284.716 188.692C284.716 190.18 285.612 191.156 286.972 191.156C288.348 191.156 289.26 190.18 289.26 188.724C289.26 187.236 288.348 186.26 286.972 186.26ZM298.905 189.124C298.985 190.372 299.753 191.156 300.873 191.156C301.753 191.156 302.233 190.82 302.937 189.684L304.409 190.516C304.009 191.188 303.785 191.492 303.385 191.812C302.713 192.404 301.769 192.74 300.809 192.74C298.553 192.74 297.049 191.14 297.049 188.724C297.049 186.292 298.521 184.692 300.729 184.692C301.977 184.692 303.129 185.268 303.721 186.196C304.121 186.82 304.345 187.716 304.345 188.708V189.124H298.905ZM302.537 187.684C302.297 186.788 301.657 186.276 300.761 186.276C299.913 186.276 299.225 186.82 299.001 187.684H302.537ZM318.152 192.324C318.152 193.796 317.992 194.484 317.496 195.188C316.84 196.116 315.752 196.66 314.472 196.66C313.208 196.66 312.056 196.148 311.4 195.3C311.048 194.82 310.888 194.34 310.76 193.332H312.472C312.632 194.052 312.792 194.388 313.16 194.644C313.528 194.916 313.992 195.092 314.456 195.092C315.128 195.092 315.752 194.772 316.056 194.308C316.28 193.94 316.392 193.46 316.392 192.724V191.652C315.672 192.404 314.936 192.74 313.992 192.74C311.944 192.74 310.44 191.06 310.44 188.756C310.44 186.404 311.944 184.692 314.008 184.692C314.952 184.692 315.784 185.076 316.392 185.764V184.884H318.152V192.324ZM314.328 186.26C313.064 186.26 312.232 187.236 312.232 188.724C312.232 189.556 312.44 190.116 312.872 190.548C313.272 190.948 313.816 191.156 314.328 191.156C315.608 191.156 316.472 190.164 316.472 188.724C316.472 187.252 315.608 186.26 314.328 186.26ZM323.874 183.716L322.914 183.14L325.074 180.276L326.722 181.14L323.874 183.716ZM327.714 184.884V192.5H325.954V191.7C325.138 192.468 324.546 192.74 323.618 192.74C321.522 192.74 319.986 191.012 319.986 188.692C319.986 186.388 321.522 184.692 323.57 184.692C324.546 184.692 325.202 184.98 325.954 185.78V184.884H327.714ZM323.89 186.26C322.69 186.26 321.778 187.3 321.778 188.692C321.778 190.132 322.642 191.156 323.874 191.156C325.186 191.156 326.066 190.164 326.066 188.724C326.066 187.268 325.186 186.26 323.89 186.26ZM332.908 186.964C332.668 186.484 332.412 186.26 332.044 186.26C331.724 186.26 331.468 186.5 331.468 186.804C331.468 187.124 331.66 187.3 332.476 187.668C333.244 188.036 333.58 188.212 333.932 188.452C334.54 188.868 334.844 189.444 334.844 190.164C334.844 191.62 333.66 192.74 332.14 192.74C330.86 192.74 329.948 192.1 329.42 190.852L330.924 190.164C331.34 190.932 331.628 191.156 332.156 191.156C332.7 191.156 333.052 190.836 333.052 190.356C333.052 189.844 332.956 189.764 331.308 188.964C330.188 188.42 329.82 187.924 329.82 186.98C329.82 185.668 330.828 184.692 332.188 184.692C333.18 184.692 333.852 185.156 334.364 186.196L332.908 186.964ZM342.451 189.124C342.531 190.372 343.299 191.156 344.419 191.156C345.299 191.156 345.779 190.82 346.483 189.684L347.955 190.516C347.555 191.188 347.331 191.492 346.931 191.812C346.259 192.404 345.315 192.74 344.355 192.74C342.099 192.74 340.595 191.14 340.595 188.724C340.595 186.292 342.067 184.692 344.275 184.692C345.523 184.692 346.675 185.268 347.267 186.196C347.667 186.82 347.891 187.716 347.891 188.708V189.124H342.451ZM346.083 187.684C345.843 186.788 345.203 186.276 344.307 186.276C343.459 186.276 342.771 186.82 342.547 187.684H346.083ZM351.567 184.884V185.588C352.223 184.884 352.623 184.692 353.391 184.692C354.239 184.692 354.959 185.092 355.423 185.812C355.967 185.076 356.735 184.692 357.663 184.692C358.623 184.692 359.503 185.156 359.871 185.876C360.111 186.356 360.239 186.996 360.239 187.796V192.5H358.479V188.276C358.479 186.82 358.159 186.26 357.311 186.26C356.335 186.26 355.919 186.964 355.919 188.58V192.5H354.159V188.292C354.159 186.9 353.791 186.26 352.991 186.26C352.495 186.26 352.015 186.548 351.807 186.948C351.631 187.3 351.567 187.796 351.567 188.58V192.5H349.807V184.884H351.567ZM370.499 183.716L369.539 183.14L371.699 180.276L373.347 181.14L370.499 183.716ZM374.339 184.884V192.5H372.579V191.7C371.763 192.468 371.171 192.74 370.243 192.74C368.147 192.74 366.611 191.012 366.611 188.692C366.611 186.388 368.147 184.692 370.195 184.692C371.171 184.692 371.827 184.98 372.579 185.78V184.884H374.339ZM370.515 186.26C369.315 186.26 368.403 187.3 368.403 188.692C368.403 190.132 369.267 191.156 370.499 191.156C371.811 191.156 372.691 190.164 372.691 188.724C372.691 187.268 371.811 186.26 370.515 186.26ZM383.917 192.324C383.917 193.796 383.757 194.484 383.261 195.188C382.605 196.116 381.517 196.66 380.237 196.66C378.973 196.66 377.821 196.148 377.165 195.3C376.813 194.82 376.653 194.34 376.525 193.332H378.237C378.397 194.052 378.557 194.388 378.925 194.644C379.293 194.916 379.757 195.092 380.221 195.092C380.893 195.092 381.517 194.772 381.821 194.308C382.045 193.94 382.157 193.46 382.157 192.724V191.652C381.437 192.404 380.701 192.74 379.757 192.74C377.709 192.74 376.205 191.06 376.205 188.756C376.205 186.404 377.709 184.692 379.773 184.692C380.717 184.692 381.549 185.076 382.157 185.764V184.884H383.917V192.324ZM380.093 186.26C378.829 186.26 377.997 187.236 377.997 188.724C377.997 189.556 378.205 190.116 378.637 190.548C379.037 190.948 379.581 191.156 380.093 191.156C381.373 191.156 382.237 190.164 382.237 188.724C382.237 187.252 381.373 186.26 380.093 186.26ZM390.856 184.884H392.616V192.5H390.856V191.844C390.344 192.404 389.64 192.74 388.856 192.74C387.992 192.74 387.24 192.468 386.712 191.828C386.232 191.204 386.12 190.5 386.12 189.3V184.884H387.88V189.348C387.88 190.676 388.312 191.156 389.336 191.156C390.344 191.156 390.856 190.564 390.856 189.268V184.884ZM402.198 184.884V192.5H400.438V191.7C399.622 192.468 399.03 192.74 398.102 192.74C396.006 192.74 394.47 191.012 394.47 188.692C394.47 186.388 396.006 184.692 398.054 184.692C399.03 184.692 399.686 184.98 400.438 185.78V184.884H402.198ZM398.374 186.26C397.174 186.26 396.262 187.3 396.262 188.692C396.262 190.132 397.126 191.156 398.358 191.156C399.67 191.156 400.55 190.164 400.55 188.724C400.55 187.268 399.67 186.26 398.374 186.26ZM407.393 186.964C407.153 186.484 406.897 186.26 406.529 186.26C406.209 186.26 405.953 186.5 405.953 186.804C405.953 187.124 406.145 187.3 406.961 187.668C407.729 188.036 408.065 188.212 408.417 188.452C409.025 188.868 409.329 189.444 409.329 190.164C409.329 191.62 408.145 192.74 406.625 192.74C405.345 192.74 404.433 192.1 403.905 190.852L405.409 190.164C405.825 190.932 406.113 191.156 406.641 191.156C407.185 191.156 407.536 190.836 407.536 190.356C407.536 189.844 407.441 189.764 405.793 188.964C404.673 188.42 404.305 187.924 404.305 186.98C404.305 185.668 405.312 184.692 406.673 184.692C407.665 184.692 408.337 185.156 408.849 186.196L407.393 186.964ZM415.448 196.644V184.884H417.208V185.716C417.944 184.996 418.632 184.692 419.544 184.692C421.624 184.692 423.16 186.404 423.16 188.74C423.16 191.012 421.624 192.74 419.592 192.74C418.632 192.74 417.944 192.404 417.208 191.652V196.644H415.448ZM419.272 186.26C417.976 186.26 417.096 187.252 417.096 188.708C417.096 190.148 417.976 191.156 419.256 191.156C420.472 191.156 421.384 190.132 421.384 188.756C421.384 187.3 420.504 186.26 419.272 186.26ZM426.786 184.884V185.572C427.426 184.884 427.842 184.676 428.53 184.676C429.074 184.676 429.394 184.772 430.002 185.14L429.186 186.756C428.786 186.468 428.562 186.372 428.21 186.372C427.234 186.372 426.786 187.06 426.786 188.564V192.5H425.026V184.884H426.786ZM434.503 184.692C436.807 184.692 438.583 186.436 438.583 188.708C438.583 190.98 436.807 192.74 434.487 192.74C432.215 192.74 430.455 190.964 430.455 188.644C430.455 186.468 432.263 184.692 434.503 184.692ZM434.503 186.26C433.175 186.26 432.247 187.236 432.247 188.692C432.247 190.18 433.143 191.156 434.503 191.156C435.879 191.156 436.791 190.18 436.791 188.724C436.791 187.236 435.879 186.26 434.503 186.26ZM442.241 192.5H440.481V186.532H439.857V184.884H440.481V181.956C440.481 180.964 440.625 180.356 440.993 179.94C441.393 179.428 442.193 179.108 442.977 179.108C443.393 179.108 443.649 179.156 444.161 179.38V181.156C443.505 180.836 443.361 180.788 443.041 180.788C442.417 180.788 442.241 181.14 442.241 182.388V184.884H444.161V186.532H442.241V192.5ZM450.121 184.884H451.881V192.5H450.121V191.844C449.609 192.404 448.905 192.74 448.121 192.74C447.257 192.74 446.505 192.468 445.977 191.828C445.497 191.204 445.385 190.5 445.385 189.3V184.884H447.145V189.348C447.145 190.676 447.577 191.156 448.601 191.156C449.609 191.156 450.121 190.564 450.121 189.268V184.884ZM455.864 184.884V185.588C456.568 184.9 457.064 184.692 457.928 184.692C458.888 184.692 459.736 185.092 460.184 185.716C460.504 186.228 460.648 186.82 460.648 187.828V192.5H458.888V188.244C458.888 187.46 458.84 187.092 458.664 186.804C458.44 186.468 458.024 186.26 457.48 186.26C456.296 186.26 455.864 186.948 455.864 188.836V192.5H454.104V184.884H455.864ZM470.23 179.316V192.5H468.47V191.7C467.734 192.42 467.046 192.74 466.118 192.74C464.038 192.74 462.502 191.012 462.502 188.692C462.502 186.404 464.038 184.692 466.086 184.692C467.046 184.692 467.734 184.996 468.47 185.78V179.316H470.23ZM466.406 186.26C465.206 186.26 464.294 187.3 464.294 188.66C464.294 190.132 465.158 191.156 466.39 191.156C467.702 191.156 468.582 190.164 468.582 188.724C468.582 187.268 467.702 186.26 466.406 186.26ZM479.902 184.884V192.5H478.142V191.7C477.326 192.468 476.734 192.74 475.806 192.74C473.71 192.74 472.174 191.012 472.174 188.692C472.174 186.388 473.71 184.692 475.758 184.692C476.734 184.692 477.39 184.98 478.142 185.78V184.884H479.902ZM476.078 186.26C474.878 186.26 473.966 187.3 473.966 188.692C473.966 190.132 474.83 191.156 476.062 191.156C477.374 191.156 478.254 190.164 478.254 188.724C478.254 187.268 477.374 186.26 476.078 186.26ZM485.096 186.964C484.856 186.484 484.6 186.26 484.232 186.26C483.912 186.26 483.656 186.5 483.656 186.804C483.656 187.124 483.848 187.3 484.664 187.668C485.432 188.036 485.768 188.212 486.12 188.452C486.728 188.868 487.032 189.444 487.032 190.164C487.032 191.62 485.848 192.74 484.328 192.74C483.048 192.74 482.136 192.1 481.608 190.852L483.112 190.164C483.528 190.932 483.816 191.156 484.344 191.156C484.888 191.156 485.24 190.836 485.24 190.356C485.24 189.844 485.144 189.764 483.496 188.964C482.376 188.42 482.008 187.924 482.008 186.98C482.008 185.668 483.016 184.692 484.376 184.692C485.368 184.692 486.04 185.156 486.552 186.196L485.096 186.964ZM496.815 179.812C496.255 181.124 496.031 181.812 495.807 182.676C495.503 184.004 495.279 185.908 495.279 187.508C495.279 189.124 495.503 191.028 495.807 192.34C496.031 193.22 496.255 193.892 496.815 195.204L495.199 195.844C494.607 194.644 494.367 193.908 494.079 192.644C493.711 191.028 493.487 189.156 493.487 187.508C493.487 185.86 493.711 184.004 494.079 182.388C494.367 181.108 494.607 180.372 495.199 179.172L496.815 179.812ZM499.604 196.644V184.884H501.364V185.716C502.1 184.996 502.788 184.692 503.7 184.692C505.78 184.692 507.316 186.404 507.316 188.74C507.316 191.012 505.78 192.74 503.748 192.74C502.788 192.74 502.1 192.404 501.364 191.652V196.644H499.604ZM503.428 186.26C502.132 186.26 501.252 187.252 501.252 188.708C501.252 190.148 502.132 191.156 503.412 191.156C504.628 191.156 505.54 190.132 505.54 188.756C505.54 187.3 504.66 186.26 503.428 186.26ZM510.942 184.884V185.572C511.582 184.884 511.998 184.676 512.686 184.676C513.23 184.676 513.55 184.772 514.158 185.14L513.342 186.756C512.942 186.468 512.718 186.372 512.366 186.372C511.39 186.372 510.942 187.06 510.942 188.564V192.5H509.182V184.884H510.942ZM518.13 183.716L517.154 183.14L519.314 180.276L520.962 181.14L518.13 183.716ZM516.514 189.124C516.594 190.372 517.362 191.156 518.482 191.156C519.362 191.156 519.842 190.82 520.546 189.684L522.018 190.516C521.618 191.188 521.394 191.492 520.994 191.812C520.322 192.404 519.378 192.74 518.418 192.74C516.162 192.74 514.658 191.14 514.658 188.724C514.658 186.292 516.13 184.692 518.338 184.692C519.586 184.692 520.738 185.268 521.33 186.196C521.73 186.82 521.954 187.716 521.954 188.708V189.124H516.514ZM520.146 187.684C519.906 186.788 519.266 186.276 518.37 186.276C517.522 186.276 516.834 186.82 516.61 187.684H520.146ZM526.988 187.876V189.412H523.5V187.876H526.988ZM531.502 186.964C531.262 186.484 531.006 186.26 530.638 186.26C530.318 186.26 530.062 186.5 530.062 186.804C530.062 187.124 530.254 187.3 531.07 187.668C531.838 188.036 532.174 188.212 532.526 188.452C533.134 188.868 533.438 189.444 533.438 190.164C533.438 191.62 532.254 192.74 530.734 192.74C529.454 192.74 528.542 192.1 528.014 190.852L529.518 190.164C529.934 190.932 530.222 191.156 530.75 191.156C531.294 191.156 531.646 190.836 531.646 190.356C531.646 189.844 531.55 189.764 529.902 188.964C528.782 188.42 528.414 187.924 528.414 186.98C528.414 185.668 529.422 184.692 530.782 184.692C531.774 184.692 532.446 185.156 532.958 186.196L531.502 186.964ZM542.433 184.884V192.5H540.673V191.7C539.857 192.468 539.265 192.74 538.337 192.74C536.241 192.74 534.705 191.012 534.705 188.692C534.705 186.388 536.241 184.692 538.289 184.692C539.265 184.692 539.921 184.98 540.673 185.78V184.884H542.433ZM538.609 186.26C537.409 186.26 536.497 187.3 536.497 188.692C536.497 190.132 537.361 191.156 538.593 191.156C539.905 191.156 540.785 190.164 540.785 188.724C540.785 187.268 539.905 186.26 538.609 186.26ZM546.411 192.5H544.651V179.316H546.411V192.5ZM548.619 195.204C549.179 193.892 549.419 193.22 549.627 192.34C549.931 191.028 550.155 189.124 550.155 187.508C550.155 185.908 549.931 184.004 549.627 182.676C549.419 181.812 549.179 181.124 548.619 179.812L550.235 179.172C550.827 180.372 551.067 181.108 551.371 182.388C551.723 184.004 551.947 185.86 551.947 187.508C551.947 189.156 551.723 191.028 551.371 192.644C551.067 193.908 550.827 194.644 550.235 195.844L548.619 195.204Z" fill="#343434"/>
</svg>
