<svg fill="none" viewBox="0 0 554 198">
  <g id="ShellAllType" class="ShellAllType">
    <g id="Shell Logo" class="Shell Logo">
      <g id="logo" class="logo">
        <path id="path14" fill="#fff" d="m88.53 66.787-8.49 6.137-1.297 10.308h-14l-.808.584a4.153 4.153 0 0 1-4.869 0l-.808-.584h-14l-1.296-10.308-8.491-6.137a27.265 27.265 0 0 1-.557-5.482c0-15.128 12.359-27.407 27.586-27.407 15.228 0 27.587 12.28 27.587 27.407 0 1.843-.187 3.679-.556 5.482ZM61.5 31.5c-16.542 0-30 13.37-30 29.806 0 1.996.204 4.002.606 5.96l.188.913 8.402 6.073 1.432 11.378h15.346l.17.123A6.53 6.53 0 0 0 61.5 87a6.52 6.52 0 0 0 3.852-1.244l.175-.126h15.346l1.431-11.378 8.405-6.073.187-.913c.402-1.96.604-3.965.604-5.96 0-16.435-13.458-29.806-30-29.806Z" class="path14"/>
        <path id="path16" stroke="#fff" stroke-miterlimit="40" stroke-width="1.167" d="M58.259 83.23h-14l-1.297-10.308-8.49-6.136a27.269 27.269 0 0 1-.558-5.482c0-15.129 12.36-27.408 27.587-27.408s27.585 12.279 27.585 27.408c0 1.842-.185 3.678-.556 5.482l-8.49 6.136-1.298 10.309h-14l-.807.583a4.156 4.156 0 0 1-4.869 0l-.807-.583Z" class="path16"/>
        <path id="path18" fill="#FBBE09" d="M58.259 83.23h-14l-1.297-10.308-8.49-6.136a27.269 27.269 0 0 1-.558-5.482c0-15.129 12.36-27.408 27.587-27.408s27.585 12.279 27.585 27.408c0 1.842-.185 3.678-.556 5.482l-8.49 6.136-1.298 10.309h-14l-.807.583a4.156 4.156 0 0 1-4.869 0l-.807-.583Z" class="path18"/>
        <path id="path20" fill="#EE2722" fill-rule="evenodd" d="M58.697 78.434H48.52l-1.028-8.169-8.381-6.056a11.58 11.58 0 0 1 .648-7.653L54.6 71.463 40.172 53.768a11.64 11.64 0 0 1 3.602-5.933l12.933 22.177L45.25 45.733a11.72 11.72 0 0 1 5.906-4.129l7.907 27.527-5.777-28.661a11.78 11.78 0 0 1 7.037-1.433l1.178 29.804 1.177-29.804a11.785 11.785 0 0 1 7.037 1.433l-5.777 28.66 7.908-27.526a11.722 11.722 0 0 1 5.906 4.129L66.293 70.012l12.932-22.177a11.641 11.641 0 0 1 3.604 5.933L68.402 71.463l14.84-14.907a11.57 11.57 0 0 1 .647 7.653l-8.38 6.056-1.028 8.169H64.304L62.8 79.522a2.214 2.214 0 0 1-2.596 0l-1.506-1.088Zm-.438 4.797h-14l-1.297-10.31-8.49-6.135a27.269 27.269 0 0 1-.558-5.482c0-15.129 12.36-27.408 27.587-27.408s27.585 12.279 27.585 27.408c0 1.842-.185 3.678-.556 5.482l-8.49 6.136-1.298 10.309h-14l-.807.583a4.156 4.156 0 0 1-4.869 0l-.807-.583Z" class="path20" clip-rule="evenodd"/>
      </g>
    </g>
    <g id="AlltypeBox" class="AlltypeBox">
      <path id="Title" fill="#343434" d="M43.05 162.5h-8.232v-31.668H47.88c3.696 0 5.88.714 7.938 2.688 2.016 1.932 3.066 4.494 3.066 7.812 0 3.15-.882 5.838-2.562 7.686-1.764 2.016-4.368 2.94-8.148 2.94H43.05V162.5Zm2.688-17.136c3.15 0 4.536-1.218 4.536-3.948 0-2.646-1.47-3.99-4.494-3.99h-2.73v7.938h2.688Zm28.393-5.166c7.602 0 12.978 4.788 12.978 11.508 0 6.846-5.376 11.592-13.062 11.592-7.56 0-12.81-4.83-12.81-11.76 0-3.15 1.428-6.216 3.864-8.358 2.142-1.848 5.586-2.982 9.03-2.982Zm0 6.552c-2.646 0-4.872 2.226-4.872 4.872 0 2.772 2.184 4.998 4.914 4.998 2.73 0 4.914-2.226 4.914-4.956 0-2.73-2.184-4.914-4.956-4.914Zm24.915-5.754v3.528c1.764-2.73 3.78-3.822 7.056-3.822.504 0 .756 0 1.47.042v7.266c-1.218-.588-1.932-.756-3.192-.756-3.57 0-5.334 2.058-5.334 6.048v9.198h-7.602v-21.504h7.602Zm21.311 22.218c-3.402 0-4.914-1.05-5.67-2.016-.966-1.134-1.806-2.394-1.806-5.964v-8.106h-2.52v-6.132h2.52v-6.468h7.56v6.468h5.04v6.132h-5.04v8.4c0 1.218.63 1.806 1.932 1.806.966 0 2.1-.336 2.814-.798v5.88c-.966.42-2.604.798-4.83.798Zm13.382-34.734a4.23 4.23 0 0 1 4.242 4.242c0 2.394-1.89 4.284-4.242 4.284-2.394 0-4.284-1.89-4.284-4.326 0-2.31 1.932-4.2 4.284-4.2Zm3.78 34.02h-7.602v-21.504h7.602V162.5Zm13.385 0h-7.602v-15.204h-2.73v-6.3h2.73v-3.276c0-3.486.63-5.376 2.394-7.308 1.932-2.016 4.536-3.192 7.182-3.192 1.302 0 2.058.21 3.36.84v6.594c-1.218-.588-1.848-.756-2.646-.756-1.008 0-2.1.588-2.436 1.428-.21.504-.252 1.218-.252 2.982v2.688h5.334v6.3h-5.334V162.5Zm20.345-24.696-3.486-2.604 5.964-7.308 4.83 3.486-7.308 6.426Zm.294 2.394c7.602 0 12.978 4.788 12.978 11.508 0 6.846-5.376 11.592-13.062 11.592-7.56 0-12.81-4.83-12.81-11.76 0-3.15 1.428-6.216 3.864-8.358 2.142-1.848 5.586-2.982 9.03-2.982Zm0 6.552c-2.646 0-4.872 2.226-4.872 4.872 0 2.772 2.184 4.998 4.914 4.998 2.73 0 4.914-2.226 4.914-4.956 0-2.73-2.184-4.914-4.956-4.914Zm24.915 15.75h-7.602v-34.776h7.602V162.5Zm8.976-34.02a4.23 4.23 0 0 1 4.242 4.242c0 2.394-1.89 4.284-4.242 4.284-2.394 0-4.284-1.89-4.284-4.326 0-2.31 1.932-4.2 4.284-4.2Zm3.78 34.02h-7.602v-21.504h7.602V162.5Zm17.208-22.302c7.602 0 12.978 4.788 12.978 11.508 0 6.846-5.376 11.592-13.062 11.592-7.56 0-12.81-4.83-12.81-11.76 0-3.15 1.428-6.216 3.864-8.358 2.142-1.848 5.586-2.982 9.03-2.982Zm0 6.552c-2.646 0-4.872 2.226-4.872 4.872 0 2.772 2.184 4.998 4.914 4.998 2.73 0 4.914-2.226 4.914-4.956 0-2.73-2.184-4.914-4.956-4.914Zm47.309-7.686c-1.848-1.47-3.528-2.142-5.418-2.142-2.016 0-3.528 1.176-3.528 2.73 0 .588.294 1.218.756 1.596.924.756 1.26.882 4.956 1.974 5.502 1.638 7.77 4.2 7.77 8.904 0 3.57-1.092 6.342-3.234 8.19-2.268 1.932-5.502 2.982-9.156 2.982-3.738 0-7.602-1.218-10.962-3.57l3.528-6.636c2.562 2.226 4.83 3.234 7.266 3.234 2.394 0 3.99-1.218 3.99-3.066 0-1.722-1.092-2.52-4.956-3.654-3.528-1.05-4.872-1.638-6.006-2.562-1.68-1.386-2.52-3.486-2.52-6.3 0-6.342 4.368-10.668 10.752-10.668 3.318 0 6.846.924 10.038 2.562l-3.276 6.426Zm17.186-11.34v16.002c2.058-2.394 3.78-3.192 6.888-3.192 2.646 0 4.704.756 6.216 2.352 1.512 1.512 1.974 3.024 1.974 5.964v13.65h-7.602v-10.878c0-2.184-.042-2.604-.462-3.402-.462-1.008-1.68-1.68-3.024-1.68a4.37 4.37 0 0 0-3.192 1.428c-.546.756-.798 1.596-.798 2.982v11.55h-7.602v-34.776h7.602Zm27.094 25.41c.042 3.276 1.554 4.872 4.578 4.872 1.806 0 2.814-.546 3.78-2.058h7.308c-.546 1.806-1.008 2.772-1.89 3.78-1.974 2.31-5.334 3.612-9.198 3.612-7.434 0-12.264-4.494-12.264-11.424 0-7.056 4.578-11.55 11.97-11.55 7.308 0 11.718 4.536 11.718 12.012v.756h-16.002Zm8.904-4.41c-.504-2.184-2.184-3.444-4.452-3.444-2.31 0-3.906 1.26-4.284 3.444h8.736Zm19.291 13.776h-7.602v-34.776h7.602V162.5Zm12.756 0h-7.602v-34.776h7.602V162.5Zm17.762-31.668h12.222c5.754 0 8.904 2.94 8.904 8.274 0 3.192-1.008 5.082-3.486 6.51 2.31.462 3.402.924 4.452 1.974 1.26 1.344 2.016 3.528 2.016 5.922 0 5.586-4.158 8.988-10.92 8.988h-13.188v-31.668Zm9.744 12.474c2.52 0 3.822-1.092 3.822-3.066 0-2.058-1.302-3.066-3.822-3.066h-1.512v6.132h1.512Zm.294 12.768c4.074 0 5.754-.966 5.754-3.318 0-1.176-.588-2.268-1.554-2.73-.966-.462-1.638-.588-4.368-.588h-1.638v6.636h1.806Zm26.176-15.078v3.528c1.764-2.73 3.78-3.822 7.056-3.822.504 0 .756 0 1.47.042v7.266c-1.218-.588-1.932-.756-3.192-.756-3.57 0-5.334 2.058-5.334 6.048v9.198h-7.602v-21.504h7.602Zm36.444 0V162.5h-7.602v-2.352c-1.68 2.1-3.738 3.066-6.636 3.066-6.132 0-10.878-5.04-10.878-11.55 0-6.426 4.704-11.382 10.794-11.382 2.772 0 4.83.882 6.72 2.814v-2.1h7.602Zm-12.306 5.838c-2.646 0-4.872 2.184-4.872 4.83 0 2.814 2.184 4.998 4.914 4.998 2.688 0 4.872-2.184 4.872-4.956 0-2.688-2.184-4.872-4.914-4.872Zm31.882-.294c-1.428-.714-2.772-1.05-4.116-1.05-1.386 0-2.31.672-2.31 1.554 0 .924.546 1.218 3.402 1.848 4.284.84 6.258 2.898 6.258 6.342 0 4.914-4.032 8.064-10.248 8.064-2.982 0-5.796-.798-8.568-2.478l2.73-5.334c2.016 1.302 4.326 2.184 6.09 2.184 1.344 0 2.352-.714 2.352-1.722s-.672-1.386-3.234-1.932c-4.536-.966-6.3-2.604-6.3-6.006 0-4.788 3.654-7.77 9.576-7.77 2.604 0 4.578.378 6.93 1.386l-2.562 4.914Zm10.87-18.06a4.23 4.23 0 0 1 4.242 4.242c0 2.394-1.89 4.284-4.242 4.284-2.394 0-4.284-1.89-4.284-4.326 0-2.31 1.932-4.2 4.284-4.2Zm3.78 34.02h-7.602v-21.504h7.602V162.5Zm12.756 0h-7.602v-34.776h7.602V162.5Z" class="Title"/>
      <path id="Description" fill="#343434" d="M34.78 182.164v2.88h4.672v1.728H34.78v4.016h4.816v1.712H32.94v-12.064h6.656v1.728H34.78Zm6.503 2.72h2.096l1.696 2.224 1.728-2.224h2.144l-2.816 3.488 3.264 4.128h-2.08l-2.24-2.832-2.288 2.832h-2.144l3.376-4.128-2.736-3.488Zm9.29 11.76v-11.76h1.76v.832c.736-.72 1.424-1.024 2.336-1.024 2.08 0 3.616 1.712 3.616 4.048 0 2.272-1.536 4-3.568 4-.96 0-1.648-.336-2.384-1.088v4.992h-1.76Zm3.824-10.384c-1.296 0-2.176.992-2.176 2.448 0 1.44.88 2.448 2.16 2.448 1.216 0 2.128-1.024 2.128-2.4 0-1.456-.88-2.496-2.112-2.496Zm7.514 6.24h-1.76v-13.184h1.76V192.5Zm5.904-7.808c2.304 0 4.08 1.744 4.08 4.016 0 2.272-1.776 4.032-4.096 4.032-2.272 0-4.032-1.776-4.032-4.096 0-2.176 1.808-3.952 4.048-3.952Zm0 1.568c-1.328 0-2.256.976-2.256 2.432 0 1.488.896 2.464 2.256 2.464 1.376 0 2.288-.976 2.288-2.432 0-1.488-.912-2.464-2.288-2.464Zm7.674-1.376v.688c.64-.688 1.056-.896 1.744-.896.544 0 .864.096 1.472.464l-.816 1.616c-.4-.288-.624-.384-.976-.384-.976 0-1.424.688-1.424 2.192v3.936h-1.76v-7.616h1.76Zm11.444 0v7.616h-1.76v-.8c-.816.768-1.408 1.04-2.336 1.04-2.096 0-3.632-1.728-3.632-4.048 0-2.304 1.536-4 3.584-4 .976 0 1.632.288 2.384 1.088v-.896h1.76Zm-3.824 1.376c-1.2 0-2.112 1.04-2.112 2.432 0 1.44.864 2.464 2.096 2.464 1.312 0 2.192-.992 2.192-2.432 0-1.456-.88-2.464-2.176-2.464Zm11.946 1.28c-.8-.976-1.328-1.28-2.176-1.28-1.344 0-2.32 1.056-2.32 2.448 0 1.424.96 2.448 2.272 2.448.88 0 1.376-.304 2.224-1.312v2.336c-.784.416-1.328.56-2.144.56-2.352 0-4.144-1.744-4.144-4 0-2.272 1.824-4.048 4.16-4.048.816 0 1.424.144 2.128.528v2.32Zm-3.312 8.896-1.152-.576 1.568-2.4 1.44.592-1.856 2.384Zm5.61-13.696c.447-.64.495-.704.687-.912.304-.336.832-.56 1.312-.56.416 0 .864.128 1.408.416.768.4.816.416 1.04.416.352 0 .576-.192.976-.848l.992.832c-.512 1.04-1.152 1.504-2.032 1.504-.416 0-.656-.08-1.44-.448-.512-.256-.848-.368-1.04-.368-.32 0-.56.24-.864.832l-1.04-.864Zm6.767 2.144v7.616h-1.76v-.8c-.816.768-1.408 1.04-2.336 1.04-2.096 0-3.632-1.728-3.632-4.048 0-2.304 1.536-4 3.584-4 .976 0 1.632.288 2.384 1.088v-.896h1.76Zm-3.824 1.376c-1.2 0-2.112 1.04-2.112 2.432 0 1.44.864 2.464 2.096 2.464 1.312 0 2.192-.992 2.192-2.432 0-1.456-.88-2.464-2.176-2.464Zm9.722-1.568c2.304 0 4.08 1.744 4.08 4.016 0 2.272-1.776 4.032-4.096 4.032-2.272 0-4.032-1.776-4.032-4.096 0-2.176 1.808-3.952 4.048-3.952Zm0 1.568c-1.328 0-2.256.976-2.256 2.432 0 1.488.896 2.464 2.256 2.464 1.376 0 2.288-.976 2.288-2.432 0-1.488-.912-2.464-2.288-2.464Zm11.933 2.864c.08 1.248.848 2.032 1.968 2.032.88 0 1.36-.336 2.064-1.472l1.472.832c-.4.672-.624.976-1.024 1.296-.672.592-1.616.928-2.576.928-2.256 0-3.76-1.6-3.76-4.016 0-2.432 1.472-4.032 3.68-4.032 1.248 0 2.4.576 2.992 1.504.4.624.624 1.52.624 2.512v.416h-5.44Zm3.632-1.44c-.24-.896-.88-1.408-1.776-1.408-.848 0-1.536.544-1.76 1.408h3.536Zm8.255 8.96v-11.76h1.76v.832c.736-.72 1.424-1.024 2.336-1.024 2.08 0 3.616 1.712 3.616 4.048 0 2.272-1.536 4-3.568 4-.96 0-1.648-.336-2.384-1.088v4.992h-1.76Zm3.824-10.384c-1.296 0-2.176.992-2.176 2.448 0 1.44.88 2.448 2.16 2.448 1.216 0 2.128-1.024 2.128-2.4 0-1.456-.88-2.496-2.112-2.496Zm7.515-1.376v.688c.64-.688 1.056-.896 1.744-.896.544 0 .864.096 1.472.464l-.816 1.616c-.4-.288-.624-.384-.976-.384-.976 0-1.424.688-1.424 2.192v3.936h-1.76v-7.616h1.76Zm7.716-.192c2.304 0 4.08 1.744 4.08 4.016 0 2.272-1.776 4.032-4.096 4.032-2.272 0-4.032-1.776-4.032-4.096 0-2.176 1.808-3.952 4.048-3.952Zm0 1.568c-1.328 0-2.256.976-2.256 2.432 0 1.488.896 2.464 2.256 2.464 1.376 0 2.288-.976 2.288-2.432 0-1.488-.912-2.464-2.288-2.464Zm13.274-6.944V192.5h-1.76v-.8c-.736.72-1.424 1.04-2.352 1.04-2.08 0-3.616-1.728-3.616-4.048 0-2.288 1.536-4 3.584-4 .96 0 1.648.304 2.384 1.088v-6.464h1.76Zm-3.824 6.944c-1.2 0-2.112 1.04-2.112 2.4 0 1.472.864 2.496 2.096 2.496 1.312 0 2.192-.992 2.192-2.432 0-1.456-.88-2.464-2.176-2.464Zm10.778-1.376h1.76v7.616h-1.76v-.656a2.69 2.69 0 0 1-2 .896c-.864 0-1.616-.272-2.144-.912-.48-.624-.592-1.328-.592-2.528v-4.416h1.76v4.464c0 1.328.432 1.808 1.456 1.808 1.008 0 1.52-.592 1.52-1.888v-4.384Zm9.887 2.656c-.8-.976-1.328-1.28-2.176-1.28-1.344 0-2.32 1.056-2.32 2.448 0 1.424.96 2.448 2.272 2.448.88 0 1.376-.304 2.224-1.312v2.336c-.784.416-1.328.56-2.144.56-2.352 0-4.144-1.744-4.144-4 0-2.272 1.824-4.048 4.16-4.048.816 0 1.424.144 2.128.528v2.32Zm-3.312 8.896-1.152-.576 1.568-2.4 1.44.592-1.856 2.384Zm5.609-13.696c.448-.64.496-.704.688-.912.304-.336.832-.56 1.312-.56.416 0 .864.128 1.408.416.768.4.816.416 1.04.416.352 0 .576-.192.976-.848l.992.832c-.512 1.04-1.152 1.504-2.032 1.504-.416 0-.656-.08-1.44-.448-.512-.256-.848-.368-1.04-.368-.32 0-.56.24-.864.832l-1.04-.864Zm6.768 2.144v7.616h-1.76v-.8c-.816.768-1.408 1.04-2.336 1.04-2.096 0-3.632-1.728-3.632-4.048 0-2.304 1.536-4 3.584-4 .976 0 1.632.288 2.384 1.088v-.896h1.76Zm-3.824 1.376c-1.2 0-2.112 1.04-2.112 2.432 0 1.44.864 2.464 2.096 2.464 1.312 0 2.192-.992 2.192-2.432 0-1.456-.88-2.464-2.176-2.464Zm9.723-1.568c2.304 0 4.08 1.744 4.08 4.016 0 2.272-1.776 4.032-4.096 4.032-2.272 0-4.032-1.776-4.032-4.096 0-2.176 1.808-3.952 4.048-3.952Zm0 1.568c-1.328 0-2.256.976-2.256 2.432 0 1.488.896 2.464 2.256 2.464 1.376 0 2.288-.976 2.288-2.432 0-1.488-.912-2.464-2.288-2.464Zm17.805-6.944V192.5h-1.76v-.8c-.736.72-1.424 1.04-2.352 1.04-2.08 0-3.616-1.728-3.616-4.048 0-2.288 1.536-4 3.584-4 .96 0 1.648.304 2.384 1.088v-6.464h1.76Zm-3.824 6.944c-1.2 0-2.112 1.04-2.112 2.4 0 1.472.864 2.496 2.096 2.496 1.312 0 2.192-.992 2.192-2.432 0-1.456-.88-2.464-2.176-2.464Zm7.53 2.864c.08 1.248.848 2.032 1.968 2.032.88 0 1.36-.336 2.064-1.472l1.472.832c-.4.672-.624.976-1.024 1.296-.672.592-1.616.928-2.576.928-2.256 0-3.76-1.6-3.76-4.016 0-2.432 1.472-4.032 3.68-4.032 1.248 0 2.4.576 2.992 1.504.4.624.624 1.52.624 2.512v.416h-5.44Zm3.632-1.44c-.24-.896-.88-1.408-1.776-1.408-.848 0-1.536.544-1.76 1.408h3.536Zm8.255 8.96v-11.76h1.76v.832c.736-.72 1.424-1.024 2.336-1.024 2.08 0 3.616 1.712 3.616 4.048 0 2.272-1.536 4-3.568 4-.96 0-1.648-.336-2.384-1.088v4.992h-1.76Zm3.824-10.384c-1.296 0-2.176.992-2.176 2.448 0 1.44.88 2.448 2.16 2.448 1.216 0 2.128-1.024 2.128-2.4 0-1.456-.88-2.496-2.112-2.496Zm7.242 2.864c.08 1.248.848 2.032 1.968 2.032.88 0 1.36-.336 2.064-1.472l1.472.832c-.4.672-.624.976-1.024 1.296-.672.592-1.616.928-2.576.928-2.256 0-3.76-1.6-3.76-4.016 0-2.432 1.472-4.032 3.68-4.032 1.248 0 2.4.576 2.992 1.504.4.624.624 1.52.624 2.512v.416h-5.44Zm3.632-1.44c-.24-.896-.88-1.408-1.776-1.408-.848 0-1.536.544-1.76 1.408h3.536Zm6.425 3.44c.192 0 .576-.064.928-.384v1.616c-.32.224-.784.368-1.376.368-.784 0-1.248-.24-1.536-.592-.384-.432-.48-1.104-.48-2.096v-3.552h-.736v-1.6h.736V182.1h1.76v2.784h1.568v1.6h-1.568v3.84c0 .416.048.8.704.8Zm4.34-6.24v.688c.64-.688 1.056-.896 1.744-.896.544 0 .864.096 1.472.464l-.816 1.616c-.4-.288-.624-.384-.976-.384-.976 0-1.424.688-1.424 2.192v3.936h-1.76v-7.616h1.76Zm7.525-1.168-.976-.576 2.144-2.864 1.648.864-2.816 2.576Zm.192.976c2.304 0 4.08 1.744 4.08 4.016 0 2.272-1.776 4.032-4.096 4.032-2.272 0-4.032-1.776-4.032-4.096 0-2.176 1.808-3.952 4.048-3.952Zm0 1.568c-1.328 0-2.256.976-2.256 2.432 0 1.488.896 2.464 2.256 2.464 1.376 0 2.288-.976 2.288-2.432 0-1.488-.912-2.464-2.288-2.464Zm7.673 6.24h-1.76v-13.184h1.76V192.5Zm3.713-3.376c.08 1.248.848 2.032 1.968 2.032.88 0 1.36-.336 2.064-1.472l1.472.832c-.4.672-.624.976-1.024 1.296-.672.592-1.616.928-2.576.928-2.256 0-3.76-1.6-3.76-4.016 0-2.432 1.472-4.032 3.68-4.032 1.248 0 2.4.576 2.992 1.504.4.624.624 1.52.624 2.512v.416h-5.44Zm3.632-1.44c-.24-.896-.88-1.408-1.776-1.408-.848 0-1.536.544-1.76 1.408h3.536Zm7.404-2.992c2.304 0 4.08 1.744 4.08 4.016 0 2.272-1.776 4.032-4.096 4.032-2.272 0-4.032-1.776-4.032-4.096 0-2.176 1.808-3.952 4.048-3.952Zm0 1.568c-1.328 0-2.256.976-2.256 2.432 0 1.488.896 2.464 2.256 2.464 1.376 0 2.288-.976 2.288-2.432 0-1.488-.912-2.464-2.288-2.464Zm11.933 2.864c.08 1.248.848 2.032 1.968 2.032.88 0 1.36-.336 2.064-1.472l1.472.832c-.4.672-.624.976-1.024 1.296-.672.592-1.616.928-2.576.928-2.256 0-3.76-1.6-3.76-4.016 0-2.432 1.472-4.032 3.68-4.032 1.248 0 2.4.576 2.992 1.504.4.624.624 1.52.624 2.512v.416h-5.44Zm3.632-1.44c-.24-.896-.88-1.408-1.776-1.408-.848 0-1.536.544-1.76 1.408h3.536Zm15.615 4.64c0 1.472-.16 2.16-.656 2.864-.656.928-1.744 1.472-3.024 1.472-1.264 0-2.416-.512-3.072-1.36-.352-.48-.512-.96-.64-1.968h1.712c.16.72.32 1.056.688 1.312.368.272.832.448 1.296.448.672 0 1.296-.32 1.6-.784.224-.368.336-.848.336-1.584v-1.072c-.72.752-1.456 1.088-2.4 1.088-2.048 0-3.552-1.68-3.552-3.984 0-2.352 1.504-4.064 3.568-4.064a3.12 3.12 0 0 1 2.384 1.072v-.88h1.76v7.44Zm-3.824-6.064c-1.264 0-2.096.976-2.096 2.464 0 .832.208 1.392.64 1.824.4.4.944.608 1.456.608 1.28 0 2.144-.992 2.144-2.432 0-1.472-.864-2.464-2.144-2.464Zm9.546-2.544-.96-.576 2.16-2.864 1.648.864-2.848 2.576Zm3.84 1.168v7.616h-1.76v-.8c-.816.768-1.408 1.04-2.336 1.04-2.096 0-3.632-1.728-3.632-4.048 0-2.304 1.536-4 3.584-4 .976 0 1.632.288 2.384 1.088v-.896h1.76Zm-3.824 1.376c-1.2 0-2.112 1.04-2.112 2.432 0 1.44.864 2.464 2.096 2.464 1.312 0 2.192-.992 2.192-2.432 0-1.456-.88-2.464-2.176-2.464Zm9.018.704c-.24-.48-.496-.704-.864-.704-.32 0-.576.24-.576.544 0 .32.192.496 1.008.864.768.368 1.104.544 1.456.784.608.416.912.992.912 1.712 0 1.456-1.184 2.576-2.704 2.576-1.28 0-2.192-.64-2.72-1.888l1.504-.688c.416.768.704.992 1.232.992.544 0 .896-.32.896-.8 0-.512-.096-.592-1.744-1.392-1.12-.544-1.488-1.04-1.488-1.984 0-1.312 1.008-2.288 2.368-2.288.992 0 1.664.464 2.176 1.504l-1.456.768Zm9.543 2.16c.08 1.248.848 2.032 1.968 2.032.88 0 1.36-.336 2.064-1.472l1.472.832c-.4.672-.624.976-1.024 1.296-.672.592-1.616.928-2.576.928-2.256 0-3.76-1.6-3.76-4.016 0-2.432 1.472-4.032 3.68-4.032 1.248 0 2.4.576 2.992 1.504.4.624.624 1.52.624 2.512v.416h-5.44Zm3.632-1.44c-.24-.896-.88-1.408-1.776-1.408-.848 0-1.536.544-1.76 1.408h3.536Zm5.484-2.8v.704c.656-.704 1.056-.896 1.824-.896.848 0 1.568.4 2.032 1.12.544-.736 1.312-1.12 2.24-1.12.96 0 1.84.464 2.208 1.184.24.48.368 1.12.368 1.92v4.704h-1.76v-4.224c0-1.456-.32-2.016-1.168-2.016-.976 0-1.392.704-1.392 2.32v3.92h-1.76v-4.208c0-1.392-.368-2.032-1.168-2.032-.496 0-.976.288-1.184.688-.176.352-.24.848-.24 1.632v3.92h-1.76v-7.616h1.76Zm18.932-1.168-.96-.576 2.16-2.864 1.648.864-2.848 2.576Zm3.84 1.168v7.616h-1.76v-.8c-.816.768-1.408 1.04-2.336 1.04-2.096 0-3.632-1.728-3.632-4.048 0-2.304 1.536-4 3.584-4 .976 0 1.632.288 2.384 1.088v-.896h1.76Zm-3.824 1.376c-1.2 0-2.112 1.04-2.112 2.432 0 1.44.864 2.464 2.096 2.464 1.312 0 2.192-.992 2.192-2.432 0-1.456-.88-2.464-2.176-2.464Zm13.402 6.064c0 1.472-.16 2.16-.656 2.864-.656.928-1.744 1.472-3.024 1.472-1.264 0-2.416-.512-3.072-1.36-.352-.48-.512-.96-.64-1.968h1.712c.16.72.32 1.056.688 1.312.368.272.832.448 1.296.448.672 0 1.296-.32 1.6-.784.224-.368.336-.848.336-1.584v-1.072c-.72.752-1.456 1.088-2.4 1.088-2.048 0-3.552-1.68-3.552-3.984 0-2.352 1.504-4.064 3.568-4.064a3.12 3.12 0 0 1 2.384 1.072v-.88h1.76v7.44Zm-3.824-6.064c-1.264 0-2.096.976-2.096 2.464 0 .832.208 1.392.64 1.824.4.4.944.608 1.456.608 1.28 0 2.144-.992 2.144-2.432 0-1.472-.864-2.464-2.144-2.464Zm10.763-1.376h1.76v7.616h-1.76v-.656a2.69 2.69 0 0 1-2 .896c-.864 0-1.616-.272-2.144-.912-.48-.624-.592-1.328-.592-2.528v-4.416h1.76v4.464c0 1.328.432 1.808 1.456 1.808 1.008 0 1.52-.592 1.52-1.888v-4.384Zm11.342 0v7.616h-1.76v-.8c-.816.768-1.408 1.04-2.336 1.04-2.096 0-3.632-1.728-3.632-4.048 0-2.304 1.536-4 3.584-4 .976 0 1.632.288 2.384 1.088v-.896h1.76Zm-3.824 1.376c-1.2 0-2.112 1.04-2.112 2.432 0 1.44.864 2.464 2.096 2.464 1.312 0 2.192-.992 2.192-2.432 0-1.456-.88-2.464-2.176-2.464Zm9.019.704c-.24-.48-.496-.704-.864-.704-.32 0-.576.24-.576.544 0 .32.192.496 1.008.864.768.368 1.104.544 1.456.784.608.416.912.992.912 1.712 0 1.456-1.184 2.576-2.704 2.576-1.28 0-2.192-.64-2.72-1.888l1.504-.688c.416.768.704.992 1.232.992.544 0 .895-.32.895-.8 0-.512-.095-.592-1.743-1.392-1.12-.544-1.488-1.04-1.488-1.984 0-1.312 1.007-2.288 2.368-2.288.992 0 1.664.464 2.176 1.504l-1.456.768Zm8.055 9.68v-11.76h1.76v.832c.736-.72 1.424-1.024 2.336-1.024 2.08 0 3.616 1.712 3.616 4.048 0 2.272-1.536 4-3.568 4-.96 0-1.648-.336-2.384-1.088v4.992h-1.76Zm3.824-10.384c-1.296 0-2.176.992-2.176 2.448 0 1.44.88 2.448 2.16 2.448 1.216 0 2.128-1.024 2.128-2.4 0-1.456-.88-2.496-2.112-2.496Zm7.514-1.376v.688c.64-.688 1.056-.896 1.744-.896.544 0 .864.096 1.472.464l-.816 1.616c-.4-.288-.624-.384-.976-.384-.976 0-1.424.688-1.424 2.192v3.936h-1.76v-7.616h1.76Zm7.717-.192c2.304 0 4.08 1.744 4.08 4.016 0 2.272-1.776 4.032-4.096 4.032-2.272 0-4.032-1.776-4.032-4.096 0-2.176 1.808-3.952 4.048-3.952Zm0 1.568c-1.328 0-2.256.976-2.256 2.432 0 1.488.896 2.464 2.256 2.464 1.376 0 2.288-.976 2.288-2.432 0-1.488-.912-2.464-2.288-2.464Zm7.738 6.24h-1.76v-5.968h-.624v-1.648h.624v-2.928c0-.992.144-1.6.512-2.016.4-.512 1.2-.832 1.984-.832.416 0 .672.048 1.184.272v1.776c-.656-.32-.8-.368-1.12-.368-.624 0-.8.352-.8 1.6v2.496h1.92v1.648h-1.92v5.968Zm7.88-7.616h1.76v7.616h-1.76v-.656a2.69 2.69 0 0 1-2 .896c-.864 0-1.616-.272-2.144-.912-.48-.624-.592-1.328-.592-2.528v-4.416h1.76v4.464c0 1.328.432 1.808 1.456 1.808 1.008 0 1.52-.592 1.52-1.888v-4.384Zm5.743 0v.704c.704-.688 1.2-.896 2.064-.896.96 0 1.808.4 2.256 1.024.32.512.464 1.104.464 2.112v4.672h-1.76v-4.256c0-.784-.048-1.152-.224-1.44-.224-.336-.64-.544-1.184-.544-1.184 0-1.616.688-1.616 2.576v3.664h-1.76v-7.616h1.76Zm14.366-5.568V192.5h-1.76v-.8c-.736.72-1.424 1.04-2.352 1.04-2.08 0-3.616-1.728-3.616-4.048 0-2.288 1.536-4 3.584-4 .96 0 1.648.304 2.384 1.088v-6.464h1.76Zm-3.824 6.944c-1.2 0-2.112 1.04-2.112 2.4 0 1.472.864 2.496 2.096 2.496 1.312 0 2.192-.992 2.192-2.432 0-1.456-.88-2.464-2.176-2.464Zm13.496-1.376v7.616h-1.76v-.8c-.816.768-1.408 1.04-2.336 1.04-2.096 0-3.632-1.728-3.632-4.048 0-2.304 1.536-4 3.584-4 .976 0 1.632.288 2.384 1.088v-.896h1.76Zm-3.824 1.376c-1.2 0-2.112 1.04-2.112 2.432 0 1.44.864 2.464 2.096 2.464 1.312 0 2.192-.992 2.192-2.432 0-1.456-.88-2.464-2.176-2.464Zm9.018.704c-.24-.48-.496-.704-.864-.704-.32 0-.576.24-.576.544 0 .32.192.496 1.008.864.768.368 1.104.544 1.456.784.608.416.912.992.912 1.712 0 1.456-1.184 2.576-2.704 2.576-1.28 0-2.192-.64-2.72-1.888l1.504-.688c.416.768.704.992 1.232.992.544 0 .896-.32.896-.8 0-.512-.096-.592-1.744-1.392-1.12-.544-1.488-1.04-1.488-1.984 0-1.312 1.008-2.288 2.368-2.288.992 0 1.664.464 2.176 1.504l-1.456.768Zm11.719-7.152c-.56 1.312-.784 2-1.008 2.864-.304 1.328-.528 3.232-.528 4.832 0 1.616.224 3.52.528 4.832.224.88.448 1.552 1.008 2.864l-1.616.64c-.592-1.2-.832-1.936-1.12-3.2a24.199 24.199 0 0 1-.592-5.136c0-1.648.224-3.504.592-5.12.288-1.28.528-2.016 1.12-3.216l1.616.64Zm2.789 16.832v-11.76h1.76v.832c.736-.72 1.424-1.024 2.336-1.024 2.08 0 3.616 1.712 3.616 4.048 0 2.272-1.536 4-3.568 4-.96 0-1.648-.336-2.384-1.088v4.992h-1.76Zm3.824-10.384c-1.296 0-2.176.992-2.176 2.448 0 1.44.88 2.448 2.16 2.448 1.216 0 2.128-1.024 2.128-2.4 0-1.456-.88-2.496-2.112-2.496Zm7.514-1.376v.688c.64-.688 1.056-.896 1.744-.896.544 0 .864.096 1.472.464l-.816 1.616c-.4-.288-.624-.384-.976-.384-.976 0-1.424.688-1.424 2.192v3.936h-1.76v-7.616h1.76Zm7.188-1.168-.976-.576 2.16-2.864 1.648.864-2.832 2.576Zm-1.616 5.408c.08 1.248.848 2.032 1.968 2.032.88 0 1.36-.336 2.064-1.472l1.472.832c-.4.672-.624.976-1.024 1.296-.672.592-1.616.928-2.576.928-2.256 0-3.76-1.6-3.76-4.016 0-2.432 1.472-4.032 3.68-4.032 1.248 0 2.4.576 2.992 1.504.4.624.624 1.52.624 2.512v.416h-5.44Zm3.632-1.44c-.24-.896-.88-1.408-1.776-1.408-.848 0-1.536.544-1.76 1.408h3.536Zm6.842.192v1.536H523.5v-1.536h3.488Zm4.514-.912c-.24-.48-.496-.704-.864-.704-.32 0-.576.24-.576.544 0 .32.192.496 1.008.864.768.368 1.104.544 1.456.784.608.416.912.992.912 1.712 0 1.456-1.184 2.576-2.704 2.576-1.28 0-2.192-.64-2.72-1.888l1.504-.688c.416.768.704.992 1.232.992.544 0 .896-.32.896-.8 0-.512-.096-.592-1.744-1.392-1.12-.544-1.488-1.04-1.488-1.984 0-1.312 1.008-2.288 2.368-2.288.992 0 1.664.464 2.176 1.504l-1.456.768Zm10.931-2.08v7.616h-1.76v-.8c-.816.768-1.408 1.04-2.336 1.04-2.096 0-3.632-1.728-3.632-4.048 0-2.304 1.536-4 3.584-4 .976 0 1.632.288 2.384 1.088v-.896h1.76Zm-3.824 1.376c-1.2 0-2.112 1.04-2.112 2.432 0 1.44.864 2.464 2.096 2.464 1.312 0 2.192-.992 2.192-2.432 0-1.456-.88-2.464-2.176-2.464Zm7.802 6.24h-1.76v-13.184h1.76V192.5Zm2.208 2.704c.56-1.312.8-1.984 1.008-2.864.304-1.312.528-3.216.528-4.832 0-1.6-.224-3.504-.528-4.832-.208-.864-.448-1.552-1.008-2.864l1.616-.64c.592 1.2.832 1.936 1.136 3.216.352 1.616.576 3.472.576 5.12 0 1.648-.224 3.52-.576 5.136-.304 1.264-.544 2-1.136 3.2l-1.616-.64Z" class="Description"/>
    </g>
  </g>
</svg>
