<svg width="507" height="198" viewBox="0 0 507 198" fill="none" xmlns="http://www.w3.org/2000/svg">
<path d="M88.5306 66.7875L80.0393 72.9238L78.7426 83.2324H64.7435L63.9349 83.8156C63.2278 84.3277 62.3745 84.603 61.5001 84.603C60.6261 84.603 59.7733 84.3277 59.0662 83.8156L58.2582 83.2324H44.2588L42.9618 72.9238L34.471 66.7875C34.1008 64.9837 33.9138 63.1475 33.9138 61.3055C33.9138 46.1771 46.2727 33.8979 61.5001 33.8979C76.7275 33.8979 89.0873 46.1771 89.0873 61.3055C89.0873 63.1475 88.9004 64.9837 88.5306 66.7875ZM61.5001 31.5C44.9583 31.5 31.5 44.8709 31.5 61.3055C31.5 63.3022 31.7044 65.3079 32.1061 67.2665L32.2935 68.179L40.6963 74.2518L42.1282 85.6303H57.4741L57.6445 85.7533C58.7712 86.5695 60.1041 87 61.5001 87C62.8963 87 64.2299 86.5695 65.3521 85.7563L65.527 85.6303H80.8726L82.3045 74.2518L90.709 68.179L90.8958 67.2655C91.2976 65.3061 91.5 63.3006 91.5 61.3055C91.5 44.8709 78.0422 31.5 61.5001 31.5Z" fill="white"/>
<path d="M58.2587 83.2385H44.2591L42.962 72.9297L34.4712 66.7936C34.1011 64.99 33.9141 63.1535 33.9141 61.3118C33.9141 46.1828 46.2733 33.9041 61.5006 33.9041C76.7283 33.9041 89.0864 46.1828 89.0864 61.3118C89.0864 63.1535 88.9011 64.99 88.5298 66.7936L80.0402 72.9297L78.7416 83.2385H64.7429L63.9349 83.8219C63.2268 84.3338 62.3744 84.6094 61.5006 84.6094C60.6263 84.6094 59.7738 84.3338 59.0664 83.8219L58.2587 83.2385Z" stroke="white" stroke-width="1.16667" stroke-miterlimit="40"/>
<path d="M58.2587 83.2385H44.2591L42.962 72.9297L34.4712 66.7936C34.1011 64.99 33.9141 63.1535 33.9141 61.3118C33.9141 46.1828 46.2733 33.9041 61.5006 33.9041C76.7283 33.9041 89.0864 46.1828 89.0864 61.3118C89.0864 63.1535 88.9011 64.99 88.5298 66.7936L80.0402 72.9297L78.7416 83.2385H64.7429L63.9349 83.8219C63.2268 84.3338 62.3744 84.6094 61.5006 84.6094C60.6263 84.6094 59.7738 84.3338 59.0664 83.8219L58.2587 83.2385Z" fill="#FBBE09"/>
<path fill-rule="evenodd" clip-rule="evenodd" d="M58.6966 78.4417H48.521L47.4928 70.2732L39.1118 64.2165C38.8663 63.2668 38.7417 62.2914 38.7417 61.3118C38.7417 59.6751 39.0887 58.057 39.7602 56.5634L54.5992 71.4703L40.1729 53.776C40.7407 51.4812 41.9973 49.4114 43.7755 47.8432L56.7076 70.0194L45.2496 45.7408C46.7316 43.7813 48.799 42.3364 51.1563 41.6121L59.0631 69.1386L53.2863 40.4775C55.0435 39.4925 57.0273 38.9749 59.0452 38.9749C59.4721 38.9749 59.8985 38.9982 60.3234 39.0444L61.5006 68.8491L62.6779 39.0444C63.1013 38.9982 63.5279 38.9749 63.9558 38.9749C65.973 38.9749 67.9575 39.4925 69.7153 40.4775L63.9379 69.1386L71.8456 41.6121C74.2025 42.3364 76.269 43.7813 77.7516 45.7408L66.2933 70.0194L79.2251 47.8432C81.0043 49.4114 82.2603 51.4812 82.829 53.776L68.4015 71.4703L83.2411 56.5634C83.9132 58.057 84.2602 59.6751 84.2602 61.3118C84.2602 62.2914 84.1352 63.2668 83.8888 64.2165L75.5088 70.2732L74.4809 78.4417H64.3043L62.7989 79.5298C62.4209 79.8033 61.9668 79.9498 61.5006 79.9498C61.0341 79.9498 60.5798 79.8033 60.2026 79.5298L58.6966 78.4417ZM58.2587 83.2385H44.2591L42.962 72.9297L34.4712 66.7936C34.1011 64.99 33.9141 63.1535 33.9141 61.3118C33.9141 46.1828 46.2733 33.9041 61.5006 33.9041C76.7283 33.9041 89.0864 46.1828 89.0864 61.3118C89.0864 63.1535 88.9011 64.99 88.5298 66.7936L80.0402 72.9297L78.7416 83.2385H64.7429L63.9349 83.8219C63.2268 84.3338 62.3744 84.6094 61.5006 84.6094C60.6263 84.6094 59.7738 84.3338 59.0664 83.8219L58.2587 83.2385Z" fill="#EE2722"/>
<path d="M52.206 139.064C50.358 137.594 48.678 136.922 46.788 136.922C44.772 136.922 43.26 138.098 43.26 139.652C43.26 140.24 43.554 140.87 44.016 141.248C44.94 142.004 45.276 142.13 48.972 143.222C54.474 144.86 56.742 147.422 56.742 152.126C56.742 155.696 55.65 158.468 53.508 160.316C51.24 162.248 48.006 163.298 44.352 163.298C40.614 163.298 36.75 162.08 33.39 159.728L36.918 153.092C39.48 155.318 41.748 156.326 44.184 156.326C46.578 156.326 48.174 155.108 48.174 153.26C48.174 151.538 47.082 150.74 43.218 149.606C39.69 148.556 38.346 147.968 37.212 147.044C35.532 145.658 34.692 143.558 34.692 140.744C34.692 134.402 39.06 130.076 45.444 130.076C48.762 130.076 52.29 131 55.482 132.638L52.206 139.064ZM69.3915 127.724V143.726C71.4495 141.332 73.1715 140.534 76.2795 140.534C78.9255 140.534 80.9835 141.29 82.4955 142.886C84.0075 144.398 84.4695 145.91 84.4695 148.85V162.5H76.8675V151.622C76.8675 149.438 76.8255 149.018 76.4055 148.22C75.9435 147.212 74.7255 146.54 73.3815 146.54C72.1215 146.54 70.9455 147.128 70.1895 147.968C69.6435 148.724 69.3915 149.564 69.3915 150.95V162.5H61.7895V127.724H69.3915ZM96.4852 153.134C96.5272 156.41 98.0392 158.006 101.063 158.006C102.869 158.006 103.877 157.46 104.843 155.948H112.151C111.605 157.754 111.143 158.72 110.261 159.728C108.287 162.038 104.927 163.34 101.063 163.34C93.6292 163.34 88.7992 158.846 88.7992 151.916C88.7992 144.86 93.3772 140.366 100.769 140.366C108.077 140.366 112.487 144.902 112.487 152.378V153.134H96.4852ZM105.389 148.724C104.885 146.54 103.205 145.28 100.937 145.28C98.6272 145.28 97.0312 146.54 96.6532 148.724H105.389ZM124.681 162.5H117.079V127.724H124.681V162.5ZM137.436 162.5H129.834V127.724H137.436V162.5ZM155.199 130.832H167.421C173.175 130.832 176.325 133.772 176.325 139.106C176.325 142.298 175.317 144.188 172.839 145.616C175.149 146.078 176.241 146.54 177.291 147.59C178.551 148.934 179.307 151.118 179.307 153.512C179.307 159.098 175.149 162.5 168.387 162.5H155.199V130.832ZM164.943 143.306C167.463 143.306 168.765 142.214 168.765 140.24C168.765 138.182 167.463 137.174 164.943 137.174H163.431V143.306H164.943ZM165.237 156.074C169.311 156.074 170.991 155.108 170.991 152.756C170.991 151.58 170.403 150.488 169.437 150.026C168.471 149.564 167.799 149.438 165.069 149.438H163.431V156.074H165.237ZM191.413 140.996V144.524C193.177 141.794 195.193 140.702 198.469 140.702C198.973 140.702 199.225 140.702 199.939 140.744V148.01C198.721 147.422 198.007 147.254 196.747 147.254C193.177 147.254 191.413 149.312 191.413 153.302V162.5H183.811V140.996H191.413ZM227.857 140.996V162.5H220.255V160.148C218.575 162.248 216.517 163.214 213.619 163.214C207.487 163.214 202.741 158.174 202.741 151.664C202.741 145.238 207.445 140.282 213.535 140.282C216.307 140.282 218.365 141.164 220.255 143.096V140.996H227.857ZM215.551 146.834C212.905 146.834 210.679 149.018 210.679 151.664C210.679 154.478 212.863 156.662 215.593 156.662C218.281 156.662 220.465 154.478 220.465 151.706C220.465 149.018 218.281 146.834 215.551 146.834ZM253.066 156.2V162.5H231.31L241.39 147.296H232.654V140.996H254.074L243.994 156.2H253.066ZM261.789 128.48C264.141 128.48 266.031 130.37 266.031 132.722C266.031 135.116 264.141 137.006 261.789 137.006C259.395 137.006 257.505 135.116 257.505 132.68C257.505 130.37 259.437 128.48 261.789 128.48ZM265.569 162.5H257.967V140.996H265.569V162.5ZM278.325 162.5H270.723V127.724H278.325V162.5ZM304.32 162.5H296.088V130.832H309.15C312.846 130.832 315.03 131.546 317.088 133.52C319.104 135.452 320.154 138.014 320.154 141.332C320.154 144.482 319.272 147.17 317.592 149.018C315.828 151.034 313.224 151.958 309.444 151.958H304.32V162.5ZM307.008 145.364C310.158 145.364 311.544 144.146 311.544 141.416C311.544 138.77 310.074 137.426 307.05 137.426H304.32V145.364H307.008ZM335.4 140.198C343.002 140.198 348.378 144.986 348.378 151.706C348.378 158.552 343.002 163.298 335.316 163.298C327.756 163.298 322.506 158.468 322.506 151.538C322.506 148.388 323.934 145.322 326.37 143.18C328.512 141.332 331.956 140.198 335.4 140.198ZM335.4 146.75C332.754 146.75 330.528 148.976 330.528 151.622C330.528 154.394 332.712 156.62 335.442 156.62C338.172 156.62 340.356 154.394 340.356 151.664C340.356 148.934 338.172 146.75 335.4 146.75ZM360.315 140.996V144.524C362.079 141.794 364.095 140.702 367.371 140.702C367.875 140.702 368.127 140.702 368.841 140.744V148.01C367.623 147.422 366.909 147.254 365.649 147.254C362.079 147.254 360.315 149.312 360.315 153.302V162.5H352.713V140.996H360.315ZM381.626 163.214C378.224 163.214 376.712 162.164 375.956 161.198C374.99 160.064 374.15 158.804 374.15 155.234V147.128H371.63V140.996H374.15V134.528H381.71V140.996H386.75V147.128H381.71V155.528C381.71 156.746 382.34 157.334 383.642 157.334C384.608 157.334 385.742 156.998 386.456 156.536V162.416C385.49 162.836 383.852 163.214 381.626 163.214ZM398.844 162.5H391.242V147.296H388.512V140.996H391.242V137.72C391.242 134.234 391.872 132.344 393.636 130.412C395.568 128.396 398.172 127.22 400.818 127.22C402.12 127.22 402.876 127.43 404.178 128.06V134.654C402.96 134.066 402.33 133.898 401.532 133.898C400.524 133.898 399.432 134.486 399.096 135.326C398.886 135.83 398.844 136.544 398.844 138.308V140.996H404.178V147.296H398.844V162.5ZM419.482 140.198C427.084 140.198 432.46 144.986 432.46 151.706C432.46 158.552 427.084 163.298 419.398 163.298C411.838 163.298 406.588 158.468 406.588 151.538C406.588 148.388 408.016 145.322 410.452 143.18C412.594 141.332 416.038 140.198 419.482 140.198ZM419.482 146.75C416.836 146.75 414.61 148.976 414.61 151.622C414.61 154.394 416.794 156.62 419.524 156.62C422.254 156.62 424.438 154.394 424.438 151.664C424.438 148.934 422.254 146.75 419.482 146.75ZM444.397 162.5H436.795V127.724H444.397V162.5ZM453.373 128.48C455.725 128.48 457.615 130.37 457.615 132.722C457.615 135.116 455.725 137.006 453.373 137.006C450.979 137.006 449.089 135.116 449.089 132.68C449.089 130.37 451.021 128.48 453.373 128.48ZM457.153 162.5H449.551V140.996H457.153V162.5ZM474.361 140.198C481.963 140.198 487.339 144.986 487.339 151.706C487.339 158.552 481.963 163.298 474.277 163.298C466.717 163.298 461.467 158.468 461.467 151.538C461.467 148.388 462.895 145.322 465.331 143.18C467.473 141.332 470.917 140.198 474.361 140.198ZM474.361 146.75C471.715 146.75 469.489 148.976 469.489 151.622C469.489 154.394 471.673 156.62 474.403 156.62C477.133 156.62 479.317 154.394 479.317 151.664C479.317 148.934 477.133 146.75 474.361 146.75Z" fill="#343434"/>
<path d="M34.78 182.164V185.044H39.452V186.772H34.78V190.788H39.596V192.5H32.94V180.436H39.596V182.164H34.78ZM41.2829 184.884H43.3789L45.0749 187.108L46.8029 184.884H48.9469L46.1309 188.372L49.3949 192.5H47.3149L45.0749 189.668L42.7869 192.5H40.6429L44.0189 188.372L41.2829 184.884ZM50.5728 196.644V184.884H52.3328V185.716C53.0688 184.996 53.7568 184.692 54.6688 184.692C56.7488 184.692 58.2847 186.404 58.2847 188.74C58.2847 191.012 56.7488 192.74 54.7168 192.74C53.7568 192.74 53.0688 192.404 52.3328 191.652V196.644H50.5728ZM54.3968 186.26C53.1008 186.26 52.2208 187.252 52.2208 188.708C52.2208 190.148 53.1008 191.156 54.3808 191.156C55.5968 191.156 56.5088 190.132 56.5088 188.756C56.5088 187.3 55.6288 186.26 54.3968 186.26ZM61.9109 192.5H60.1509V179.316H61.9109V192.5ZM67.8153 184.692C70.1193 184.692 71.8953 186.436 71.8953 188.708C71.8953 190.98 70.1193 192.74 67.7993 192.74C65.5273 192.74 63.7673 190.964 63.7673 188.644C63.7673 186.468 65.5753 184.692 67.8153 184.692ZM67.8153 186.26C66.4873 186.26 65.5593 187.236 65.5593 188.692C65.5593 190.18 66.4553 191.156 67.8153 191.156C69.1913 191.156 70.1033 190.18 70.1033 188.724C70.1033 187.236 69.1913 186.26 67.8153 186.26ZM75.489 184.884V185.572C76.129 184.884 76.545 184.676 77.233 184.676C77.777 184.676 78.097 184.772 78.705 185.14L77.889 186.756C77.489 186.468 77.265 186.372 76.913 186.372C75.937 186.372 75.489 187.06 75.489 188.564V192.5H73.729V184.884H75.489ZM86.9328 184.884V192.5H85.1728V191.7C84.3568 192.468 83.7648 192.74 82.8368 192.74C80.7408 192.74 79.2048 191.012 79.2048 188.692C79.2048 186.388 80.7408 184.692 82.7888 184.692C83.7648 184.692 84.4208 184.98 85.1728 185.78V184.884H86.9328ZM83.1088 186.26C81.9088 186.26 80.9968 187.3 80.9968 188.692C80.9968 190.132 81.8608 191.156 83.0928 191.156C84.4048 191.156 85.2848 190.164 85.2848 188.724C85.2848 187.268 84.4048 186.26 83.1088 186.26ZM91.9929 191.124C92.1849 191.124 92.5689 191.06 92.9209 190.74V192.356C92.6009 192.58 92.1369 192.724 91.5449 192.724C90.7609 192.724 90.2969 192.484 90.0089 192.132C89.6249 191.7 89.5289 191.028 89.5289 190.036V186.484H88.7929V184.884H89.5289V182.1H91.2889V184.884H92.8569V186.484H91.2889V190.324C91.2889 190.74 91.3369 191.124 91.9929 191.124ZM95.4059 180.58C96.0619 180.58 96.5739 181.092 96.5739 181.732C96.5739 182.356 96.0619 182.884 95.4219 182.884C94.7819 182.884 94.2699 182.356 94.2699 181.732C94.2699 181.108 94.7979 180.58 95.4059 180.58ZM96.3019 192.5H94.5419V184.884H96.3019V192.5ZM102.19 184.692C104.494 184.692 106.27 186.436 106.27 188.708C106.27 190.98 104.494 192.74 102.174 192.74C99.9023 192.74 98.1423 190.964 98.1423 188.644C98.1423 186.468 99.9503 184.692 102.19 184.692ZM102.19 186.26C100.862 186.26 99.9343 187.236 99.9343 188.692C99.9343 190.18 100.83 191.156 102.19 191.156C103.566 191.156 104.478 190.18 104.478 188.724C104.478 187.236 103.566 186.26 102.19 186.26ZM109.864 184.884V185.588C110.568 184.9 111.064 184.692 111.928 184.692C112.888 184.692 113.736 185.092 114.184 185.716C114.504 186.228 114.648 186.82 114.648 187.828V192.5H112.888V188.244C112.888 187.46 112.84 187.092 112.664 186.804C112.44 186.468 112.024 186.26 111.48 186.26C110.296 186.26 109.864 186.948 109.864 188.836V192.5H108.104V184.884H109.864ZM128.761 184.884V192.5H127.001V191.7C126.185 192.468 125.593 192.74 124.665 192.74C122.569 192.74 121.033 191.012 121.033 188.692C121.033 186.388 122.569 184.692 124.617 184.692C125.593 184.692 126.249 184.98 127.001 185.78V184.884H128.761ZM124.937 186.26C123.737 186.26 122.825 187.3 122.825 188.692C122.825 190.132 123.689 191.156 124.921 191.156C126.233 191.156 127.113 190.164 127.113 188.724C127.113 187.268 126.233 186.26 124.937 186.26ZM132.739 184.884V185.588C133.443 184.9 133.939 184.692 134.803 184.692C135.763 184.692 136.611 185.092 137.059 185.716C137.379 186.228 137.523 186.82 137.523 187.828V192.5H135.763V188.244C135.763 187.46 135.715 187.092 135.539 186.804C135.315 186.468 134.899 186.26 134.355 186.26C133.171 186.26 132.739 186.948 132.739 188.836V192.5H130.979V184.884H132.739ZM147.105 179.316V192.5H145.345V191.7C144.609 192.42 143.921 192.74 142.993 192.74C140.913 192.74 139.377 191.012 139.377 188.692C139.377 186.404 140.913 184.692 142.961 184.692C143.921 184.692 144.609 184.996 145.345 185.78V179.316H147.105ZM143.281 186.26C142.081 186.26 141.169 187.3 141.169 188.66C141.169 190.132 142.033 191.156 143.265 191.156C144.577 191.156 145.457 190.164 145.457 188.724C145.457 187.268 144.577 186.26 143.281 186.26ZM153.854 196.644V184.884H155.614V185.716C156.35 184.996 157.038 184.692 157.95 184.692C160.03 184.692 161.566 186.404 161.566 188.74C161.566 191.012 160.03 192.74 157.998 192.74C157.038 192.74 156.35 192.404 155.614 191.652V196.644H153.854ZM157.678 186.26C156.382 186.26 155.502 187.252 155.502 188.708C155.502 190.148 156.382 191.156 157.662 191.156C158.878 191.156 159.79 190.132 159.79 188.756C159.79 187.3 158.91 186.26 157.678 186.26ZM165.192 184.884V185.572C165.832 184.884 166.248 184.676 166.936 184.676C167.48 184.676 167.8 184.772 168.408 185.14L167.592 186.756C167.192 186.468 166.968 186.372 166.616 186.372C165.64 186.372 165.192 187.06 165.192 188.564V192.5H163.432V184.884H165.192ZM172.909 184.692C175.213 184.692 176.989 186.436 176.989 188.708C176.989 190.98 175.213 192.74 172.893 192.74C170.621 192.74 168.861 190.964 168.861 188.644C168.861 186.468 170.669 184.692 172.909 184.692ZM172.909 186.26C171.581 186.26 170.653 187.236 170.653 188.692C170.653 190.18 171.549 191.156 172.909 191.156C174.285 191.156 175.197 190.18 175.197 188.724C175.197 187.236 174.285 186.26 172.909 186.26ZM186.183 179.316V192.5H184.423V191.7C183.687 192.42 182.999 192.74 182.071 192.74C179.991 192.74 178.455 191.012 178.455 188.692C178.455 186.404 179.991 184.692 182.039 184.692C182.999 184.692 183.687 184.996 184.423 185.78V179.316H186.183ZM182.359 186.26C181.159 186.26 180.247 187.3 180.247 188.66C180.247 190.132 181.111 191.156 182.343 191.156C183.655 191.156 184.535 190.164 184.535 188.724C184.535 187.268 183.655 186.26 182.359 186.26ZM193.137 184.884H194.897V192.5H193.137V191.844C192.625 192.404 191.921 192.74 191.137 192.74C190.273 192.74 189.521 192.468 188.993 191.828C188.513 191.204 188.401 190.5 188.401 189.3V184.884H190.161V189.348C190.161 190.676 190.593 191.156 191.617 191.156C192.625 191.156 193.137 190.564 193.137 189.268V184.884ZM203.024 187.54C202.224 186.564 201.696 186.26 200.848 186.26C199.504 186.26 198.528 187.316 198.528 188.708C198.528 190.132 199.488 191.156 200.8 191.156C201.68 191.156 202.176 190.852 203.024 189.844V192.18C202.24 192.596 201.696 192.74 200.88 192.74C198.528 192.74 196.736 190.996 196.736 188.74C196.736 186.468 198.56 184.692 200.896 184.692C201.712 184.692 202.32 184.836 203.024 185.22V187.54ZM207.712 191.124C207.904 191.124 208.288 191.06 208.64 190.74V192.356C208.32 192.58 207.856 192.724 207.264 192.724C206.48 192.724 206.016 192.484 205.728 192.132C205.344 191.7 205.248 191.028 205.248 190.036V186.484H204.512V184.884H205.248V182.1H207.008V184.884H208.576V186.484H207.008V190.324C207.008 190.74 207.056 191.124 207.712 191.124ZM211.125 180.58C211.781 180.58 212.293 181.092 212.293 181.732C212.293 182.356 211.781 182.884 211.141 182.884C210.501 182.884 209.989 182.356 209.989 181.732C209.989 181.108 210.517 180.58 211.125 180.58ZM212.021 192.5H210.261V184.884H212.021V192.5ZM217.909 184.692C220.213 184.692 221.989 186.436 221.989 188.708C221.989 190.98 220.213 192.74 217.893 192.74C215.621 192.74 213.861 190.964 213.861 188.644C213.861 186.468 215.669 184.692 217.909 184.692ZM217.909 186.26C216.581 186.26 215.653 187.236 215.653 188.692C215.653 190.18 216.549 191.156 217.909 191.156C219.285 191.156 220.197 190.18 220.197 188.724C220.197 187.236 219.285 186.26 217.909 186.26ZM225.583 184.884V185.588C226.287 184.9 226.783 184.692 227.647 184.692C228.607 184.692 229.455 185.092 229.903 185.716C230.223 186.228 230.367 186.82 230.367 187.828V192.5H228.607V188.244C228.607 187.46 228.559 187.092 228.383 186.804C228.159 186.468 227.743 186.26 227.199 186.26C226.015 186.26 225.583 186.948 225.583 188.836V192.5H223.823V184.884H225.583ZM240.8 184.692C243.104 184.692 244.88 186.436 244.88 188.708C244.88 190.98 243.104 192.74 240.784 192.74C238.512 192.74 236.752 190.964 236.752 188.644C236.752 186.468 238.56 184.692 240.8 184.692ZM240.8 186.26C239.472 186.26 238.544 187.236 238.544 188.692C238.544 190.18 239.44 191.156 240.8 191.156C242.176 191.156 243.088 190.18 243.088 188.724C243.088 187.236 242.176 186.26 240.8 186.26ZM248.537 192.5H246.777V186.532H246.153V184.884H246.777V181.956C246.777 180.964 246.921 180.356 247.289 179.94C247.689 179.428 248.489 179.108 249.273 179.108C249.689 179.108 249.945 179.156 250.457 179.38V181.156C249.801 180.836 249.657 180.788 249.337 180.788C248.713 180.788 248.537 181.14 248.537 182.388V184.884H250.457V186.532H248.537V192.5ZM259.659 184.692C261.963 184.692 263.739 186.436 263.739 188.708C263.739 190.98 261.963 192.74 259.643 192.74C257.371 192.74 255.611 190.964 255.611 188.644C255.611 186.468 257.419 184.692 259.659 184.692ZM259.659 186.26C258.331 186.26 257.403 187.236 257.403 188.692C257.403 190.18 258.299 191.156 259.659 191.156C261.035 191.156 261.947 190.18 261.947 188.724C261.947 187.236 261.035 186.26 259.659 186.26ZM266.453 180.58C267.109 180.58 267.621 181.092 267.621 181.732C267.621 182.356 267.109 182.884 266.469 182.884C265.829 182.884 265.317 182.356 265.317 181.732C265.317 181.108 265.845 180.58 266.453 180.58ZM267.349 192.5H265.589V184.884H267.349V192.5ZM271.317 192.5H269.557V179.316H271.317V192.5ZM285.433 184.884V192.5H283.673V191.7C282.857 192.468 282.265 192.74 281.337 192.74C279.241 192.74 277.705 191.012 277.705 188.692C277.705 186.388 279.241 184.692 281.289 184.692C282.265 184.692 282.921 184.98 283.673 185.78V184.884H285.433ZM281.609 186.26C280.409 186.26 279.497 187.3 279.497 188.692C279.497 190.132 280.361 191.156 281.593 191.156C282.905 191.156 283.785 190.164 283.785 188.724C283.785 187.268 282.905 186.26 281.609 186.26ZM289.411 184.884V185.588C290.115 184.9 290.611 184.692 291.475 184.692C292.435 184.692 293.283 185.092 293.731 185.716C294.051 186.228 294.195 186.82 294.195 187.828V192.5H292.435V188.244C292.435 187.46 292.387 187.092 292.211 186.804C291.987 186.468 291.571 186.26 291.027 186.26C289.843 186.26 289.411 186.948 289.411 188.836V192.5H287.651V184.884H289.411ZM303.777 179.316V192.5H302.017V191.7C301.281 192.42 300.593 192.74 299.665 192.74C297.585 192.74 296.049 191.012 296.049 188.692C296.049 186.404 297.585 184.692 299.633 184.692C300.593 184.692 301.281 184.996 302.017 185.78V179.316H303.777ZM299.953 186.26C298.753 186.26 297.841 187.3 297.841 188.66C297.841 190.132 298.705 191.156 299.937 191.156C301.249 191.156 302.129 190.164 302.129 188.724C302.129 187.268 301.249 186.26 299.953 186.26ZM317.886 192.324C317.886 193.796 317.726 194.484 317.23 195.188C316.574 196.116 315.486 196.66 314.206 196.66C312.942 196.66 311.79 196.148 311.134 195.3C310.782 194.82 310.622 194.34 310.494 193.332H312.206C312.366 194.052 312.526 194.388 312.894 194.644C313.262 194.916 313.726 195.092 314.19 195.092C314.862 195.092 315.486 194.772 315.79 194.308C316.014 193.94 316.126 193.46 316.126 192.724V191.652C315.406 192.404 314.67 192.74 313.726 192.74C311.678 192.74 310.174 191.06 310.174 188.756C310.174 186.404 311.678 184.692 313.742 184.692C314.686 184.692 315.518 185.076 316.126 185.764V184.884H317.886V192.324ZM314.062 186.26C312.798 186.26 311.966 187.236 311.966 188.724C311.966 189.556 312.174 190.116 312.606 190.548C313.006 190.948 313.55 191.156 314.062 191.156C315.342 191.156 316.206 190.164 316.206 188.724C316.206 187.252 315.342 186.26 314.062 186.26ZM327.558 184.884V192.5H325.798V191.7C324.982 192.468 324.39 192.74 323.462 192.74C321.366 192.74 319.83 191.012 319.83 188.692C319.83 186.388 321.366 184.692 323.414 184.692C324.39 184.692 325.046 184.98 325.798 185.78V184.884H327.558ZM323.734 186.26C322.534 186.26 321.622 187.3 321.622 188.692C321.622 190.132 322.486 191.156 323.718 191.156C325.03 191.156 325.91 190.164 325.91 188.724C325.91 187.268 325.03 186.26 323.734 186.26ZM332.752 186.964C332.512 186.484 332.256 186.26 331.888 186.26C331.568 186.26 331.312 186.5 331.312 186.804C331.312 187.124 331.504 187.3 332.32 187.668C333.088 188.036 333.424 188.212 333.776 188.452C334.384 188.868 334.688 189.444 334.688 190.164C334.688 191.62 333.504 192.74 331.984 192.74C330.704 192.74 329.792 192.1 329.264 190.852L330.768 190.164C331.184 190.932 331.472 191.156 332 191.156C332.544 191.156 332.896 190.836 332.896 190.356C332.896 189.844 332.8 189.764 331.152 188.964C330.032 188.42 329.664 187.924 329.664 186.98C329.664 185.668 330.672 184.692 332.032 184.692C333.024 184.692 333.696 185.156 334.208 186.196L332.752 186.964ZM341.687 180.58C342.343 180.58 342.855 181.092 342.855 181.732C342.855 182.356 342.343 182.884 341.703 182.884C341.063 182.884 340.551 182.356 340.551 181.732C340.551 181.108 341.079 180.58 341.687 180.58ZM342.583 192.5H340.823V184.884H342.583V192.5ZM346.552 184.884V185.588C347.256 184.9 347.752 184.692 348.616 184.692C349.576 184.692 350.424 185.092 350.872 185.716C351.192 186.228 351.336 186.82 351.336 187.828V192.5H349.576V188.244C349.576 187.46 349.528 187.092 349.352 186.804C349.128 186.468 348.712 186.26 348.168 186.26C346.984 186.26 346.552 186.948 346.552 188.836V192.5H344.792V184.884H346.552ZM365.448 179.316V192.5H363.688V191.7C362.952 192.42 362.264 192.74 361.336 192.74C359.256 192.74 357.72 191.012 357.72 188.692C357.72 186.404 359.256 184.692 361.304 184.692C362.264 184.692 362.952 184.996 363.688 185.78V179.316H365.448ZM361.624 186.26C360.424 186.26 359.512 187.3 359.512 188.66C359.512 190.132 360.376 191.156 361.608 191.156C362.92 191.156 363.8 190.164 363.8 188.724C363.8 187.268 362.92 186.26 361.624 186.26ZM369.155 189.124C369.235 190.372 370.003 191.156 371.123 191.156C372.003 191.156 372.483 190.82 373.187 189.684L374.659 190.516C374.259 191.188 374.035 191.492 373.635 191.812C372.963 192.404 372.019 192.74 371.059 192.74C368.803 192.74 367.299 191.14 367.299 188.724C367.299 186.292 368.771 184.692 370.979 184.692C372.227 184.692 373.379 185.268 373.971 186.196C374.371 186.82 374.595 187.716 374.595 188.708V189.124H369.155ZM372.787 187.684C372.547 186.788 371.907 186.276 371.011 186.276C370.163 186.276 369.475 186.82 369.251 187.684H372.787ZM377.998 189.124C378.078 190.372 378.846 191.156 379.966 191.156C380.846 191.156 381.326 190.82 382.03 189.684L383.502 190.516C383.102 191.188 382.878 191.492 382.478 191.812C381.806 192.404 380.862 192.74 379.902 192.74C377.646 192.74 376.142 191.14 376.142 188.724C376.142 186.292 377.614 184.692 379.822 184.692C381.07 184.692 382.222 185.268 382.814 186.196C383.214 186.82 383.438 187.716 383.438 188.708V189.124H377.998ZM381.63 187.684C381.39 186.788 380.75 186.276 379.854 186.276C379.006 186.276 378.318 186.82 378.094 187.684H381.63ZM385.354 196.644V184.884H387.114V185.716C387.85 184.996 388.538 184.692 389.45 184.692C391.53 184.692 393.066 186.404 393.066 188.74C393.066 191.012 391.53 192.74 389.498 192.74C388.538 192.74 387.85 192.404 387.114 191.652V196.644H385.354ZM389.178 186.26C387.882 186.26 387.002 187.252 387.002 188.708C387.002 190.148 387.882 191.156 389.162 191.156C390.378 191.156 391.29 190.132 391.29 188.756C391.29 187.3 390.41 186.26 389.178 186.26ZM397.626 189.22L399.786 184.196L401.946 189.22L403.914 184.884H405.866L401.898 193.076L399.786 188.164L397.642 193.076L393.674 184.884H395.642L397.626 189.22ZM414.183 184.884V192.5H412.423V191.7C411.607 192.468 411.015 192.74 410.087 192.74C407.991 192.74 406.455 191.012 406.455 188.692C406.455 186.388 407.991 184.692 410.039 184.692C411.015 184.692 411.671 184.98 412.423 185.78V184.884H414.183ZM410.359 186.26C409.159 186.26 408.247 187.3 408.247 188.692C408.247 190.132 409.111 191.156 410.343 191.156C411.655 191.156 412.535 190.164 412.535 188.724C412.535 187.268 411.655 186.26 410.359 186.26ZM419.243 191.124C419.435 191.124 419.819 191.06 420.171 190.74V192.356C419.851 192.58 419.387 192.724 418.795 192.724C418.011 192.724 417.547 192.484 417.259 192.132C416.875 191.7 416.779 191.028 416.779 190.036V186.484H416.043V184.884H416.779V182.1H418.539V184.884H420.107V186.484H418.539V190.324C418.539 190.74 418.587 191.124 419.243 191.124ZM423.186 189.124C423.266 190.372 424.034 191.156 425.154 191.156C426.034 191.156 426.514 190.82 427.218 189.684L428.69 190.516C428.29 191.188 428.066 191.492 427.666 191.812C426.994 192.404 426.05 192.74 425.09 192.74C422.834 192.74 421.33 191.14 421.33 188.724C421.33 186.292 422.802 184.692 425.01 184.692C426.258 184.692 427.41 185.268 428.002 186.196C428.402 186.82 428.626 187.716 428.626 188.708V189.124H423.186ZM426.818 187.684C426.578 186.788 425.938 186.276 425.042 186.276C424.194 186.276 423.506 186.82 423.282 187.684H426.818ZM432.302 184.884V185.572C432.942 184.884 433.358 184.676 434.046 184.676C434.59 184.676 434.91 184.772 435.518 185.14L434.702 186.756C434.302 186.468 434.078 186.372 433.726 186.372C432.75 186.372 432.302 187.06 432.302 188.564V192.5H430.542V184.884H432.302ZM444.721 179.812C444.161 181.124 443.937 181.812 443.713 182.676C443.409 184.004 443.185 185.908 443.185 187.508C443.185 189.124 443.409 191.028 443.713 192.34C443.937 193.22 444.161 193.892 444.721 195.204L443.105 195.844C442.513 194.644 442.273 193.908 441.985 192.644C441.617 191.028 441.393 189.156 441.393 187.508C441.393 185.86 441.617 184.004 441.985 182.388C442.273 181.108 442.513 180.372 443.105 179.172L444.721 179.812ZM447.51 196.644V184.884H449.27V185.716C450.006 184.996 450.694 184.692 451.606 184.692C453.686 184.692 455.222 186.404 455.222 188.74C455.222 191.012 453.686 192.74 451.654 192.74C450.694 192.74 450.006 192.404 449.27 191.652V196.644H447.51ZM451.334 186.26C450.038 186.26 449.158 187.252 449.158 188.708C449.158 190.148 450.038 191.156 451.318 191.156C452.534 191.156 453.446 190.132 453.446 188.756C453.446 187.3 452.566 186.26 451.334 186.26ZM458.848 184.884V185.572C459.488 184.884 459.904 184.676 460.592 184.676C461.136 184.676 461.456 184.772 462.064 185.14L461.248 186.756C460.848 186.468 460.624 186.372 460.272 186.372C459.296 186.372 458.848 187.06 458.848 188.564V192.5H457.088V184.884H458.848ZM464.42 189.124C464.5 190.372 465.268 191.156 466.388 191.156C467.268 191.156 467.748 190.82 468.452 189.684L469.924 190.516C469.524 191.188 469.3 191.492 468.9 191.812C468.228 192.404 467.284 192.74 466.324 192.74C464.068 192.74 462.564 191.14 462.564 188.724C462.564 186.292 464.036 184.692 466.244 184.692C467.492 184.692 468.644 185.268 469.236 186.196C469.636 186.82 469.86 187.716 469.86 188.708V189.124H464.42ZM468.052 187.684C467.812 186.788 467.172 186.276 466.276 186.276C465.428 186.276 464.74 186.82 464.516 187.684H468.052ZM474.894 187.876V189.412H471.406V187.876H474.894ZM479.408 186.964C479.168 186.484 478.912 186.26 478.544 186.26C478.224 186.26 477.968 186.5 477.968 186.804C477.968 187.124 478.16 187.3 478.976 187.668C479.744 188.036 480.08 188.212 480.432 188.452C481.04 188.868 481.344 189.444 481.344 190.164C481.344 191.62 480.16 192.74 478.64 192.74C477.36 192.74 476.448 192.1 475.92 190.852L477.424 190.164C477.84 190.932 478.128 191.156 478.656 191.156C479.2 191.156 479.552 190.836 479.552 190.356C479.552 189.844 479.456 189.764 477.808 188.964C476.688 188.42 476.32 187.924 476.32 186.98C476.32 185.668 477.328 184.692 478.688 184.692C479.68 184.692 480.352 185.156 480.864 186.196L479.408 186.964ZM490.339 184.884V192.5H488.579V191.7C487.763 192.468 487.171 192.74 486.243 192.74C484.147 192.74 482.611 191.012 482.611 188.692C482.611 186.388 484.147 184.692 486.195 184.692C487.171 184.692 487.827 184.98 488.579 185.78V184.884H490.339ZM486.515 186.26C485.315 186.26 484.403 187.3 484.403 188.692C484.403 190.132 485.267 191.156 486.499 191.156C487.811 191.156 488.691 190.164 488.691 188.724C488.691 187.268 487.811 186.26 486.515 186.26ZM494.317 192.5H492.557V179.316H494.317V192.5ZM499.134 191.124C499.326 191.124 499.71 191.06 500.062 190.74V192.356C499.742 192.58 499.278 192.724 498.686 192.724C497.902 192.724 497.438 192.484 497.15 192.132C496.766 191.7 496.67 191.028 496.67 190.036V186.484H495.934V184.884H496.67V182.1H498.43V184.884H499.998V186.484H498.43V190.324C498.43 190.74 498.478 191.124 499.134 191.124ZM501.479 195.204C502.039 193.892 502.279 193.22 502.487 192.34C502.791 191.028 503.015 189.124 503.015 187.508C503.015 185.908 502.791 184.004 502.487 182.676C502.279 181.812 502.039 181.124 501.479 179.812L503.095 179.172C503.687 180.372 503.927 181.108 504.231 182.388C504.583 184.004 504.807 185.86 504.807 187.508C504.807 189.156 504.583 191.028 504.231 192.644C503.927 193.908 503.687 194.644 503.095 195.844L501.479 195.204Z" fill="#343434"/>
</svg>
